<?xml version="1.0" encoding="utf-8"?>
<!-- Generator: Adobe Illustrator 19.0.0, SVG Export Plug-In . SVG Version: 6.00 Build 0)  -->
<svg version="1.1" id="Layer_1" xmlns="http://www.w3.org/2000/svg" xmlns:xlink="http://www.w3.org/1999/xlink" x="0px" y="0px"
	 viewBox="0 0 200 200" style="enable-background:new 0 0 200 200;" xml:space="preserve">
<g id="XMLID_3_">
</g>
<g id="XMLID_30_">
</g>
<g id="XMLID_2_">
	<path id="XMLID_32_" d="M70.4,47.7c11.8,9.3,20.7,21,25,35.7c3.8-6,6-12.2,6.5-19.3c3.8,4,6.5,8.5,8.8,13.5s3.5,10,3.8,15.5
		c3.8-4.7,6.3-9.7,6.5-15.7c0,0,0,0.3,0.3,0.3c5.5,7.2,10,15.3,12.8,24c2,6,3,12.2,2.8,18.5s-1.5,12.5-4.3,18.2
		c-2.5,5-6.5,8.5-11.8,10.5c-3.2,1.5-6.8,2.2-10.5,2.8c-4.3,0.5-8.8,1-13,0.7c-12-0.7-21-6-26.8-16.5c-2.5-4.7-3.5-9.7-3.2-15.3
		c0.3-7.5,1.5-14.7,3-21.8c1-4.7,2-9.5,2.8-14.3s1-9.7,0.7-14.7c-0.3-7.2-1.5-14.3-3.2-21.3C70.4,47.9,70.4,47.9,70.4,47.7
		L70.4,47.7z M80.1,66.7C79.9,66.7,79.9,66.7,80.1,66.7c0,0.5,0,0.7,0,1.3c0.3,5.7,0.3,11.5-0.7,17.2c-0.7,4.7-1.8,9.3-2.5,14
		c-1.3,6.5-2.8,13.2-3,20c0,2.2-0.3,4.5,0.3,6.8c1,5.5,3.5,10.3,7.8,14c4.7,4.3,10.5,6,16.8,6c3.5,0,7,0,10.5-0.5
		c3.2-0.5,6.3-1,9.5-2.2c4.7-2,8.2-5.3,9.7-10.3c2.5-7,3-14.3,1.8-21.8c-1.3-6.5-3.5-12.8-6.5-18.5c0-0.3-0.3-0.3-0.3-0.5
		c-4,6.8-9,12.5-14.7,17.8c0-0.3,0-0.3,0-0.5c0-4.7-0.3-9.7-0.7-14.5c-0.5-4-0.7-7.8-1.8-11.8c-0.3-1.3-0.7-2.2-1-3.5
		c-3.2,7-7.5,13-11.5,19.3C90.4,87.2,86.6,76.4,80.1,66.7z"/>
	<path id="XMLID_28_" d="M91.9,120.2c-2.5-6-5-12-7.5-17.8c0,0.3-0.3,0.5-0.3,0.7c-1.3,4.5-2,8.8-2.2,13.5c0,2.5,0,5.3-0.3,8
		c0,1-0.5,1.5-1.3,1.8c-1,0.3-2-0.5-2-1.5c0-2,0-4.3,0.3-6.3c0.3-3.2,0.5-6.5,1-9.7c0.5-3.8,1.5-7.5,2.8-11c0.5-1.8,1.3-3.8,2-5.5
		c2.2,7.2,5.3,14.3,8.2,21.3c3.5-5,6.5-10.3,9.7-15.5c0,0.3,0,0.5,0,0.7c0,2.8,0,5.5,0,8.2c0.3,3.8,1,7.2,2.2,10.7
		c0.3,0,0.3-0.3,0.5-0.3c5.7-3,10.5-6.8,14.3-11.8c0.7-1,1.5-2,2.5-3l0.3-0.3c0,0,0,0,0.3,0c0.3,1.5,0.5,3.2,0.7,4.7
		c0.5,3.8,0.5,7.2,0.3,11c-0.3,3.5-1,6.8-2.2,10c-0.5,1.3-1.8,1.5-2.8,0.7c-0.5-0.5-0.5-1-0.3-1.8c1-2.5,1.5-5.3,2-8
		c0.5-3.2,0.5-6.3,0.3-9.5c-4.7,5.7-10.7,9.5-17.2,12.5c-0.7-2.2-1.5-4.3-2-6.5c-0.5-2.2-1-4.5-1.5-6.5
		C96.9,112.7,94.6,116.4,91.9,120.2L91.9,120.2z"/>
</g>
<g id="XMLID_1_">
</g>
</svg>
