<?xml version="1.0" encoding="utf-8"?>
<!-- Generator: Adobe Illustrator 19.0.0, SVG Export Plug-In . SVG Version: 6.00 Build 0)  -->
<svg version="1.1" id="Layer_1" xmlns="http://www.w3.org/2000/svg" xmlns:xlink="http://www.w3.org/1999/xlink" x="0px" y="0px"
	 viewBox="0 0 200 200" style="enable-background:new 0 0 200 200;" xml:space="preserve">
<g id="XMLID_3_">
</g>
<g id="XMLID_30_">
</g>
<g id="XMLID_1_">
</g>
<g id="XMLID_38_">
</g>
<g id="XMLID_2_">
	<path id="XMLID_47_" d="M62.8,86.2c0-9.3,3-18,9.3-25.5c6-7.2,13.2-11.8,22.5-13.2c12.2-2,23,1,32,9.3c7,6.3,11,14,12.5,23.2
		c1,6.8,0.5,13.2-1.3,19.5c-1.8,6.8-4.5,12.8-8,18.8c-4.3,7.5-9.3,14.5-14.5,21.3c-3,3.8-6,7.2-9,11c-1.3,1.5-2.8,2.5-4.7,2.8
		c-1.3,0.3-2.5-0.3-3.5-0.7c-1-0.5-1.8-1.3-2.5-2.2c-5-6.3-10.3-12.2-14.7-18.8c-4.7-6.8-9.3-14-12.8-21.8c-2-4.7-3.8-9.7-4.7-15
		C63,91.9,62.8,89.2,62.8,86.2z M101.3,146.4L101.3,146.4c0.3,0,0.5-0.3,0.7-0.5c5-5.7,9.7-11.8,14.3-18c4.7-6.5,9-13.2,12.2-20.5
		c2.5-5.5,4.5-11.5,5-17.5c0.7-7.2-0.7-14-4.5-20.3c-5.7-9.5-14-15.3-25.3-16.3c-7.5-0.5-14.3,1.5-20.3,5.7C73,66.7,68,79.4,70,92.4
		c0.7,4.5,2,8.8,3.8,13c2.8,6.8,6.5,12.8,10.5,18.8c4.5,6.8,9.5,13,14.7,19.3C99.5,144.4,100.3,145.4,101.3,146.4z"/>
	<path id="XMLID_4_" d="M100.3,65.7c9,0,16,5.3,19,13c3,8.5,0.3,18-7,23.2c-8,6-19,4.5-25.5-3c-7-8.2-6.5-20.5,1.3-28
		C91.8,67.7,96.3,65.9,100.3,65.7z M85.3,84.9c0,4.7,1.3,8.5,3.8,11.5c5.5,7,15.3,8,22.2,2.5c7-5.7,8.2-16.3,2.8-23.5
		c-4.7-6-12.8-8-19.5-4.7C88.3,73.9,85.5,79.2,85.3,84.9z"/>
</g>
<g id="XMLID_37_">
</g>
</svg>
