<?xml version="1.0" encoding="utf-8"?>
<!-- Generator: Adobe Illustrator 19.0.0, SVG Export Plug-In . SVG Version: 6.00 Build 0)  -->
<svg version="1.1" id="Layer_1" xmlns="http://www.w3.org/2000/svg" xmlns:xlink="http://www.w3.org/1999/xlink" x="0px" y="0px"
	 viewBox="0 0 200 200" style="enable-background:new 0 0 200 200;" xml:space="preserve">
<style type="text/css">
	.st0{fill:#F8B700;}
	.st1{fill:#3D1C10;}
	.st2{fill:#E9D2C8;}
	.st3{fill:#F08D00;}
	.st4{fill:#FFFFFF;}
	.st5{fill:#D39625;}
	.st6{fill:#B27B42;}
	.st7{fill:#1B1C20;}
	.st8{fill:#C1AFA7;}
	.st9{fill:#D7D9DB;}
	.st10{fill:#D5C1B8;}
</style>
<g id="XMLID_3_">
</g>
<g id="XMLID_30_">
</g>
<g id="XMLID_1_">
</g>
<g id="XMLID_38_">
</g>
<g id="XMLID_191_">
	<path id="XMLID_190_" class="st0" d="M90.5,87.9c-0.1-0.4-0.2-0.8-0.4-1.1c0,0,0,0,0,0C90.2,87.2,90.3,87.6,90.5,87.9
		C90.5,88,90.5,88,90.5,87.9"/>
	<path id="XMLID_189_" class="st0" d="M91.6,91.8C91.6,91.8,91.6,91.8,91.6,91.8c-0.1-0.2-0.1-0.4-0.2-0.6
		C91.5,91.4,91.5,91.6,91.6,91.8"/>
	<path id="XMLID_187_" class="st0" d="M91.2,90.5C91.2,90.5,91.2,90.5,91.2,90.5C91.2,90.5,91.2,90.5,91.2,90.5
		C91.2,90.5,91.2,90.5,91.2,90.5"/>
	<path id="XMLID_186_" class="st0" d="M92.4,95c0-0.1,0-0.2-0.1-0.3c0,0,0,0,0,0C92.4,94.8,92.4,94.9,92.4,95"/>
	<path id="XMLID_185_" class="st0" d="M89.2,89.8C89.3,89.9,89.3,89.9,89.2,89.8C89.3,89.9,89.3,89.9,89.2,89.8"/>
	<path id="XMLID_184_" class="st0" d="M89.8,97.4C89.9,97.4,89.9,97.3,89.8,97.4C89.9,97.3,89.9,97.4,89.8,97.4"/>
	<path id="XMLID_183_" class="st0" d="M90.2,96.7c0,0.1-0.1,0.3-0.1,0.4C90.2,97,90.2,96.9,90.2,96.7"/>
	<path id="XMLID_182_" class="st1" d="M95.3,62.2c-0.1-0.1-0.4-0.3-0.6-0.5c-0.1-0.1-0.3-0.2-0.5-0.2c-0.2-0.1-0.4-0.1-0.6-0.2
		c-0.4-0.1-1-0.1-1.5-0.1c-0.3,0-0.5,0-0.7,0c-0.2,0-0.5,0.1-0.7,0.1c-0.5,0.1-0.9,0.3-1.2,0.4c-0.2,0.1-0.3,0.2-0.4,0.2
		c-0.1,0.1-0.2,0.1-0.3,0.2c-0.1,0.1-0.2,0.2-0.2,0.2l0.1,0.1c0,0,0.1-0.1,0.3-0.1c0.1,0,0.2-0.1,0.3-0.2c0.1,0,0.3-0.1,0.4-0.2
		c0.2-0.1,0.3-0.1,0.5-0.1c0.2,0,0.4-0.1,0.6-0.1c0.2,0,0.4,0,0.6,0c0,0,0.1,0,0.1,0c-0.2,0.2-0.3,0.4-0.3,0.7
		c0,0.5,0.4,0.9,0.9,0.9h0.4c0.5,0,0.9-0.4,0.9-0.9c0-0.1,0-0.2-0.1-0.3c0.3,0.1,0.6,0.1,0.9,0.2c0.3,0.1,0.6,0.1,0.8,0.1
		c0.2,0,0.3,0,0.3,0l0.1-0.1C95.5,62.4,95.5,62.3,95.3,62.2"/>
	<path id="XMLID_181_" class="st2" d="M88.7,59.9c0.1-0.1,0.2-0.2,0.3-0.3c0.1-0.1,0.3-0.2,0.4-0.3c-0.2,0.1-0.3,0.2-0.4,0.3
		C88.9,59.7,88.8,59.8,88.7,59.9"/>
	<path id="XMLID_180_" class="st2" d="M89.1,57.4c-0.8,0.7-1.4,1.3-1.4,1.4C87.8,58.7,88.3,58.1,89.1,57.4"/>
	<path id="XMLID_179_" class="st0" d="M105.8,90.2c0-0.1-0.1-0.3-0.1-0.4C105.7,89.9,105.8,90.1,105.8,90.2"/>
	<path id="XMLID_178_" class="st3" d="M96.8,107.7l-0.1,0.2c0,0-0.2,0.4-0.4,1c-0.1-0.5-0.2-0.8-0.2-0.8L96,108l-1.2-0.8
		c-0.1-0.1-0.3-0.1-0.5-0.1c0,0-4.2,0.8-7.3,0.3l-0.1,0l-0.1,0c0,0-0.4,0-0.8-0.1l0,0c1.1-3.5,5.5-6,10.4-6c4.6,0,8.7,2.2,10.1,5.4
		l0,0c0,0,0,0-0.1,0c-1.5,0.6-6.5,0.3-8.2,0.2l-0.3,0L96.8,107.7z"/>
	<path id="XMLID_177_" class="st2" d="M94.5,111.2c0-0.1,0-0.1,0-0.1c0,0,0-0.1,0-0.1l0,0l0,0c0,0,0,0,0-0.1c0,0-0.1-0.1-0.1-0.1
		c0,0-0.1-0.1-0.1-0.1c0,0-0.1-0.1-0.1-0.1c-0.1,0-0.2,0-0.3,0c-0.1,0-0.2,0-0.3,0c-0.2,0-0.4,0-0.7,0.1c-0.7,0.1-1.4,0.1-2.2,0.2
		c-0.3,0-0.5,0-0.8,0c-0.3,0-0.5,0-0.7,0c-0.5,0-0.9-0.1-1.3-0.1c-0.2,0-0.4,0-0.5,0c-0.2,0-0.3,0-0.4,0c-0.1,0-0.2,0-0.3,0
		c-0.1,0-0.1,0-0.1,0s0.5,0,1.3,0c0.4,0,0.8,0,1.3,0c0.2,0,0.5,0,0.7,0c0.2,0,0.5,0,0.7-0.1c0.5-0.1,1-0.2,1.5-0.2
		c0.5-0.1,0.9-0.2,1.3-0.2c0.1,0,0.3-0.1,0.4-0.1c0,0,0,0,0,0c0,0,0-0.1,0.1-0.2c0-0.1,0.1-0.2,0.1-0.3c0,0,0-0.1,0-0.1
		c0-0.1,0-0.1,0-0.1c0,0,0-0.1,0-0.1l0,0l0,0c0,0,0,0,0-0.1c0,0-0.1-0.1-0.1-0.1c0,0-0.1-0.1-0.1-0.1c0,0-0.1-0.1-0.1-0.1
		c0,0-0.1,0-0.1,0c0,0,0,0,0,0c0,0,0,0,0,0c-1.1,0.2-2.9,0.4-4.8,0.3c-0.6,0-1.2-0.1-1.8-0.1c0,0-0.1,0-0.1,0c-0.1,0-0.2,0-0.3,0
		c-0.1,0-0.3,0-0.5-0.1c0,0-0.1,0-0.1,0c0,0-0.1,0-0.1,0c-0.5-0.1-0.9-0.3-1.2-0.6c-0.3-0.3-0.5-0.6-0.7-1c0-0.1-0.1-0.3-0.1-0.4
		c0-0.1,0-0.3,0.1-0.4c0,0,0-0.1,0.1-0.1c0.1-0.3,0.4-0.5,0.6-0.6c0.2-0.1,0.5-0.2,0.6-0.2c0,0,0.1,0,0.1,0l0.2-0.1l0,0l0,0l0,0l0,0
		l0.4-0.6l0,0c-0.1-0.1-0.2-0.2-0.3-0.3c-0.1-0.1-0.2-0.2-0.3-0.3c-0.2-0.2-0.3-0.4-0.5-0.6c-0.3-0.2-1.9,0.7-3.8,2.5
		c-0.3,0.3-0.5,0.5-0.8,0.8l-0.1,0.2l-0.1,0.2l-11.2-3.1c0,0-0.2-0.1-0.6-0.2c-1-0.3-3.4-0.8-5.5-0.8l-6,2.6
		c-0.1,0.1-1.2,0.7-1.1,2.4c0,0.6,0.1,1,0.1,1.5c0.1,0.9,0.3,1.6,0.6,2.2c0.2,0.3,0.4,0.7,0.7,1c0.3,0.3,0.5,0.7,0.8,1
		c0.6,0.9,1.1,1.7,2.4,2c0.4,0.1,0.9,0.2,1.6,0.2c0.2,0,1.5-0.2,3-0.4c1.1-0.2,2.4-0.5,3.5-0.9c0.4-0.1,0.7-0.3,1.1-0.4
		c0.9-0.4,2.2-0.8,3.5-1.1c2.8-0.6,5.8-0.8,6-0.8l0,0l0,0c0-0.1-0.1-0.3-0.1-0.4c0-0.1,0-0.3,0-0.4c0-0.1,0-0.1,0-0.2
		c0-0.1,0-0.1,0-0.2c0-0.1,0-0.2,0-0.3c0-0.1,0-0.2,0-0.3c0,0,0-0.1,0-0.1c0,0,0-0.1,0-0.1c0-0.1,0-0.2,0-0.2v0v0c0,0,0,0.1,0,0.2
		c0,0.1,0,0.1,0,0.2c0,0.1,0,0.2,0,0.3c0,0.1,0,0.2,0,0.3c0,0.1,0,0.2,0.1,0.3c0,0.1,0,0.1,0.1,0.2c0,0.1,0,0.1,0.1,0.2
		c0.1,0.1,0.1,0.2,0.2,0.3l0.1,0.2l0.1,0.1c0.1,0.1,0.1,0.2,0.2,0.3c0.1,0.1,0.2,0.2,0.2,0.2c0.2,0.1,0.4,0.2,0.6,0.4
		c0.7,0.4,1.6,0.9,2.7,1.4c0.4,0.2,0.9,0.3,1.3,0.5c0.5,0.1,0.9,0.2,1.4,0.2l2.5,0.1h2.4c0,0,0.1,0,0.2,0c0.3,0,0.7,0,1-0.1
		c0.2,0,0.3,0,0.4-0.1c0.1,0,0.1-0.1,0.2-0.1l0-0.1c0,0,0,0,0,0c0,0,0,0,0,0c0,0,0-0.1,0-0.1c0,0,0-0.1,0-0.2c0-0.1,0-0.2-0.1-0.2
		c0,0,0-0.1-0.1-0.1c0,0,0-0.1-0.1-0.1c0,0-0.1-0.1-0.1-0.1c0,0-0.1-0.1-0.1-0.1c0,0-0.1,0-0.1-0.1c0,0,0,0,0,0
		c-0.5,0.1-1.1,0.1-1.7,0.1c-0.3,0-0.5,0-0.8,0c-0.3,0-0.5,0-0.7,0c-0.5,0-0.9-0.1-1.3-0.1c-0.2,0-0.4,0-0.5,0c-0.2,0-0.3,0-0.4,0
		c-0.1,0-0.2,0-0.3,0c-0.1,0-0.1,0-0.1,0s0.1,0,0.4,0c0.2,0,0.5,0,0.9,0c0.4,0,0.8,0,1.3,0c0.2,0,0.5,0,0.7,0c0.2,0,0.5,0,0.7-0.1
		c1-0.1,2-0.3,2.8-0.5c0.1,0,0.2,0,0.3-0.1c0.2,0,0.4-0.1,0.5-0.1c0.1,0,0.2,0,0.2,0c0,0,0.1-0.1,0.1-0.1c0,0,0,0,0,0
		c0,0,0-0.1,0-0.2c0-0.1,0-0.2-0.1-0.2c0,0,0-0.1-0.1-0.1c0,0,0-0.1-0.1-0.1c0,0-0.1-0.1-0.1-0.1c0,0-0.1-0.1-0.1-0.1
		c0,0-0.1,0-0.1-0.1c0,0-0.1,0-0.1,0c0,0-0.1,0-0.1,0c-0.2,0-0.4,0-0.7,0.1c-0.7,0.1-1.4,0.1-2.2,0.2c-0.3,0-0.5,0-0.8,0
		c-0.3,0-0.5,0-0.7,0c-0.2,0-0.4,0-0.7,0c-0.2,0-0.5,0-0.7,0c-0.6,0-1,0-1.2,0c-0.1,0-0.1,0-0.1,0s0.5,0,1.3,0c0.4,0,0.8,0,1.3,0
		c0.2,0,0.5,0,0.7,0c0.2,0,0.5,0,0.7-0.1c1-0.1,2-0.3,2.8-0.5c0.3-0.1,0.6-0.1,0.8-0.1c0.1,0,0.2,0,0.2,0c0,0,0-0.1,0-0.1
		c0-0.1,0.1-0.2,0.1-0.3C94.5,111.3,94.5,111.2,94.5,111.2"/>
	<path id="XMLID_176_" class="st2" d="M142.5,103.2c-0.8-1-1.9-1.7-3-2.1c-0.7-0.3-1.4-0.5-2-0.6c-0.6-0.1-1.1-0.2-1.5-0.2
		c-0.2,0-0.3,0-0.4,0c-0.9,0.1-10.7,2.2-16.4,4.5c-0.1,0-1.5,0.5-3.6,0.4c-0.7,0-1.5-0.2-2.3-0.4c-1.3-0.3-2.1-0.7-2.7-1
		c-0.6-0.3-0.9-0.6-1.1-0.8c-0.1,0-0.2-0.1-0.3-0.1c-0.2-0.1-0.5-0.1-0.9,0c-0.2,0-0.3,0.1-0.5,0.2c-0.3,0.2-0.4,0.4-0.5,0.6
		c-0.1,0.1-0.1,0.2-0.2,0.3c-0.1,0.2-0.3,0.4-0.5,0.5l0.2,0.3l0.6,0.8c0.2,0.1,0.4,0.2,0.5,0.3c0.2,0.2,0.3,0.4,0.4,0.7
		c0,0.9-1,1.3-1.4,1.4c-0.2,0.1-0.5,0.1-0.9,0.2c-0.6,0.2-1.2,0.3-1.9,0.4c-0.3,0-0.7,0-1,0c-0.3,0-0.7,0-1,0c-0.3,0-0.7,0-1-0.1
		c-0.6-0.1-1.2-0.1-1.7-0.2c-0.2,0-0.5-0.1-0.7-0.1c0,0,0,0-0.1,0c0,0,0,0-0.1,0c0,0-0.1,0-0.1,0.1c0,0-0.1,0-0.1,0.1
		c0,0-0.1,0.1-0.1,0.1c0,0.1-0.1,0.2-0.1,0.2c0,0.1,0,0.2,0,0.3c0,0.1,0,0.2,0,0.2c0.2,0,0.4,0.1,0.6,0.1c0.5,0.1,1.1,0.2,1.7,0.3
		c0.3,0,0.6,0.1,1,0.2c0.2,0,0.3,0.1,0.5,0.1l0.1,0l0,0l0,0l0,0l0,0c0,0,0,0,0,0l0,0l0.1,0l0,0c0.1,0,0.2,0,0.2,0
		c0.3,0.1,0.6,0.1,1,0.1c0.3,0,0.6,0,1,0c0.6,0,1.2,0,1.7,0c1,0,1.7,0.1,1.7,0.1l0,0h0c0,0-0.2,0-0.5,0c-0.3,0-0.7,0-1.2,0
		c-0.5,0-1.1,0-1.7,0.1c-0.3,0-0.6,0.1-1,0.1c-0.3,0-0.7,0-1,0c-0.1,0-0.2,0-0.3,0l0,0l0,0c0,0,0,0,0,0l0,0l0,0l0,0l-0.1,0
		c-0.2,0-0.3,0-0.5,0c-0.3,0-0.6-0.1-1-0.1c-0.6-0.1-1.2-0.1-1.7-0.1c-0.5,0-0.9-0.1-1.2-0.1c0,0,0,0-0.1,0.1c0,0.1-0.1,0.2-0.1,0.2
		c0,0.1,0,0.2,0,0.3c0,0.1,0,0.1,0,0.2c0.2,0,0.5,0.1,0.8,0.2c0.7,0.1,1.6,0.3,2.6,0.5c0.5,0.1,1,0.2,1.5,0.3c0.3,0.1,0.6,0.1,1,0.1
		c0.3,0,0.7,0,1,0c0.3,0,0.6,0,0.9,0c0.3,0,0.6,0,0.9,0c0.5,0,0.9,0,1.2,0c0.1,0,0.3,0,0.3,0c0.1,0,0.1,0,0.1,0l0,0h0c0,0-0.4,0-1,0
		c-0.2,0-0.4,0-0.7,0c-0.5,0-1.1,0.1-1.7,0.1c-0.3,0-0.6,0.1-1,0.1c-0.3,0-0.7,0-1.1,0c-0.7-0.1-1.4-0.2-2-0.3
		c-0.6-0.1-1.2-0.2-1.7-0.2c-0.3,0-0.6-0.1-0.8-0.1l0,0c0,0,0,0.1-0.1,0.1c0,0.1,0,0.2-0.1,0.3c0,0.2,0,0.3,0,0.5
		c0.3,0.1,0.6,0.1,1,0.2c0.5,0.1,1.1,0.2,1.7,0.4c0.6,0.1,1.3,0.3,2,0.4l0.1,0l0.2,0c0.1,0,0.2,0,0.2,0c0.1,0,0.2,0,0.2,0
		c0.1,0,0.2,0,0.2,0c0.3,0,0.7,0,1,0c0.7,0,1.3,0,1.8,0c0.3,0,0.5,0,0.7,0c0.6,0,1,0,1,0s0,0-0.1,0c-0.1,0-0.2,0-0.4,0
		c-0.3,0-0.7,0-1.3,0.1c-0.5,0-1.1,0.1-1.8,0.1c-0.3,0-0.7,0.1-1,0.1c-0.2,0-0.4,0-0.5,0c-0.1,0-0.2,0-0.3,0l-0.1,0l0,0l-0.1,0
		c0,0,0,0-0.1,0c-0.2,0-0.3,0-0.5-0.1c-0.1,0-0.2,0-0.3,0c-0.1,0-0.1,0-0.2,0c-0.3-0.1-0.7-0.1-1-0.1c-0.4-0.1-0.7-0.1-1.1-0.2
		c0,0,0,0,0,0c0,0,0,0,0,0c0,0,0,0,0,0c0,0,0,0.1,0,0.1c0,0,0,0.1,0,0.1c0,0,0,0.1,0,0.1c0,0,0,0.1,0,0.1c0,0.1,0,0.2,0,0.2
		c0,0.1,0,0.1,0,0.2c0.2,0.1,0.4,0.1,0.5,0.2c0.3,0.1,0.7,0.2,1.1,0.2c2.1,0.4,4.5,0.6,5.8,0.6l4.1-0.3c0,0,0.3,0,0.6-0.1
		c0.9-0.2,2.5-0.8,3.9-2.7c0.3-0.4,0.5-0.8,0.8-1.3l0-0.1l0-0.1c0,0,0-0.1,0.1-0.1c0.1-0.2,0.1-0.4,0.2-0.6c0-0.1,0-0.2,0-0.3
		c0-0.1,0-0.1,0-0.2l0-0.1l0-0.1c0-0.1,0-0.2,0-0.4c0-0.1,0-0.2-0.1-0.3c0-0.1-0.1-0.2-0.1-0.3c0-0.1-0.1-0.2-0.1-0.3
		c0-0.1-0.1-0.2-0.1-0.2c0-0.1-0.1-0.1-0.1-0.2c-0.1-0.1-0.1-0.2-0.1-0.2s0,0,0.1,0.1c0,0,0.1,0.1,0.1,0.1c0.1,0.1,0.1,0.1,0.2,0.2
		c0.1,0.1,0.1,0.2,0.2,0.3c0.1,0.1,0.1,0.2,0.2,0.3c0,0.1,0.1,0.1,0.1,0.2c0,0.1,0.1,0.1,0.1,0.2c0,0.1,0.1,0.3,0.1,0.4l0.1,0.2
		c0,0.1,0,0.1,0,0.2c0,0.1,0,0.3,0,0.4c0,0.1,0,0.1,0,0.2c1.7-0.5,6.7-1.2,20.1,1.6l0.1,0c0,0,0.2,0,0.4,0.1c0.1,0,0.3,0,0.5,0.1
		c0.2,0,0.4,0,0.6,0c0.2,0,0.4,0,0.7,0c0.7-0.1,1.5-0.3,2.3-0.7c1.2-0.7,2-2.2,2.2-4.2c0.2-1.3,0-2.4-0.5-3.4
		C142.9,103.8,142.7,103.4,142.5,103.2"/>
	<polygon id="XMLID_175_" class="st4" points="98.4,154.3 180.5,149.8 16.4,149.8 	"/>
	<path id="XMLID_174_" class="st4" d="M145.3,142.3h-2.8l-1.5-1.5c-0.5-0.5-1-1.2-1.2-1.9l-1.6-4.9c-0.1-0.3-0.3-0.7-0.6-0.9
		l-1.2,1.2c-0.1,0.1-0.2,0.2-0.3,0.4l-0.2,0.3v5l0.7,2.2h-6.5l0.7-2.2v-14.5l-0.7-2.2h6.5l-0.7,2.2v3.9l0.4-0.5l3.9-3.9l0.5-1.6h5.8
		l0.5,0.5l-5.5,5.5l0.7,0.7l1.8,5.4c0.2,0.7,0.7,1.4,1.2,1.9l0.4,0.4l1.6,0.5L145.3,142.3z"/>
	<path id="XMLID_370_" class="st4" d="M123.9,119.8l-8.4,0l-3.5,3.5v15.4l3.5,3.5h8.4l3.5-3.5v-15.4L123.9,119.8z M122,135.8
		L122,135.8c0,0.9-0.6,1.8-1.6,2.1c-1.2,0.3-2.5-0.3-2.9-1.4c-0.1-0.3-0.1-0.5-0.1-0.8V126c0,0,0,0,0-0.1c0-0.9,0.5-1.8,1.5-2
		c1.2-0.3,2.5,0.3,2.9,1.4c0.1,0.2,0.1,0.5,0.1,0.7c0,0,0,0,0,0V135.8z"/>
	<path id="XMLID_171_" class="st4" d="M164.6,125.5l0.7-2.2h-6.2l0.7,2.2v10.3c0,0.8-0.5,1.8-1.5,2c-1.1,0.3-2.3-0.3-2.7-1.3
		c-0.1-0.2-0.1-0.5-0.1-0.7c0,0,0,0,0,0v-10.2l0.7-2.2h-6.6l0.7,2.2v11.9l-0.3,1.3l3.5,3.5h7.9l3.5-3.5l-0.3-1.3V125.5z"/>
	<path id="XMLID_170_" class="st4" d="M177.9,130.9l-3.1-0.6c0,0,0,0,0,0l0,0l0,0c-0.8-0.2-1.5-0.7-1.6-1.3
		c-0.1-0.7,0.7-1.3,1.8-1.4l3.1,0l2.3,0.8l-1.7-5.1h-7.3l-3.5,3.5v4.4l2.4,2.4l3.8,0.9c0.1,0,0.3,0.1,0.4,0.1
		c0.3,0.2,0.6,0.4,0.8,0.8c0.4,0.8,0,1.8-0.9,2.1c-0.1,0-0.2,0.1-0.3,0.1c-0.1,0-1.5,0.1-1.5,0.1c-0.3,0-0.6-0.1-0.9-0.4l-0.4-0.4
		v-1.5l-4.3,2.2v1.1l0.4,0.8c0.3,0.6,0.7,1.1,1.1,1.5l1.2,1.2h7.4l3.5-3.5v-5.3L177.9,130.9z"/>
	<path id="XMLID_169_" class="st4" d="M25.3,142.2L26,140v-6.1c0-0.1-0.1-0.2-0.1-0.2c-0.1-0.1-0.3-0.2-0.4-0.2h-2.7
		c-0.2,0-0.4,0.2-0.4,0.2c-0.1,0.1-0.1,0.1-0.1,0.2v6.1l0.7,2.2h-6.5l0.7-2.2V122l-0.7-2.2h6.5l-0.7,2.2v6.1c0,0.2,0.1,0.4,0.2,0.6
		c0,0,0.2,0.2,0.3,0.2h2.8c0.1,0,0.3-0.1,0.3-0.2c0,0,0.2-0.5,0.2-0.7V122l-0.7-2.2h6.5l-0.7,2.2V140l0.7,2.2H25.3z"/>
	<path id="XMLID_168_" class="st4" d="M67.8,142.3H65l-1.6-1.6c-0.5-0.5-0.8-1.1-1-1.7l-1.7-5c-0.1-0.3-0.3-0.7-0.6-0.9l-1.2,1.2
		c-0.1,0.1-0.2,0.2-0.3,0.4l-0.2,0.3v5l0.7,2.2h-6.5l0.7-2.2v-14.5l-0.7-2.2h6.5l-0.7,2.2v3.9l0.4-0.5l3.9-3.9l0.5-1.6h5.8l0.5,0.5
		l-5.5,5.5l0.1,0.1c0.4,0.4,0.6,0.8,0.8,1.3l1.6,4.8c0.2,0.6,0.6,1.2,1,1.7l0.5,0.5l1.6,0.5L67.8,142.3z"/>
	<path id="XMLID_363_" class="st4" d="M46.4,123.3h-8.4l-3.5,3.5v11.9l3.5,3.5h8.4l3.5-3.5v-11.9L46.4,123.3z M44.5,135.8
		c0,0.9-0.5,1.8-1.5,2c-1.2,0.3-2.5-0.3-2.9-1.4c-0.1-0.2-0.1-0.5-0.1-0.7v-6.2c0-0.9,0.5-1.8,1.6-2c1.2-0.3,2.5,0.3,2.9,1.4
		c0.1,0.3,0.1,0.5,0.1,0.8V135.8z"/>
	<path id="XMLID_165_" class="st4" d="M87.1,125.5l0.7-2.2h-6.2l0.7,2.2v10.3c0,0.8-0.5,1.8-1.5,2c-1.1,0.3-2.3-0.3-2.7-1.3
		c-0.1-0.2-0.1-0.5-0.1-0.7c0,0,0,0,0,0v-10.2l0.7-2.2H72l0.7,2.2v11.9l-0.3,1.3l3.5,3.5h7.9l3.5-3.5l-0.3-1.3V125.5z"/>
	<path id="XMLID_164_" class="st4" d="M100.4,130.9l-3.1-0.6c0,0,0,0,0,0l0,0l0,0c-0.8-0.2-1.5-0.7-1.6-1.3
		c-0.1-0.7,0.7-1.3,1.8-1.4l3.1,0l2.3,0.8l-1.7-5.1h-7.3l-3.5,3.5v4.4l2.4,2.4l3.8,0.9c0.1,0,0.3,0.1,0.4,0.1
		c0.3,0.2,0.6,0.4,0.8,0.8c0.4,0.8,0,1.8-0.9,2.1c-0.1,0-0.2,0.1-0.3,0.1c-0.1,0-1.5,0.1-1.5,0.1c-0.3,0-0.6-0.1-0.9-0.4l-0.4-0.4
		v-1.5l-4.3,2.2v1.1l0.4,0.8c0.3,0.6,0.7,1.1,1.1,1.5l1.2,1.2h7.4l3.5-3.5v-5.3L100.4,130.9z"/>
	<path id="XMLID_163_" class="st4" d="M144.9,102.8c-2.7-3.3-8.9-3.9-9.2-3.9l0,0c-0.4,0-6.6,1.3-12.1,3c0-0.1,0.1-0.2,0.1-0.4
		c0.1-0.2,0.2-0.4,0.3-0.6c0.1-0.1,0.1-0.2,0.2-0.3c0.1-0.1,0.2-0.2,0.3-0.3c0.1-0.1,0.2-0.2,0.3-0.3c0.1-0.1,0.2-0.2,0.3-0.3
		c0.1-0.1,0.2-0.2,0.3-0.2c0.1-0.1,0.2-0.1,0.3-0.2c0.1-0.1,0.2-0.1,0.2-0.2c0.1,0,0.1-0.1,0.2-0.1c0.1-0.1,0.2-0.1,0.2-0.1
		s-0.1,0-0.2,0c-0.1,0-0.1,0-0.2,0.1c-0.1,0-0.2,0-0.3,0.1c-0.1,0-0.2,0.1-0.3,0.1c-0.1,0-0.2,0.1-0.4,0.1c-0.1,0.1-0.3,0.1-0.4,0.2
		c-0.1,0.1-0.3,0.1-0.4,0.2c-0.1,0.1-0.3,0.2-0.4,0.3c0,0,0,0-0.1,0c0-0.2,0.1-0.5,0.2-0.8c0.1-0.4,0.3-0.8,0.6-1.2
		c0.1-0.2,0.3-0.4,0.5-0.6c0.2-0.2,0.4-0.3,0.6-0.5c0.2-0.1,0.5-0.3,0.7-0.4l0.2-0.1c0.1,0,0.1,0,0.2-0.1c0.1,0,0.1,0,0.2-0.1
		c0.1,0,0.1,0,0.2-0.1c0.3-0.1,0.5-0.1,0.8-0.2c0.2,0,0.5-0.1,0.7-0.1c0.2,0,0.4,0,0.6,0c0.2,0,0.3,0,0.5,0c0.3,0,0.4,0,0.4,0
		s-0.1,0-0.4-0.1c-0.1,0-0.3-0.1-0.5-0.1c-0.2,0-0.4-0.1-0.6-0.1c-0.2,0-0.5,0-0.7,0c-0.3,0-0.5,0-0.8,0c-0.1,0-0.1,0-0.2,0
		c-0.1,0-0.1,0-0.2,0c-0.1,0-0.1,0-0.2,0c-0.1,0-0.1,0-0.2,0.1c-0.3,0.1-0.6,0.2-0.9,0.3c-0.3,0.1-0.6,0.3-0.8,0.5
		c-0.3,0.2-0.5,0.4-0.7,0.6c-0.3,0.3-0.5,0.6-0.7,0.9l-0.2-1.6l2.5-3.8c0.2-0.2-0.1-0.5-0.4-0.3l-2.5,2.1l-4.4-7.8c0,0,0,0,0,0
		c0,0,0-0.1,0-0.1c0-0.1-0.1-0.3-0.1-0.6c0-0.2,0-0.5,0-0.8c0-0.3,0.1-0.6,0.2-0.9c0.1-0.1,0.1-0.3,0.2-0.4c0.1-0.1,0.2-0.3,0.3-0.4
		c0.1-0.1,0.2-0.2,0.3-0.3c0.1-0.1,0.2-0.1,0.3-0.2c0.1-0.1,0.2-0.1,0.3-0.1c0.1,0,0.2-0.1,0.3-0.1l0.2,0c0,0-0.1,0-0.2,0
		c-0.1,0-0.2,0-0.3,0c-0.1,0-0.2,0-0.4,0c-0.1,0-0.3,0.1-0.4,0.1c-0.1,0.1-0.3,0.1-0.5,0.2c-0.2,0.1-0.3,0.2-0.4,0.3
		c-0.1,0.1-0.3,0.3-0.4,0.4c-0.2,0.3-0.4,0.6-0.5,0.9c-0.4-1.2-2.3-7.5,0.4-15.3c2.3,0.9,6.6,2.4,7.9,3.9c0.7,0.8,0.8,2.1,1.3,3.4
		c0.6,1.7-4.6,2.3-4.4,2.8c0.2,0.7,5.4,0.3,5.8,0.9c0.5,0.7,1,1.4,1.6,2.1c-0.1,0-0.1,0-0.2,0c-0.2,0-0.3,0-0.5,0l-0.2,0l-0.2,0
		c-0.2,0-0.3,0-0.5,0c-0.1,0-0.3,0-0.4,0c-0.3,0-0.6,0.1-0.8,0.1c-0.3,0.1-0.5,0.1-0.7,0.2c-0.2,0.1-0.4,0.1-0.6,0.2
		c-0.2,0.1-0.3,0.1-0.4,0.2c-0.2,0.1-0.4,0.2-0.4,0.2s0.1,0,0.4-0.1c0.1,0,0.3-0.1,0.5-0.1c0.2,0,0.4-0.1,0.6-0.1
		c0.2,0,0.5-0.1,0.7-0.1c0.3,0,0.5,0,0.8,0c0.1,0,0.3,0,0.4,0c0.1,0,0.3,0,0.4,0l0.2,0l0.2,0c0.1,0,0.3,0.1,0.4,0.1
		c0.3,0.1,0.5,0.2,0.8,0.3c0.2,0.1,0.4,0.2,0.6,0.3c0.2,0.2,0.3,0.4,0.5,0.6c1.1,1.2,2.2,2.4,3,3.7c1.3,1.9,2.5,3.2,3.7,4.4
		c0.8,0.8,1.6,1.5,2.4,2.5c0.2,0.3,0.4,0.7,0.6,1.1c0.1,0.4-6.7-1.1-6.7-0.6c0,0.5,7.6,3.7,8.1,4.5c0.6,0.8,1.1,1,1.5,1.2
		c0.3,0.1,0.6,0.3,0.9,0.6c0.9,1,1.4,2.3,1.5,3.5c0,0,0,0,0,0C146,104.5,145.5,103.6,144.9,102.8"/>
	<path id="XMLID_162_" class="st1" d="M104,95.9c0.1,0.6-0.4,1.1-1,1.2c-0.6,0.1-1.1-0.4-1.2-1c-0.1-0.6,0.4-1.1,1-1.2
		C103.4,94.8,104,95.3,104,95.9"/>
	<path id="XMLID_161_" class="st5" d="M103.7,95.2c0.2,0.2,0.3,0.4,0.4,0.7c0.1,0.6-0.4,1.1-1,1.2c-0.1,0-0.3,0-0.4,0
		c0.2,0.1,0.4,0.2,0.7,0.2c0.6-0.1,1-0.6,1-1.2C104.3,95.6,104,95.3,103.7,95.2"/>
	<path id="XMLID_160_" class="st4" d="M59.1,118.4c-2.3-0.2-4.7-1.5-6.4-3.5c-1.5-1.8-2.2-3.9-2-6c0.1-1.1,0.6-2.2,1.1-3.4
		c0.5-1.2,6.6-5.5,6.8-6.9c0.1-0.9-5.7,3-5.4,0.3c0.1-1,0.2-1.9,0.3-2.9c0.1,0,0.2,0.1,0.2,0.1c0.1,0,0.2,0.1,0.3,0.1
		c0.1,0,0.2,0.1,0.3,0.1c0.1,0,0.2,0.1,0.3,0.1c0.2,0.1,0.4,0.1,0.6,0.1c0.2,0,0.4,0,0.6,0.1c0.2,0,0.4,0,0.6,0
		c0.2,0,0.4-0.1,0.6-0.1c0.2,0,0.3-0.1,0.5-0.1c0.1,0,0.3-0.1,0.4-0.1c0.1,0,0.2-0.1,0.3-0.1c0.2-0.1,0.3-0.1,0.3-0.1s-0.1,0-0.3,0
		c-0.1,0-0.2,0-0.3,0c-0.1,0-0.3,0-0.4,0c-0.1,0-0.3,0-0.5,0c-0.2,0-0.3,0-0.5-0.1c-0.2,0-0.3-0.1-0.5-0.1c-0.2-0.1-0.3-0.1-0.5-0.2
		c-0.2-0.1-0.3-0.2-0.5-0.3c-0.1,0-0.1-0.1-0.2-0.1c-0.1-0.1-0.1-0.1-0.2-0.2c-0.1,0-0.1-0.1-0.2-0.2c-0.1-0.1-0.1-0.1-0.2-0.2
		c-0.1-0.1-0.2-0.2-0.3-0.3c-0.1-0.1-0.1-0.2-0.2-0.3c0,0,0-0.1,0-0.1c0.2-0.9,0.6-1.8,1.2-2.7c1.1-1.7,2.4-3.2,3.8-4.9
		c1.5-1.8,3-3.6,4.3-5.6c0.5-0.7,4.3,1.8,4.8,0.7c0.2-0.3-3.9-2.5-2.8-4.5c0.9-1.6,1.7-3.2,2.7-4c1.8-1.4,4.9-2.7,7.9-3.7
		c0,0,1.6,4.7,1.7,8.6c0.1,2.6-2.5,7.1-4.4,9.9c-0.1-0.1-0.1-0.1-0.2-0.2c-0.1-0.1-0.2-0.2-0.3-0.3c-0.1-0.1-0.2-0.2-0.4-0.3
		c-0.1-0.1-0.3-0.2-0.4-0.3c-0.1-0.1-0.3-0.1-0.4-0.2c-0.1-0.1-0.3-0.1-0.4-0.2c-0.1-0.1-0.2-0.1-0.3-0.1c-0.1,0-0.2-0.1-0.3-0.1
		c-0.1,0-0.2,0-0.2-0.1c-0.1,0-0.2-0.1-0.2-0.1s0.1,0,0.2,0.1c0.1,0,0.1,0.1,0.2,0.1c0.1,0,0.2,0.1,0.2,0.2c0.1,0.1,0.2,0.1,0.3,0.2
		c0.1,0.1,0.2,0.2,0.3,0.3c0.1,0.1,0.2,0.2,0.3,0.3c0.1,0.1,0.2,0.2,0.3,0.3c0.1,0.1,0.2,0.2,0.2,0.3c0.1,0.1,0.1,0.2,0.2,0.3
		c0.1,0.2,0.2,0.4,0.3,0.6c0,0,0,0,0,0c-0.5,0.8-0.9,1.3-1.1,1.5c0,0.1-0.1,0.1-0.2,0.1L67,89c-0.2-0.1-0.3,0.2-0.2,0.3l4,3.2
		c0,0,0.1,0.1,0.1,0.2L70.3,99c-0.3-0.3-0.7-0.7-1.2-0.9c-0.3-0.2-0.6-0.3-0.9-0.4c-0.3-0.1-0.6-0.2-0.9-0.3c-0.2,0-0.3-0.1-0.5-0.1
		c-0.2,0-0.3,0-0.5,0c-0.3,0-0.6,0-0.9,0c-0.1,0-0.3,0-0.4,0.1c-0.1,0-0.3,0.1-0.4,0.1c-0.3,0.1-0.5,0.1-0.7,0.2
		c-0.1,0-0.2,0.1-0.3,0.1c-0.1,0-0.2,0.1-0.3,0.1c-0.2,0.1-0.3,0.1-0.4,0.2c-0.2,0.1-0.4,0.2-0.4,0.2s0.1,0,0.4-0.1
		c0.1,0,0.3-0.1,0.5-0.1c0.1,0,0.2,0,0.3-0.1c0.1,0,0.2,0,0.3-0.1c0.2-0.1,0.5-0.1,0.7-0.1c0.1,0,0.3,0,0.4,0c0.1,0,0.3,0,0.4,0
		c0.3,0,0.6,0,0.9,0.1c0.1,0,0.3,0.1,0.4,0.1c0.1,0,0.3,0.1,0.4,0.1c0.3,0.1,0.5,0.2,0.8,0.4c0.2,0.1,0.5,0.3,0.7,0.5
		c0.4,0.3,0.7,0.7,1,1.1c0.1,0.2,0.2,0.3,0.3,0.5c-0.1,0-0.2-0.1-0.3-0.1c-0.1-0.1-0.3-0.1-0.4-0.1c-0.1,0-0.3-0.1-0.4-0.1
		c-0.1,0-0.3-0.1-0.4-0.1c-0.1,0-0.3,0-0.4,0c-0.1,0-0.3,0-0.4,0c-0.1,0-0.2,0-0.3,0c-0.1,0-0.2,0-0.2,0c-0.1,0-0.2,0-0.2,0
		s0.1,0,0.2,0c0.1,0,0.1,0,0.2,0.1c0.1,0,0.2,0.1,0.3,0.1c0.1,0,0.2,0.1,0.3,0.1c0.1,0,0.2,0.1,0.4,0.1c0.1,0.1,0.2,0.1,0.4,0.2
		c0.1,0.1,0.2,0.1,0.4,0.2c0.1,0.1,0.2,0.2,0.3,0.2c0.1,0.1,0.2,0.2,0.3,0.3c0.2,0.2,0.3,0.3,0.5,0.5c0,0,0.1,0.1,0.1,0.1l-0.1,1.1
		l-0.7-0.2c-0.3-0.1-3.5-1.1-6.6-1.1h-0.1l-6.6,2.2c-0.1,0-2.9,1.2-2.7,3.9c0.2,2.4,0.6,4.3,2,6c0.2,0.3,0.5,0.6,0.7,0.9
		c0.9,1.3,2.6,2.6,5.9,2.7l0,0l0,0c0,0,0.1,0,0.2,0C60.7,118,59.7,118.4,59.1,118.4"/>
	<path id="XMLID_159_" class="st6" d="M93.2,98L93.2,98C93.2,97.9,93.2,97.9,93.2,98c0.3-0.1,0.8,0.3,1.2,0.5l0.1,0
		c0.6,0.4,1.2,0.7,1.9,0.7c0.7,0,1.3-0.4,1.9-0.7c0.4-0.3,0.9-0.6,1.2-0.5c0.3,0.1,0.7,0.6,1,1c0.4,0.6,0.8,1.1,1.3,1.4
		c0.6,0.3,1.4,0.2,2,0.2c0.5,0,1.1-0.1,1.3,0.1c0.2,0.2,0.2,0.8,0.3,1.4c0,0.3,0,0.7,0.1,1c-2.3-2-5.6-3.1-9-3.1
		c-3.5,0-6.8,1.1-9,3.1c0.1-0.3,0.1-0.7,0.1-1c0-0.6,0-1.2,0.3-1.4c0.2-0.2,0.8-0.1,1.3-0.1c0.7,0,1.4,0.1,2-0.2
		c0.6-0.3,1-0.8,1.3-1.4C92.6,98.6,92.9,98.1,93.2,98"/>
	<path id="XMLID_158_" class="st1" d="M105.8,90.2c0.1,0.6-0.4,1.1-1,1.2c-0.6,0.1-1.1-0.4-1.2-1c-0.1-0.6,0.4-1.1,1-1.2
		C105.2,89.2,105.7,89.6,105.8,90.2"/>
	<polygon id="XMLID_157_" class="st7" points="85.4,105.3 85.5,105.3 85.5,105.2 85.4,105.3 	"/>
	<polygon id="XMLID_156_" class="st7" points="85.5,105.3 85.5,105.2 85.4,105.3 	"/>
	<polygon id="XMLID_155_" class="st1" points="92.6,104.4 93.6,103.9 93.2,104.9 93.6,105.9 92.6,105.4 91.6,105.9 92.1,104.9 
		91.6,103.9 	"/>
	<polygon id="XMLID_154_" class="st1" points="99.5,103.9 99.9,102.8 100.2,103.9 101.3,104.2 100.2,104.6 99.9,105.6 99.5,104.6 
		98.4,104.2 	"/>
	<polygon id="XMLID_153_" class="st4" points="141.2,78.5 139.7,75.1 143,76.7 146.4,75.1 144.8,78.5 146.4,81.9 143,80.3 
		139.7,81.9 	"/>
	<polygon id="XMLID_152_" class="st4" points="60.7,56.1 61.9,52.5 63.2,56.1 66.7,57.3 63.2,58.6 61.9,62.1 60.7,58.6 57.2,57.3 	
		"/>
	<polygon id="XMLID_151_" class="st4" points="52.6,74.1 54.7,73.1 53.7,75.2 54.7,77.3 52.6,76.3 50.5,77.3 51.5,75.2 50.5,73.1 	
		"/>
	<polygon id="XMLID_150_" class="st4" points="134.7,61.3 136.8,62.1 134.7,62.9 133.9,65.1 133.1,62.9 130.9,62.1 133.1,61.3 
		133.9,59.2 	"/>
	<path id="XMLID_149_" class="st4" d="M129.6,50c0,0.3-0.3,0.6-0.6,0.6c-0.3,0-0.6-0.3-0.6-0.6s0.3-0.6,0.6-0.6
		C129.3,49.3,129.6,49.6,129.6,50"/>
	<path id="XMLID_148_" class="st4" d="M122.9,61.3c0,0.3-0.3,0.6-0.6,0.6c-0.3,0-0.6-0.3-0.6-0.6s0.3-0.6,0.6-0.6
		C122.7,60.7,122.9,61,122.9,61.3"/>
	<path id="XMLID_147_" class="st4" d="M144.3,65.2c0,0.3-0.3,0.6-0.6,0.6c-0.3,0-0.6-0.3-0.6-0.6s0.3-0.6,0.6-0.6
		C144,64.6,144.3,64.9,144.3,65.2"/>
	<path id="XMLID_146_" class="st4" d="M150.4,89.4c0,0.3-0.3,0.6-0.6,0.6c-0.3,0-0.6-0.3-0.6-0.6c0-0.3,0.3-0.6,0.6-0.6
		C150.1,88.8,150.4,89.1,150.4,89.4"/>
	<path id="XMLID_145_" class="st4" d="M51.1,85.8c0,0.3-0.3,0.6-0.6,0.6s-0.6-0.3-0.6-0.6c0-0.3,0.3-0.6,0.6-0.6
		S51.1,85.5,51.1,85.8"/>
	<path id="XMLID_144_" class="st4" d="M61.9,70.6c0,0.3-0.3,0.6-0.6,0.6s-0.6-0.3-0.6-0.6c0-0.3,0.3-0.6,0.6-0.6
		S61.9,70.3,61.9,70.6"/>
	<path id="XMLID_143_" class="st4" d="M73.9,62.5c0,0.3-0.3,0.6-0.6,0.6c-0.3,0-0.6-0.3-0.6-0.6c0-0.3,0.3-0.6,0.6-0.6
		C73.6,61.9,73.9,62.2,73.9,62.5"/>
	<path id="XMLID_142_" class="st4" d="M69.7,47.8c0,0.3-0.3,0.6-0.6,0.6c-0.3,0-0.6-0.3-0.6-0.6c0-0.3,0.3-0.6,0.6-0.6
		C69.4,47.2,69.7,47.5,69.7,47.8"/>
	<path id="XMLID_336_" class="st4" d="M38.2,165.6L38.2,165.6c0-2,1.5-3.7,3.7-3.7c1.3,0,2.1,0.4,2.8,1.1l-1,1.1
		c-0.5-0.5-1.1-0.8-1.8-0.8c-1.2,0-2.1,1-2.1,2.2v0c0,1.2,0.8,2.2,2.1,2.2c0.8,0,1.3-0.3,1.9-0.8l1,1c-0.7,0.8-1.5,1.3-2.9,1.3
		C39.8,169.3,38.2,167.7,38.2,165.6 M42.5,161.4h-1.5l-1.3-1.5H41l0.8,0.6l0.8-0.6h1.2L42.5,161.4z"/>
	<path id="XMLID_333_" class="st4" d="M50.4,162h1.4l3,7.1h-1.6l-0.6-1.6h-3l-0.6,1.6h-1.6L50.4,162z M52.1,166.2l-0.9-2.3l-0.9,2.3
		H52.1z"/>
	<path id="XMLID_330_" class="st4" d="M58,162.1h3.2c0.9,0,1.6,0.3,2.1,0.7c0.4,0.4,0.6,0.9,0.6,1.6v0c0,1.1-0.6,1.9-1.5,2.2
		l1.7,2.5h-1.8l-1.5-2.3h-1.2v2.3H58V162.1z M61.1,165.5c0.8,0,1.2-0.4,1.2-1v0c0-0.7-0.5-1-1.2-1h-1.5v2H61.1z"/>
	<path id="XMLID_327_" class="st4" d="M67,165.6L67,165.6c0-2,1.6-3.7,3.8-3.7c2.2,0,3.7,1.6,3.7,3.6v0c0,2-1.6,3.7-3.8,3.7
		C68.5,169.3,67,167.7,67,165.6 M72.9,165.6L72.9,165.6c0-1.2-0.9-2.2-2.1-2.2c-1.3,0-2.1,1-2.1,2.2v0c0,1.2,0.9,2.2,2.1,2.2
		C72,167.8,72.9,166.9,72.9,165.6"/>
	<polygon id="XMLID_133_" class="st4" points="77.9,162.1 79.4,162.1 79.4,167.7 83,167.7 83,169.2 77.9,169.2 	"/>
	<rect id="XMLID_132_" x="86.2" y="162.1" class="st4" width="1.6" height="7.1"/>
	<path id="XMLID_131_" class="st4" d="M90.8,168.2l1-1.1c0.4,0.4,0.8,0.7,1.3,0.7c0.6,0,0.9-0.4,0.9-1.2v-4.6h1.6v4.6
		c0,0.8-0.2,1.5-0.7,1.9c-0.4,0.4-1.1,0.7-1.8,0.7C92,169.3,91.3,168.8,90.8,168.2"/>
	<path id="XMLID_321_" class="st4" d="M101.4,162h1.4l3,7.1h-1.6l-0.6-1.6h-3l-0.6,1.6h-1.6L101.4,162z M103,166.2l-0.9-2.3
		l-0.9,2.3H103z"/>
	<path id="XMLID_318_" class="st4" d="M113.7,165.6L113.7,165.6c0-2,1.6-3.7,3.8-3.7c2.2,0,3.7,1.6,3.7,3.6v0c0,2-1.6,3.7-3.8,3.7
		C115.3,169.3,113.7,167.7,113.7,165.6 M119.6,165.6L119.6,165.6c0-1.2-0.9-2.2-2.1-2.2c-1.3,0-2.1,1-2.1,2.2v0
		c0,1.2,0.9,2.2,2.1,2.2C118.7,167.8,119.6,166.9,119.6,165.6"/>
	<polygon id="XMLID_126_" class="st4" points="124.6,162.1 126.1,162.1 126.1,165.2 129,162.1 130.9,162.1 128,165.1 131,169.2 
		129.2,169.2 127,166.1 126.1,167 126.1,169.2 124.6,169.2 	"/>
	<path id="XMLID_125_" class="st4" d="M133.7,166.1v-4h1.6v4c0,1.2,0.6,1.7,1.5,1.7c0.9,0,1.5-0.6,1.5-1.7v-4h1.6v4
		c0,2.1-1.2,3.2-3.1,3.2C134.9,169.3,133.7,168.2,133.7,166.1"/>
	<path id="XMLID_124_" class="st4" d="M143,168.1l0.9-1.1c0.6,0.5,1.3,0.9,2.1,0.9c0.6,0,1-0.3,1-0.7v0c0-0.4-0.2-0.6-1.4-0.9
		c-1.4-0.4-2.3-0.8-2.3-2.2v0c0-1.3,1-2.1,2.5-2.1c1,0,1.9,0.3,2.6,0.9l-0.8,1.2c-0.6-0.4-1.2-0.7-1.8-0.7s-0.9,0.3-0.9,0.6v0
		c0,0.5,0.3,0.6,1.5,0.9c1.4,0.4,2.2,0.9,2.2,2.1v0c0,1.4-1.1,2.2-2.6,2.2C144.9,169.3,143.8,168.9,143,168.1"/>
	<path id="XMLID_312_" class="st4" d="M154.2,162h1.4l3,7.1H157l-0.6-1.6h-3l-0.6,1.6h-1.6L154.2,162z M155.8,166.2l-0.9-2.3
		l-0.9,2.3H155.8z"/>
	<path id="XMLID_121_" class="st8" d="M110.5,115.2c0.1,0,3.3-0.2,5.3-4l0.1-0.1c0,0,0-0.1,0.1-0.1c0.1-0.2,0.1-0.4,0.2-0.6
		c0-0.1,0-0.2,0-0.3c0-0.1,0-0.1,0-0.2l0-0.2c0-0.1,0-0.2,0-0.4c0-0.1,0-0.2-0.1-0.3c0-0.1-0.1-0.2-0.1-0.3c0-0.1-0.1-0.2-0.1-0.3
		c0-0.1-0.1-0.2-0.1-0.2c0-0.1-0.1-0.1-0.1-0.2c-0.1-0.1-0.1-0.2-0.1-0.2s-6.5,7.3-18,4.7c0.3,0.1,0.6,0.1,1,0.2
		c1,0.2,2.4,0.5,3.7,0.8l0.3,0.1c0.1,0,0.2,0,0.2,0c0.2,0,0.3,0,0.5,0c0.3,0,0.7,0,1,0c0.7,0,1.3,0,1.8,0c1,0,1.7,0,1.7,0
		s-0.7,0-1.7,0.1c-0.5,0-1.1,0.1-1.8,0.1c-0.3,0-0.7,0.1-1,0.1c-0.2,0-0.4,0-0.5,0c-0.1,0-0.2,0-0.3,0l-0.1,0l-0.1,0
		c-0.2,0-0.4,0-0.5-0.1c-0.2,0-0.3-0.1-0.5-0.1c-0.3-0.1-0.7-0.1-1-0.1c-0.4-0.1-0.7-0.1-1.1-0.2c0,0,0,0,0,0c0,0-0.1,0.1-0.1,0.1
		c0,0,0,0.1,0,0.1c0,0,0,0.1,0,0.1c0,0,0,0.1,0,0.1c0,0,0,0.1,0,0.1c0,0.1,0,0.2,0,0.2c0,0.1,0,0.1,0,0.2c0.2,0.1,0.4,0.1,0.5,0.2
		c0.3,0.1,0.7,0.2,1.1,0.2c2.1,0.4,4.5,0.6,5.8,0.6L110.5,115.2z"/>
	<path id="XMLID_120_" class="st8" d="M87.5,114.2c0.4,0,0.8,0,1.3,0c0.2,0,0.5,0,0.7,0c0.2,0,0.5,0,0.7-0.1c1-0.1,2-0.3,2.8-0.5
		c0.4-0.1,0.8-0.1,1-0.2c0,0,0.1-0.1,0.1-0.1c0,0,0,0,0,0c0,0,0-0.1,0-0.2c0-0.1,0-0.2-0.1-0.2c0,0,0-0.1-0.1-0.1c0,0,0-0.1-0.1-0.1
		c0,0-0.1-0.1-0.1-0.1c0,0-0.1-0.1-0.1-0.1c0,0-0.1,0-0.1-0.1c0,0-0.1,0-0.1,0c0,0-4.4,1.8-7.3,1.9
		C86.3,114.2,86.8,114.2,87.5,114.2"/>
	<path id="XMLID_119_" class="st8" d="M86.6,110.6h0.1C86.7,110.6,86.6,110.6,86.6,110.6"/>
	<path id="XMLID_118_" class="st8" d="M88.4,115.5h2.4c0.1,0,1.3,0,1.6-0.2c0.1,0,0.1-0.1,0.2-0.1l0-0.1c0,0,0,0,0,0c0,0.1,0,0,0,0
		c0,0,0-0.1,0-0.2c0-0.1,0-0.2-0.1-0.2c0,0,0-0.1-0.1-0.1c0,0,0-0.1-0.1-0.1c0,0-0.1-0.1-0.1-0.1c0,0-0.1-0.1-0.1-0.1
		c0,0-0.1,0-0.1-0.1c0,0,0,0,0,0c0,0-6,2-12.3-1.1l0,0c0.8,0.4,1.9,1.1,3.4,1.8c0.8,0.4,1.8,0.6,2.7,0.6L88.4,115.5z"/>
	<path id="XMLID_117_" class="st8" d="M94,109.1L94,109.1c0-0.1,0-0.1-0.1-0.1c0,0-0.1-0.1-0.1-0.1c0,0-0.1-0.1-0.1-0.1
		c0,0-0.1-0.1-0.1-0.1c0,0-0.1,0-0.1,0c0,0,0,0,0,0c0,0-0.6,1.6-6.9,2c0,0,0.5,0,1.3,0c0.4,0,0.8,0,1.3,0c0.2,0,0.5,0,0.7,0
		c0.2,0,0.5,0,0.7-0.1c1-0.1,2-0.3,2.8-0.5c0.1,0,0.3-0.1,0.4-0.1c0,0,0,0,0,0c0,0,0-0.1,0.1-0.2c0-0.1,0.1-0.2,0.1-0.3
		c0,0,0-0.1,0-0.1c0-0.1,0-0.1,0-0.1C94,109.2,94,109.1,94,109.1"/>
	<path id="XMLID_116_" class="st8" d="M94.5,111.2c0-0.1,0-0.1,0-0.1c0,0,0-0.1,0-0.1l0-0.1c0,0,0,0,0-0.1c0,0-0.1-0.1-0.1-0.1
		c0,0-0.1-0.1-0.1-0.1c0,0-0.1-0.1-0.1-0.1c0,0-1.5,1.8-7.6,2c0,0,0.5,0,1.3,0c0.4,0,0.8,0,1.3,0c0.2,0,0.5,0,0.7,0
		c0.2,0,0.5,0,0.7-0.1c1-0.1,2-0.3,2.8-0.5c0.4-0.1,0.8-0.1,1-0.2c0,0,0-0.1,0-0.1c0-0.1,0.1-0.2,0.1-0.3
		C94.5,111.3,94.5,111.2,94.5,111.2"/>
	<path id="XMLID_115_" class="st8" d="M86.3,114.2L86.3,114.2h0.1C86.3,114.2,86.3,114.2,86.3,114.2"/>
	<path id="XMLID_114_" class="st8" d="M86.5,112.4h0.1C86.6,112.4,86.5,112.4,86.5,112.4"/>
	<path id="XMLID_113_" class="st8" d="M78.7,112.5L78.7,112.5L78.7,112.5c0-0.1,0-0.3-0.1-0.4c0-0.1,0-0.3,0-0.4c0-0.1,0-0.2,0-0.4
		c0-0.1,0-0.2,0-0.3c0-0.1,0-0.2,0-0.3c0-0.1,0-0.1,0-0.2c0-0.1,0-0.2,0-0.2l0,0c0,0-20.1,8.1-22.9,0.3c0.2,0.8,0.5,1.4,1.1,2.2
		c0.3,0.3,0.5,0.7,0.8,1c0.8,1.2,1.5,2.2,4,2.3c0.5,0,4.9-0.5,7.5-1.8C72.2,112.9,78.5,112.5,78.7,112.5"/>
	<path id="XMLID_112_" class="st9" d="M71.5,87c0.1,0.1,0.2,0.1,0.3,0.2c0.1,0.1,0.3,0.2,0.4,0.3c0.1,0.1,0.3,0.2,0.4,0.3
		c0.1,0.1,0.2,0.2,0.3,0.3c0.1,0.1,0.1,0.1,0.2,0.2c1.7-2.6,3.9-6.5,4.3-9.1C77,79.9,74.8,84.3,71.5,87"/>
	<path id="XMLID_111_" class="st9" d="M66.3,97.2c0.2,0,0.3,0,0.5,0c0.2,0,0.3,0,0.5,0.1c0.3,0.1,0.6,0.2,0.9,0.3
		c0.3,0.1,0.6,0.3,0.9,0.4c0.5,0.3,0.8,0.6,1.2,0.9l0.7-6.3c0-0.1,0-0.1-0.1-0.2l-2.3-1.8c0.5,1.6,1.5,6-3.2,6.6
		C65.7,97.2,66,97.2,66.3,97.2"/>
	<path id="XMLID_110_" class="st9" d="M67,89L67,89l4.1,1.9c0.1,0,0.2,0,0.2-0.1c0.2-0.2,0.6-0.8,1.1-1.5c0,0,0,0,0,0
		c-0.1-0.2-0.1-0.4-0.3-0.6c-0.1-0.1-0.1-0.2-0.2-0.3c-0.1-0.1-0.2-0.2-0.2-0.3c-0.1-0.1-0.2-0.2-0.3-0.3c-0.1-0.1-0.2-0.2-0.3-0.3
		c0,0,0,0,0,0C69.9,88.2,68.5,88.8,67,89"/>
	<path id="XMLID_109_" class="st9" d="M62.5,101.7c3.1,0,6.4,1,6.6,1.1l0.7,0.2l0.1-1.1c0,0-0.1-0.1-0.1-0.1
		c-0.1-0.2-0.3-0.3-0.5-0.5c-0.1-0.1-0.2-0.2-0.3-0.3c-0.1-0.1-0.2-0.2-0.3-0.2c-0.1-0.1-0.2-0.1-0.4-0.2c-0.1-0.1-0.2-0.1-0.4-0.2
		c-0.1-0.1-0.2-0.1-0.4-0.1c-0.1,0-0.2-0.1-0.3-0.1c-0.1,0-0.2-0.1-0.3-0.1c-0.1,0-0.2,0-0.2-0.1c-0.1,0-0.2,0-0.2,0s0.1,0,0.2,0
		c0.1,0,0.1,0,0.2,0c0.1,0,0.2,0,0.3,0c0.1,0,0.2,0,0.4,0c0.1,0,0.3,0,0.4,0c0.1,0,0.3,0,0.4,0.1c0.1,0,0.3,0.1,0.4,0.1
		c0.1,0,0.3,0.1,0.4,0.1c0.1,0,0.2,0.1,0.3,0.1c-0.1-0.1-0.2-0.3-0.3-0.5c-0.2-0.3-0.6-0.7-1-1.1c-0.2-0.2-0.4-0.3-0.7-0.5
		c-0.2-0.1-0.5-0.3-0.8-0.4c-0.1-0.1-0.3-0.1-0.4-0.1c-0.1,0-0.3-0.1-0.4-0.1c-0.3,0-0.6-0.1-0.9-0.1c-0.1,0-0.3,0-0.4,0
		c-0.1,0-0.3,0-0.4,0c0,0,3.6,3.9-2.2,3.9H62.5z"/>
	<path id="XMLID_108_" class="st9" d="M129.5,82.8c-0.6-0.7-1.1-1.4-1.6-2.1c-0.2-0.3-1.7-0.4-3.2-0.4c1.5,0.4,3.3,1.1,4.6,2.5
		C129.4,82.8,129.5,82.8,129.5,82.8"/>
	<path id="XMLID_107_" class="st9" d="M125.3,73.6c-1.3-1.5-5.6-3.1-7.9-3.9c-1.3,3.8-1.5,7.2-1.4,9.8c0.5-2.9,1.7-6.8,4.3-5.7
		c3.5,1.6,2.2,5.2,1.9,5.9c0.5-0.5,4.9-1.2,4.4-2.7C126.1,75.7,126,74.4,125.3,73.6"/>
	<path id="XMLID_106_" class="st9" d="M144.9,102.8c0.7,0.8,1.1,1.7,1.3,2.7c0,0,0,0,0,0c-0.1-1.3-0.6-2.6-1.5-3.5
		c-0.3-0.4-0.6-0.5-0.9-0.6c-0.4-0.2-0.9-0.4-1.5-1.2c-0.5-0.8-8.1-4-8.1-4.5c0,0,0.2,2.4-2.3,4c2.1-0.5,3.6-0.8,3.8-0.8l0,0
		C135.9,98.8,142.1,99.4,144.9,102.8"/>
	<path id="XMLID_105_" class="st9" d="M140.8,96.2c-0.1-0.4-0.3-0.8-0.6-1.1c-0.8-1-1.6-1.7-2.4-2.5c-1.2-1.2-2.5-2.5-3.7-4.4
		c-0.9-1.3-2-2.5-3-3.7c-0.2-0.2-0.3-0.4-0.5-0.6c-0.2-0.1-0.4-0.2-0.6-0.3c-0.3-0.1-0.5-0.2-0.8-0.3c-0.1,0-0.3-0.1-0.4-0.1l-0.2,0
		l-0.2,0c-0.1,0-0.3,0-0.4,0c-0.1,0-0.3,0-0.4,0c-0.3,0-0.5,0-0.8,0c-0.3,0-0.5,0-0.7,0.1c-0.2,0-0.4,0.1-0.6,0.1
		c-0.2,0-0.3,0.1-0.5,0.1c-0.3,0.1-0.4,0.1-0.4,0.1l0,0l0,0c0,0,13.6,4.7,9.5,12C134.1,95.1,141,96.6,140.8,96.2"/>
	<path id="XMLID_104_" class="st0" d="M115.1,93c0,0,0.2,0,0.4,0C115.3,93,115.1,93,115.1,93"/>
	<path id="XMLID_103_" class="st0" d="M118.7,103.4c0,0-0.1,0-0.2,0.1C118.7,103.4,118.7,103.4,118.7,103.4"/>
	<path id="XMLID_102_" class="st0" d="M116,103.7c1.3,0,2.2-0.2,2.6-0.3C118.1,103.6,117.2,103.8,116,103.7"/>
	<path id="XMLID_101_" class="st0" d="M72.1,100c0.5-0.3,0.9-0.6,1.4-0.9C73,99.3,72.5,99.6,72.1,100"/>
	<path id="XMLID_100_" class="st0" d="M74.4,88.9C74.4,89,74.4,89,74.4,88.9C74.4,89,74.4,89,74.4,88.9"/>
	<path id="XMLID_99_" class="st0" d="M74.2,98.7c0.2-0.1,0.5-0.2,0.7-0.4C74.6,98.5,74.4,98.6,74.2,98.7"/>
	<path id="XMLID_98_" class="st0" d="M74.2,95.1C74.2,95.1,74.2,95.1,74.2,95.1C74.2,95.1,74.2,95,74.2,95.1
		C74.2,95,74.2,95,74.2,95.1"/>
	<path id="XMLID_97_" class="st0" d="M72.6,92L72.6,92c0,0,0.1,0.1,0.2,0.1C72.7,92.1,72.6,92,72.6,92"/>
	<path id="XMLID_96_" class="st0" d="M77.3,84.6C77.2,84.7,77.2,84.7,77.3,84.6C77.2,84.7,77.2,84.7,77.3,84.6"/>
	<path id="XMLID_95_" class="st0" d="M76.2,97.9c-0.1,0-0.2,0.1-0.3,0.1C76,98,76.1,97.9,76.2,97.9"/>
	<polygon id="XMLID_94_" class="st0" points="89.1,97.6 89.1,97.6 89.1,97.6 	"/>
	<path id="XMLID_93_" class="st0" d="M78.1,83.1C78.1,83.1,78.1,83.2,78.1,83.1C78.1,83.2,78.1,83.1,78.1,83.1"/>
	<path id="XMLID_92_" class="st0" d="M89.1,97.6c0,0-0.1,0-0.1,0c-0.6-0.1-1-0.6-0.9-1.2c0.1-0.6,0.6-1,1.2-0.9c0,0-0.1,0-0.1,0
		c0-1.4,0-2.8-0.1-4.2c-0.2,0.1-0.5,0.2-0.8,0.2c-0.2,0-0.4-0.1-0.5-0.3c-0.4-0.2-0.7-0.6-0.6-1.1c0.1-0.6,0.6-1,1.2-0.9
		c0.2,0,0.4,0.1,0.5,0.3c-0.4-4.3-1.1-7.9-1.1-7.9c0,0,0,0,0,0c0.2,0.4,0.4,0.7,0.5,1c-1.9-3.3-3.8-10.4-4.3-12
		c0-0.2-0.1-0.3-0.1-0.3l0,0l0,0l-0.2-1.4l-0.2-1.4c0,0-0.1-0.1-0.1-0.1c0,0-0.1,0-0.1-0.1c-0.2,0-0.5,0-0.8,0.1
		c-1.9,0.2-4.4,1.3-5.5,1.7c0,0-0.1,0-0.1,0c0.2,0.6,0.6,1.6,1,2.8c0.3,0.8,0.5,1.7,0.8,2.6c0.4,1.4,0.6,2.8,0.7,4.1
		c0,0.5-0.1,1.1-0.2,1.7c-0.1,0.4-0.3,0.8-0.4,1.3l0,0c0,0-4.5,12.1-1.4,15.9c0,0,0,0,0,0c1.9-0.5,3.3-0.7,3.3-0.7s-4.9,3.5-3.8,8.1
		l2.6,0.7c0.1-0.1,0.3-0.3,0.5-0.4c0.7-0.7,1.7-1.6,2.8-2.2c0.5-0.3,1-0.6,1.5-0.7c0.2-0.1,0.5-0.1,0.7-0.1c0.3,0,0.6,0.2,0.9,0.4
		c0.1,0.1,0.2,0.1,0.2,0.2c0,0,0,0,0,0c0-0.2,0-0.5,0-0.7c0-0.4,0-0.9,0.1-1.3c0.1-0.4,0.3-0.8,0.6-1.1c0.2-0.1,0.3-0.2,0.5-0.3
		c0.4-0.1,0.8-0.2,1.2-0.2c0.2,0,0.4,0,0.6,0c0,0,0,0,0,0C89,98.7,89.1,98.2,89.1,97.6C89.1,97.6,89.1,97.6,89.1,97.6"/>
	<path id="XMLID_91_" class="st0" d="M78.2,97.8c0.3-0.1,0.5-0.3,0.8-0.4c-0.1,0-0.3,0.1-0.4,0.2C78.4,97.7,78.3,97.7,78.2,97.8"/>
	<path id="XMLID_90_" class="st9" d="M94.6,97c0.2,0.1,0.4,0.2,0.5,0.3c0.4,0.3,0.9,0.5,1.2,0.5c0.3,0,0.8-0.3,1.2-0.5
		c0.4-0.3,0.9-0.5,1.3-0.7c0.5-3.5,1.2-7.6,2.3-10.8c-0.1,0-0.2-0.1-0.3-0.1c-0.5-0.1-1.7-0.7-2.4-1.6c-0.1,0.1-0.2,0.2-0.4,0.3
		c0.9,3.1,1.4,8.6-3.8,12.4C94.5,96.9,94.5,96.9,94.6,97"/>
	<path id="XMLID_89_" class="st9" d="M105.6,76.1c-0.4,1-1.2,1.9-2.4,2.8c0.1,0,0.2-0.1,0.2-0.1c0.2-0.2,1-0.6,1.3,0
		c0,0,0,0.1,0.1,0.2c1.8-3.7,3-7,3.1-7.3l1.2-4.4c-0.4,0.3-0.7,0.4-1.1,0.5c0,0-0.1,0.1-0.2,0.2c-0.2,0.7-0.7,1.3-0.8,1.5
		c-0.1,0.2-0.4,0.9-0.2,2.1c0.2,1.7-0.2,2.4-0.7,3.5C106,75.4,105.8,75.7,105.6,76.1"/>
	<path id="XMLID_88_" class="st4" d="M103.5,46c1.5,0.1,2.7,0.2,3.5,0.3c-1.8-0.2-4.8-0.4-9.1-0.4c-4,0-8.2,1-9.9,1.4l-0.5,2.7l0,0
		c0.9,0.1,1.8,0.1,2.8,0.1c1.4,0,3-0.1,4.6-0.2C96.2,49.6,101.2,48.6,103.5,46"/>
	<path id="XMLID_87_" class="st4" d="M104,48.4c-1.6,0.3-3.1,0.6-4.6,0.9C100.9,49,102.4,48.8,104,48.4"/>
	<path id="XMLID_86_" class="st4" d="M107.1,46.3c0.3,0,0.5,0.1,0.8,0.1C107.6,46.4,107.3,46.3,107.1,46.3"/>
	<path id="XMLID_85_" class="st4" d="M106.1,48c0.6-0.1,1.2-0.2,1.8-0.3v0C107.3,47.8,106.7,47.9,106.1,48"/>
	<path id="XMLID_84_" class="st4" d="M99,49.4c-1.4,0.2-2.8,0.4-4.1,0.5C96.2,49.7,97.6,49.6,99,49.4"/>
	<path id="XMLID_83_" class="st4" d="M49.4,110.7l-33,1.8h33.4C49.6,111.9,49.5,111.3,49.4,110.7"/>
	<path id="XMLID_82_" class="st4" d="M145.4,110.5c-0.5,0.8-1.2,1.4-1.8,1.9h36.9L145.4,110.5z"/>
	<path id="XMLID_81_" class="st9" d="M116.9,111.9c-0.1,0.2-0.2,0.3-0.3,0.5h14.3C120.6,110.8,117.5,111.7,116.9,111.9"/>
	<path id="XMLID_80_" class="st4" d="M85.4,70c0,0.1,0.1,0.2,0.1,0.4c0,0,0,0,0,0.1c0.5,1.4,2,5.6,3.5,8.9c0,0,0,0,0,0
		c0.1-0.2,0.2-0.4,0.2-0.5c0.3-0.6,1-0.2,1.3,0c0.2,0.2,1,0.5,1,0.5c0.2,0.1,0.6,0.2,0.9,0.3l0,0c-0.5-0.3-1-0.6-1.4-0.9
		c-0.9-0.6-1.5-1.2-1.8-1.5c-0.2-0.2-0.3-0.3-0.3-0.3l0,0l0,0c0,0-0.2-0.3-0.5-0.7c-0.4-0.7-0.9-1.7-0.8-3c0.1-0.5,0.1-1,0.1-1.3
		c0-0.4,0-0.6,0-0.8c-0.2-0.4-0.4-0.7-0.5-1c-0.3-0.6-0.5-1.1-0.6-1.5c-0.1-0.2-0.1-0.4-0.1-0.6c-0.7-0.3-1.1-0.8-1.5-1.3L85.4,70
		C85.4,69.9,85.4,69.9,85.4,70"/>
	<path id="XMLID_79_" class="st4" d="M95.2,84.2c-0.7,0.8-1.8,1.4-2.3,1.5c-0.2,0.1-0.6,0.2-1,0.3c0.8,2.6,1.4,5.6,1.9,8.1
		c0,0.2,0.1,0.4,0.1,0.6c0,0.2,0.1,0.5,0.1,0.7c0.1,0.5,0.2,0.9,0.3,1.3c0.1,0,0.1,0.1,0.2,0.1c0.2,0.1,0.4,0.2,0.5,0.3
		c0.4,0.3,0.9,0.5,1.2,0.5c0.3,0,0.8-0.3,1.2-0.5c0.4-0.3,0.9-0.5,1.3-0.7c0.1-0.8,0.2-1.6,0.4-2.4c0-0.2,0.1-0.4,0.1-0.6
		c0.3-1.7,0.6-3.3,1-4.9c0.1-0.2,0.1-0.4,0.2-0.6c0.2-0.8,0.4-1.6,0.7-2.3v0c-0.1,0-0.2-0.1-0.3-0.1c-0.5-0.1-1.7-0.7-2.4-1.6
		c-0.2,0.3-0.6,0.5-0.9,0.5h-0.4v0c0,0.8,0,1.6-0.1,2.5c0,0.3,0,0.6-0.1,0.9c0,0.3-0.1,0.6-0.1,0.9c0,0.3-0.1,0.6-0.1,0.9
		c0,0.1,0,0.3-0.1,0.4c0,0.1,0,0.2-0.1,0.4c0,0.1,0,0.2-0.1,0.3c0,0.1-0.1,0.2-0.1,0.3c0,0.2-0.1,0.4-0.1,0.5
		c-0.1,0.3-0.1,0.4-0.1,0.4s0-0.2,0.1-0.4c0-0.1,0.1-0.3,0.1-0.5c0-0.1,0-0.2,0.1-0.3c0-0.1,0-0.2,0-0.3c0-0.1,0-0.2,0-0.4
		c0-0.1,0-0.3,0-0.4c0-0.1,0-0.3,0-0.4c0-0.1,0-0.3,0-0.4c0-0.3,0-0.6,0-0.9c0-0.3,0-0.6,0-0.9c0-0.9,0-1.7,0-2.4h-0.7
		C95.7,84.6,95.4,84.5,95.2,84.2"/>
	<path id="XMLID_78_" class="st4" d="M104.7,78.8c0,0,0,0.1,0.1,0.2c0,0,0,0,0,0c0.4-0.8,0.8-1.6,1.1-2.4c0.1-0.1,0.1-0.2,0.2-0.3
		c0.2-0.4,0.3-0.7,0.4-1c0-0.1,0.1-0.1,0.1-0.2c0.3-0.7,0.5-1.3,0.7-1.8l0,0c0.1-0.2,0.2-0.4,0.2-0.6c0-0.1,0.1-0.2,0.1-0.3
		c0-0.1,0.1-0.2,0.1-0.3c0-0.1,0.1-0.3,0.1-0.3l1.2-4.4c-0.2,0.1-0.4,0.2-0.6,0.3c-0.2,0.1-0.3,0.2-0.5,0.2c0,0-0.1,0.1-0.2,0.2
		c-0.1,0.3-0.3,0.7-0.4,0.9c-0.2,0.3-0.3,0.5-0.4,0.6c-0.1,0.1-0.2,0.6-0.3,1.3c0,0.2,0,0.5,0,0.8c0.2,1.7-0.2,2.4-0.7,3.5
		c-0.1,0.3-0.3,0.6-0.4,1c-0.1,0.2-0.2,0.5-0.4,0.7c-0.1,0.2-0.3,0.4-0.5,0.7c0,0,0,0,0,0c-0.4,0.5-0.9,0.9-1.5,1.4
		c0.1,0,0.2-0.1,0.2-0.1C103.6,78.6,104.4,78.2,104.7,78.8"/>
	<path id="XMLID_77_" class="st5" d="M90.1,86.8c-0.3,0.1-0.7,0.1-1-0.3c-0.5-0.6-0.7-2.5-0.7-3.9c-0.2-0.3-0.4-0.7-0.5-1
		c0,0,0,0,0,0c0,0,0.7,3.6,1.1,7.9c0.3,0.2,0.4,0.6,0.4,1c-0.1,0.6-0.6,1-1.2,0.9c-0.1,0-0.2-0.1-0.3-0.1c0.1,0.1,0.3,0.2,0.5,0.3
		c0.3,0,0.5,0,0.8-0.2c0.1,1.4,0.1,2.8,0.1,4.2c0,0,0.1,0,0.1,0c0.6,0.1,1,0.6,0.9,1.2c-0.1,0.5-0.6,0.9-1.1,0.9c0,0,0,0,0,0
		c0,0.5-0.1,1-0.2,1.5c0,0,0,0,0,0c0.5,0,1,0.1,1.3-0.1c0.2-0.1,0.5-0.5,0.8-0.9c0.4-0.6,0.9-1.3,1.7-1.6c0,0,0,0,0,0
		C92.2,94.1,91.2,90,90.1,86.8"/>
	<path id="XMLID_76_" class="st8" d="M142.5,103.2c-2.2-2.7-6.3-2.9-6.9-3c0,0,5.1,2.3,4.6,5.5c-0.6,3.3-2.9,5.8-6.8,5.6v0
		c-11.6-3.4-17.8-3.4-17.8-3.4c0,0,0.1,0.1,0.1,0.1c0.1,0.1,0.1,0.1,0.2,0.2c0.1,0.1,0.1,0.2,0.2,0.3c0.1,0.1,0.1,0.2,0.2,0.3
		c0.1,0.1,0.1,0.2,0.2,0.4c0,0.1,0.1,0.3,0.1,0.4l0.1,0.2c0,0.1,0,0.1,0,0.2c0,0.1,0,0.3,0,0.4c0,0.1,0,0.1,0,0.2
		c1.6-0.5,6-1.1,17.1,1c0.9,0.2,1.9,0.4,3,0.6l0.1,0c0,0,2.4,0.7,4.5-0.6c1.2-0.7,2-2.2,2.2-4.2
		C143.8,105.8,143.5,104.3,142.5,103.2"/>
	<path id="XMLID_75_" class="st0" d="M115,82.7c0.2,0.9,0.4,1.6,0.5,2.1c-0.1-0.2-0.1-0.4-0.2-0.6C115.2,83.8,115.1,83.3,115,82.7"
		/>
	<path id="XMLID_74_" class="st0" d="M115,82.7c-0.1-0.4-0.1-0.8-0.2-1.3C114.8,81.8,114.9,82.3,115,82.7"/>
	<path id="XMLID_73_" class="st0" d="M115.2,72.3c-0.2,1.1-0.4,2.1-0.5,3.1C114.8,74.4,115,73.4,115.2,72.3"/>
	<path id="XMLID_259_" class="st0" d="M115.1,93c2.6-0.6,1.5-2.9,0.4-4.5l-1.5-1.7c-0.1-0.1-0.1-0.2-0.1-0.3c0-0.2,0.1-0.4,0.2-0.6
		c0.1-0.1,0.2-0.1,0.3-0.1c-2.1-6.8-6.6-8.1-7.2-8.2c0,0,0,0,0,0c-0.5,1.2-1.1,2.5-1.8,3.9c0,0.3,0.1,0.7,0.1,1
		c0,1.4-0.2,3.5-0.8,4.1c-0.6,0.7-1.4,0.1-1.4,0.1s-0.2-0.1-0.4-0.2c0,0,0,0,0,0c-0.3,0.7-0.5,1.4-0.7,2.2c0,0.1-0.1,0.3-0.1,0.5
		c-0.4,1.6-0.8,3.2-1.1,4.8c0,0.2-0.1,0.4-0.1,0.6c-0.1,0.8-0.3,1.6-0.4,2.3c0,0,0,0,0,0c0.5,0.3,0.8,0.8,1.2,1.3
		c0.3,0.4,0.5,0.8,0.8,0.9c0.1,0.1,0.4,0.1,0.6,0.1c0.1,0,0.2,0,0.4,0c0.1,0,0.2,0,0.4,0c0.8-0.1,1.7-0.1,2.3,0.4
		c0.7,0.6,0.7,1.6,0.7,2.4c0,0,0,0,0,0.1c0.1-0.1,0.2-0.2,0.4-0.3c0.6-0.4,1.2-0.4,1.7-0.4c0.5,0,0.9,0.2,1.2,0.3
		c0.2,0.1,0.3,0.1,0.3,0.1l0.2,0.1l0.1,0.2c0,0,0,0,0.1,0.1c0.2,0.2,0.9,0.7,3,1.2c0.9,0.2,1.7,0.3,2.3,0.3
		C121.3,96.6,115.1,93,115.1,93 M103.4,97.3c-0.3,0-0.5-0.1-0.7-0.2c0.1,0,0.3,0.1,0.4,0c-0.6,0.1-1.1-0.4-1.2-1
		c-0.1-0.6,0.4-1.1,1-1.2c0.3,0,0.6,0.1,0.8,0.3c0,0,0,0,0,0c0.4,0.2,0.6,0.5,0.7,0.9C104.4,96.7,104,97.2,103.4,97.3 M105.1,91.6
		c-0.3,0-0.5-0.1-0.7-0.2c0.1,0,0.3,0.1,0.4,0c-0.6,0.1-1.1-0.4-1.2-1c-0.1-0.6,0.4-1.1,1-1.2c0.3,0,0.6,0.1,0.8,0.3c0,0,0,0,0,0
		c0.4,0.2,0.6,0.5,0.7,0.9C106.1,91,105.7,91.5,105.1,91.6"/>
	<path id="XMLID_69_" class="st0" d="M109,72.6C109,72.5,109,72.5,109,72.6C109,72.5,109,72.5,109,72.6"/>
	<path id="XMLID_68_" class="st0" d="M115.2,72.3c0.2-1.1,0.6-2.2,1-3.4C115.8,70.1,115.5,71.2,115.2,72.3"/>
	<path id="XMLID_67_" class="st0" d="M114.7,81c-0.1-0.5-0.1-1-0.1-1.6c0-0.8-0.1-1.7,0-2.6c0-0.5,0.1-1,0.1-1.4
		C114.5,77.5,114.6,79.5,114.7,81"/>
	<path id="XMLID_66_" class="st1" d="M88.1,96.4C88,97,88.4,97.5,89,97.6c0.6,0.1,1.1-0.3,1.2-0.9c0.1-0.6-0.3-1.1-0.9-1.2
		C88.7,95.4,88.2,95.8,88.1,96.4"/>
	<path id="XMLID_65_" class="st1" d="M87.2,90.1c-0.1,0.6,0.3,1.1,0.9,1.2c0.6,0.1,1.1-0.3,1.2-0.9c0.1-0.6-0.3-1.1-0.9-1.2
		C87.8,89.1,87.3,89.5,87.2,90.1"/>
	<path id="XMLID_64_" class="st5" d="M105.4,89.5c0.2,0.2,0.3,0.4,0.4,0.7c0.1,0.6-0.4,1.1-1,1.2c-0.1,0-0.3,0-0.4,0
		c0.2,0.1,0.4,0.2,0.7,0.2c0.6-0.1,1-0.6,1-1.2C106,90,105.8,89.7,105.4,89.5"/>
	<path id="XMLID_63_" class="st9" d="M104,48.4c1.5-0.3,2.7-0.6,3.8-0.7l0-1.3c-0.9-0.1-2.3-0.3-4.3-0.4c-2.3,2.6-7.3,3.6-8.6,3.8
		C97.7,49.6,100.7,49.1,104,48.4"/>
	<path id="XMLID_62_" class="st4" d="M96.9,73.4c0,0-2.2,0.7-3.8,0.7c0,0,0,0,0,0c0.1,0.1,0.3,0.2,0.4,0.2c0.1,0.1,0.3,0.1,0.4,0.2
		c0.1,0.1,0.3,0.1,0.4,0.2c0.2,0.1,0.3,0.1,0.5,0.2c0.1,0,0.2,0.1,0.2,0.1c0.1,0,0,0,0.1,0c0.7,0,1.3-0.1,2-0.1c0.2,0,0.3,0,0.5,0
		c0.2,0,0.3,0,0.5,0l0.5,0l0.3,0c0,0,0.1,0,0.1,0c0.2,0,0.4-0.1,0.6-0.2c0.2-0.1,0.5-0.3,0.7-0.4c0.2-0.1,0.3-0.3,0.4-0.4
		C99.8,74,98.2,73.9,96.9,73.4"/>
	<path id="XMLID_248_" class="st1" d="M104.6,72.6c0,0,0.1-0.1,0.1-0.1c0.1-0.2,0.2-0.3,0.2-0.5c0.1-0.5-0.1-0.9-0.3-1.1
		c-0.2-0.2-0.4-0.3-0.4-0.3h0h0c0.2,0.1,0.2,0.4,0.1,0.7c0,0.1-0.1,0.1-0.1,0.2c-0.4,0.4-1.5,0.1-1.5,0.1c-0.4-0.2-0.8-0.3-1.1-0.4
		c-1-0.3-1.6-0.4-2-0.4c-0.2,0-0.4,0-0.6,0.1c-0.2,0-0.3,0.1-0.4,0.1c-1.4,0.6-2.2,0.5-3.4,0.1c-0.2-0.1-0.4-0.1-0.6-0.1
		c-1.4-0.1-2.6,0.8-2.6,0.8s-0.5,0.3-1,0.2c-0.2,0-0.3-0.1-0.4-0.3c-0.5-0.6,0-1,0-1c-0.8,0.4-0.9,1-0.9,1.5c0,0.2,0.1,0.3,0.1,0.4
		c0.1,0.2,0.2,0.4,0.4,0.5c0.2,0.1,0.4,0.2,0.6,0.3c0.2,0.1,0.5,0.2,0.8,0.3c0,0,0.1,0,0.1,0c0.3,0.1,0.5,0.1,0.7,0.2c0,0,0,0,0,0
		c0,0.1,0.1,0.1,0.2,0.2c0.1,0.1,0.1,0.1,0.2,0.2c0.1,0.1,0.2,0.2,0.4,0.3c0.1,0.1,0.1,0.1,0.2,0.2c0.1,0.1,0.1,0.1,0.2,0.2
		c0.1,0.1,0.3,0.2,0.4,0.3c0.1,0.1,0.3,0.2,0.5,0.3c0.1,0,0.2,0.1,0.2,0.1c0.1,0,0.2,0.1,0.3,0.1l0.1,0l0.2,0c0.7,0,1.4,0.1,2.1,0.1
		c0.2,0,0.3,0,0.5,0c0.2,0,0.3,0,0.5,0l0.5,0l0.3,0c0.1,0,0.3,0,0.4,0c0.5-0.1,0.9-0.3,1.2-0.4c0.3-0.2,0.6-0.4,0.8-0.6
		c0.2-0.2,0.4-0.4,0.6-0.7c0.1-0.1,0.2-0.2,0.3-0.3c0,0,0,0,0-0.1c0.1,0,0.1,0,0.2,0c0.1,0,0.1,0,0.2,0c0.1,0,0.1,0,0.2,0
		c0.1,0,0.3-0.1,0.4-0.1c0,0,0,0,0,0c0.2-0.1,0.3-0.1,0.5-0.2c0,0,0,0,0.1,0c0.1-0.1,0.3-0.2,0.4-0.3c0,0,0.1-0.1,0.1-0.1
		C104.4,72.8,104.5,72.7,104.6,72.6 M100.8,74c-0.1,0.1-0.3,0.3-0.4,0.4c-0.2,0.2-0.4,0.3-0.7,0.4C99.5,74.9,99.2,75,99,75
		c0,0-0.1,0-0.1,0l-0.3,0l-0.5,0c-0.2,0-0.3,0-0.5,0c-0.2,0-0.3,0-0.5,0c-0.7,0-1.3,0-2,0.1c-0.1,0,0,0-0.1,0C95,75,94.9,75,94.9,75
		c-0.2-0.1-0.3-0.1-0.5-0.2c-0.2-0.1-0.3-0.1-0.4-0.2c-0.1-0.1-0.3-0.1-0.4-0.2c-0.1-0.1-0.3-0.2-0.4-0.2c0,0,0,0,0,0
		c1.6,0.1,3.8-0.7,3.8-0.7c0.3,0.1,0.6,0.2,0.9,0.3c0.1,0,0.2,0,0.3,0.1c0.2,0,0.4,0.1,0.7,0.1c0.1,0,0.2,0,0.3,0c0.2,0,0.4,0,0.6,0
		c0.1,0,0.2,0,0.2,0C100.3,74,100.6,74,100.8,74L100.8,74L100.8,74z"/>
	<path id="XMLID_59_" class="st9" d="M96.9,73.4c0,0-2.2,0.7-3.8,0.7c0,0,0,0,0,0c0.1,0.1,0.2,0.1,0.3,0.1c0.7,0,3.2,0.2,4.7-0.3
		c0,0,0.9,0.3,2.4,0.4c0.1-0.1,0.3-0.2,0.4-0.4C99.8,74,98.2,73.9,96.9,73.4"/>
	<path id="XMLID_58_" class="st10" d="M98.7,76l-0.5,0c-0.2,0-0.3,0-0.5,0c-0.2,0-0.3,0-0.5,0c-0.7,0-1.4,0-2.1-0.1l-0.2,0
		c0,0,3.1,2.7,4.4,0.1c-0.1,0-0.3,0-0.4,0L98.7,76z"/>
	<path id="XMLID_57_" class="st10" d="M96.6,78.7"/>
	<path id="XMLID_56_" class="st10" d="M96.6,78.7c0,0,0,0,0.1,0c0,0,0.1,0,0.1,0C96.7,78.6,96.6,78.7,96.6,78.7"/>
	<path id="XMLID_55_" class="st10" d="M96.8,78.6c0.1,0,0.1,0,0.2,0c0.1,0,0.2,0,0.2,0c0.1,0,0.2,0,0.3,0c0.1,0,0.2,0,0.3,0.1
		c0.1,0,0.2,0,0.3,0.1c0.4,0.1,0.7,0.4,1,0.6c0.1,0.1,0.2,0.2,0.2,0.2c0.4-0.3,0.9-0.5,1.2-0.7C98.9,78.3,97.4,78.5,96.8,78.6"/>
	<path id="XMLID_54_" class="st1" d="M88.5,60.2c0,0,0.1-0.1,0.2-0.3c0.1-0.1,0.2-0.2,0.3-0.3c0.1-0.1,0.3-0.2,0.4-0.3
		c0.2-0.1,0.4-0.2,0.6-0.2c0.1,0,0.1,0,0.2,0c0.1,0,0.1,0,0.2,0c0.1,0,0.2,0,0.3,0c0.2,0,0.4,0,0.7,0c0.2,0,0.5,0,0.7,0
		c0.2,0,0.5,0,0.7,0c0.2,0,0.5,0,0.7,0c0.2,0,0.4,0.1,0.6,0.1c0.2,0.1,0.4,0.1,0.6,0.2c0.2,0.1,0.3,0.1,0.5,0.2
		c0.1,0.1,0.3,0.1,0.4,0.2c0.2,0.1,0.3,0.2,0.3,0.2l0,0.1c0,0-0.1,0.1-0.3,0.1c-0.2,0.1-0.5,0.2-0.9,0.2c-0.2,0-0.4,0-0.6,0
		c-0.2,0-0.4,0-0.6,0c-0.2,0-0.4-0.1-0.7-0.2c-0.2-0.1-0.5-0.1-0.7-0.2c-0.2-0.1-0.5-0.1-0.7-0.2c-0.1,0-0.2-0.1-0.3-0.1
		c-0.1,0-0.2-0.1-0.4-0.1c-0.1,0-0.2-0.1-0.3-0.1c0,0-0.1,0-0.1,0c0,0-0.1,0-0.1,0c-0.2,0-0.3,0-0.5,0c-0.2,0-0.3,0.1-0.4,0.1
		c-0.1,0.1-0.2,0.1-0.3,0.2C88.7,60.2,88.6,60.3,88.5,60.2L88.5,60.2z"/>
	<path id="XMLID_53_" class="st1" d="M94.5,67.8c0,0-0.2,0.2-0.5,0.5c-0.2,0.1-0.3,0.3-0.5,0.5c-0.2,0.2-0.4,0.4-0.5,0.6
		c-0.2,0.2-0.3,0.5-0.5,0.6c-0.1,0.1-0.2,0.2-0.2,0.3c-0.1,0.1-0.2,0.2-0.2,0.2c-0.1,0.1-0.1,0.1-0.2,0.2c-0.1,0.1-0.1,0.1-0.2,0.1
		C91.4,71,91.4,71,91.4,71l0,0c0,0,0-0.1,0.1-0.2c0-0.1,0.1-0.1,0.1-0.2c0-0.1,0.1-0.2,0.1-0.3c0.1-0.1,0.1-0.2,0.2-0.3
		c0.1-0.1,0.1-0.2,0.2-0.3c0.1-0.1,0.2-0.2,0.3-0.3c0.1-0.1,0.2-0.2,0.3-0.3c0.2-0.2,0.4-0.4,0.6-0.5c0.2-0.2,0.4-0.3,0.6-0.4
		C94.2,67.9,94.5,67.8,94.5,67.8L94.5,67.8z"/>
	<path id="XMLID_52_" class="st1" d="M99.7,67.9c0,0,0.3,0.1,0.7,0.3c0.2,0.1,0.4,0.2,0.6,0.3c0.2,0.1,0.5,0.3,0.7,0.4
		c0.1,0.1,0.2,0.2,0.3,0.2c0.1,0.1,0.2,0.2,0.3,0.2c0.1,0.1,0.2,0.2,0.3,0.3c0.1,0.1,0.1,0.2,0.2,0.3c0.1,0.1,0.1,0.2,0.1,0.2
		c0,0.1,0.1,0.1,0.1,0.2c0,0.1,0.1,0.2,0.1,0.2l0,0c0,0-0.1,0-0.2-0.1c-0.1,0-0.1-0.1-0.2-0.1c-0.1,0-0.2-0.1-0.2-0.2
		c-0.1-0.1-0.2-0.1-0.3-0.2c-0.1-0.1-0.2-0.2-0.3-0.2c-0.2-0.2-0.3-0.4-0.5-0.6c-0.2-0.2-0.4-0.4-0.6-0.5c-0.2-0.2-0.4-0.3-0.6-0.4
		C99.9,68.1,99.7,67.9,99.7,67.9L99.7,67.9z"/>
	<path id="XMLID_51_" class="st1" d="M99.5,69.7c-0.1,0-0.3-0.1-0.4-0.1c-0.1,0-0.3,0-0.5,0c-0.2,0-0.3,0-0.5,0.1c0,0,0,0,0,0
		c0-0.1,0-0.3,0.1-0.4c0-0.2,0-0.4,0-0.6c0-0.1,0-0.2-0.1-0.3c0-0.1,0-0.1-0.1-0.2L98,68l-0.1-0.3c0-0.1-0.1-0.2-0.1-0.2
		c-0.1-0.2-0.1-0.3-0.1-0.5c0-0.1,0-0.2,0-0.3l0-0.3c0-0.2,0.1-0.4,0.1-0.6l0.1-0.6c0-0.2,0.1-0.4,0.1-0.6c0.1-0.4,0-0.8,0-1.2
		c0-0.2-0.1-0.4-0.1-0.6c0-0.2-0.1-0.4-0.2-0.6c-0.1-0.2-0.3-0.4-0.5-0.5c-0.2-0.1-0.5,0-0.6,0.1l0,0.1c0.2,0,0.4,0,0.5,0.1
		c0.1,0.1,0.1,0.2,0.2,0.4c0,0.1,0,0.4,0,0.5l0,0.5l0,0.5c0,0.2,0,0.4,0,0.5l0.1,0.6c0,0.2,0,0.4,0,0.6c0,0.2,0,0.4,0,0.6
		c0,0.1,0,0.2,0,0.3c0,0.1,0,0.2,0,0.3c0,0.2,0,0.4,0,0.6c0,0.1,0,0.2,0,0.3l0,0.1l0,0.1l0,0l0,0l0,0c0,0,0,0,0,0l0,0l0,0l0,0.1
		c0,0,0,0.1,0,0.1c0,0.1,0,0.2,0,0.2c0,0.2,0,0.3-0.1,0.5c0,0.2-0.1,0.3-0.1,0.5c0,0.1-0.1,0.3-0.1,0.4c0,0,0,0,0,0c0,0,0,0-0.1,0.1
		c0,0-0.1,0.1-0.2,0.1c-0.1,0-0.2,0.1-0.3,0.1c-0.1,0-0.1,0-0.2,0c-0.1,0-0.1,0-0.2,0c-0.1,0-0.1,0-0.2-0.1L96,70.1l0,0l0,0l0,0l0,0
		l-0.1,0c-0.1,0-0.1-0.1-0.2-0.1c-0.1,0-0.2-0.1-0.3-0.1c-0.1,0-0.2-0.1-0.3-0.1c-0.1,0-0.2,0-0.3-0.1c-0.1,0-0.2,0-0.3,0
		c-0.1,0-0.2,0-0.3,0c-0.2,0-0.4,0.1-0.5,0.2l0,0.1c0.2,0,0.3,0,0.5,0.1c0.2,0,0.3,0.1,0.4,0.2c0.1,0.1,0.3,0.1,0.4,0.2
		c0.1,0,0.1,0.1,0.2,0.1c0.1,0,0.1,0.1,0.2,0.2l0.1,0.1l0.1,0.1c0.1,0.1,0.2,0.1,0.3,0.2c0.1,0,0.2,0.1,0.3,0.1
		c0.1,0,0.2,0.1,0.3,0.1c0.1,0,0.2,0,0.3,0c0.1,0,0.2-0.1,0.3-0.1c0.1,0,0.2-0.1,0.3-0.2c0,0,0.1-0.1,0.1-0.1c0,0,0.1-0.1,0.1-0.1
		l0.1-0.1l0,0c0,0,0.1-0.1,0.1-0.1c0,0,0.1-0.1,0.1-0.1c0,0,0.1-0.1,0.2-0.1c0.1-0.1,0.2-0.1,0.4-0.2c0.1-0.1,0.3-0.1,0.4-0.1
		c0.1,0,0.3,0,0.4-0.1c0.2,0,0.4,0,0.4,0S99.7,69.8,99.5,69.7"/>
	<path id="XMLID_50_" class="st10" d="M98,63.6c0.1,0.4,0.1,0.8,0,1.2c0,0.2-0.1,0.4-0.1,0.6l-0.1,0.6c0,0.2-0.1,0.4-0.1,0.6l0,0.3
		c0,0.1,0,0.2,0,0.3c0,0.2,0,0.3,0.1,0.5c0,0.1,0.1,0.2,0.1,0.2L98,68l0.1,0.1c0,0.1,0,0.1,0.1,0.2c0,0.1,0,0.2,0.1,0.3
		c0,0.2,0,0.4,0,0.6c0,0.1,0,0.3-0.1,0.4c0,0,0,0,0,0c0.2,0,0.3-0.1,0.5-0.1c0.2,0,0.3,0,0.5,0c0.1,0,0.3,0,0.4,0.1
		c0.2,0.1,0.4,0.1,0.4,0.1l-1.9-6.8C98,63.3,98,63.4,98,63.6"/>
	<path id="XMLID_49_" class="st10" d="M99.7,69.9l0.1,0C99.8,69.9,99.8,69.9,99.7,69.9"/>
	<path id="XMLID_48_" class="st1" d="M100.5,63.9c0,0,0.1,0,0.2,0c0.1,0,0.3,0,0.6,0c0.2,0,0.5,0.1,0.8,0.1c0.1,0,0.1,0,0.2,0.1
		c0,0,0.1,0,0.2,0c0.1,0,0.2,0,0.4,0c0.2,0,0.5-0.1,0.7-0.1c0.2-0.1,0.4-0.2,0.6-0.3c0.1,0,0.2-0.1,0.2-0.1c0.1,0,0.1-0.1,0.2-0.1
		c0.1-0.1,0.2-0.1,0.2-0.1s0,0,0,0c0,0,0,0.1,0,0.1c0,0,0,0.1-0.1,0.2c0,0.1-0.1,0.1-0.1,0.2c-0.1,0.1-0.3,0.3-0.6,0.4
		c-0.1,0.1-0.3,0.1-0.4,0.2c-0.2,0-0.3,0.1-0.5,0.1c-0.2,0-0.4,0-0.5,0c-0.1,0-0.2,0-0.3-0.1l-0.1,0l-0.1,0
		c-0.2-0.1-0.5-0.2-0.7-0.2c-0.2-0.1-0.4-0.1-0.5-0.2C100.6,63.9,100.5,63.9,100.5,63.9"/>
	<path id="XMLID_47_" class="st1" d="M94.6,63.6c0,0-0.1,0-0.2,0.1c-0.1,0-0.3,0.1-0.5,0.2c-0.2,0.1-0.5,0.2-0.7,0.2l-0.1,0l-0.1,0
		c-0.1,0-0.2,0.1-0.3,0.1c-0.2,0-0.4,0.1-0.5,0.1c-0.2,0-0.4,0-0.5-0.1c-0.2,0-0.3-0.1-0.5-0.2c-0.3-0.1-0.5-0.3-0.6-0.5
		c-0.1-0.1-0.1-0.1-0.2-0.2c0-0.1-0.1-0.1-0.1-0.2c0,0,0-0.1,0-0.1c0,0,0,0,0,0s0.1,0,0.2,0.1c0,0,0.1,0.1,0.2,0.1
		c0.1,0,0.1,0.1,0.2,0.1c0.2,0.1,0.4,0.2,0.6,0.3c0.2,0.1,0.5,0.1,0.7,0.1c0.1,0,0.2,0,0.4,0c0.1,0,0.1,0,0.2,0c0.1,0,0.1,0,0.2-0.1
		c0.3-0.1,0.6-0.1,0.8-0.1c0.2,0,0.4,0,0.6,0C94.5,63.6,94.6,63.6,94.6,63.6"/>
	<path id="XMLID_46_" class="st1" d="M94.6,63.6c0,0-0.1,0-0.2,0.1c-0.1,0-0.3,0.1-0.5,0.2c-0.2,0.1-0.5,0.2-0.7,0.2l-0.1,0l-0.1,0
		c-0.1,0-0.2,0.1-0.3,0.1c-0.2,0-0.4,0.1-0.5,0.1c-0.2,0-0.4,0-0.5-0.1c-0.2,0-0.3-0.1-0.5-0.2c-0.3-0.1-0.5-0.3-0.6-0.5
		c-0.1-0.1-0.1-0.1-0.2-0.2c0-0.1-0.1-0.1-0.1-0.2c0,0,0-0.1,0-0.1c0,0,0,0,0,0s0.1,0,0.2,0.1c0,0,0.1,0.1,0.2,0.1
		c0.1,0,0.1,0.1,0.2,0.1c0.2,0.1,0.4,0.2,0.6,0.3c0.2,0.1,0.5,0.1,0.7,0.1c0.1,0,0.2,0,0.4,0c0.1,0,0.1,0,0.2,0c0.1,0,0.1,0,0.2-0.1
		c0.3-0.1,0.6-0.1,0.8-0.1c0.2,0,0.4,0,0.6,0C94.5,63.6,94.6,63.6,94.6,63.6"/>
	<path id="XMLID_45_" class="st10" d="M89.2,59.9c-0.1,0.1-0.2,0.1-0.3,0.2c-0.2,0.1-0.3,0.2-0.3,0.2l-0.1-0.1c0,0,0.1-0.1,0.2-0.3
		c0.1-0.1,0.2-0.2,0.3-0.3c0.1-0.1,0.3-0.2,0.4-0.3c0.1-0.1,0.3-0.1,0.5-0.2l-0.8-1.8c-0.9,0.7-1.4,1.4-1.4,1.4c0,0.6,0,1.1,0,1.6
		l0.8,0.1l1-0.6C89.4,59.9,89.3,59.9,89.2,59.9"/>
	<path id="XMLID_44_" class="st1" d="M105.9,60.7c0,0-0.1-0.1-0.3-0.2c-0.1-0.1-0.2-0.1-0.3-0.2c-0.1-0.1-0.3-0.1-0.4-0.2
		c-0.2-0.1-0.3-0.1-0.5-0.2c-0.2,0-0.4,0-0.5,0c-0.2,0-0.3,0.1-0.6,0.1c-0.2,0.1-0.5,0.1-0.7,0.2c-0.2,0.1-0.5,0.1-0.7,0.2
		c-0.2,0.1-0.4,0.2-0.7,0.2c-0.2,0-0.4,0.1-0.6,0.1c-0.2,0-0.4,0-0.6,0c-0.2,0-0.4,0-0.5-0.1c-0.2,0-0.3-0.1-0.4-0.1
		c-0.2-0.1-0.4-0.1-0.4-0.1l0-0.1c0,0,0.1-0.1,0.3-0.2c0.2-0.1,0.5-0.3,0.8-0.4c0.2-0.1,0.3-0.1,0.5-0.2c0.2-0.1,0.4-0.1,0.6-0.2
		c0.2,0,0.4,0,0.7,0c0.2,0,0.5,0,0.7,0c0.2,0,0.5,0,0.7-0.1c0.2,0,0.5-0.1,0.8,0c0.3,0,0.5,0.1,0.7,0.2c0.2,0.1,0.4,0.2,0.5,0.3
		c0.1,0.1,0.3,0.2,0.4,0.3c0.1,0.1,0.2,0.2,0.3,0.3c0.1,0.2,0.2,0.3,0.2,0.3L105.9,60.7z"/>
	<path id="XMLID_43_" class="st10" d="M107,58.5c-0.3-0.3-0.9-0.9-1.7-1.5l-1.2,2.2c0.2,0,0.4,0.1,0.6,0.2c0.2,0.1,0.4,0.2,0.5,0.3
		c0.1,0.1,0.3,0.2,0.4,0.3c0.1,0.1,0.2,0.2,0.3,0.3c0.1,0.2,0.2,0.3,0.2,0.3l-0.1,0.1c0,0-0.1-0.1-0.3-0.2c-0.1-0.1-0.2-0.1-0.3-0.2
		c-0.1-0.1-0.3-0.1-0.4-0.2c0,0-0.1,0-0.1,0L106,61l1-0.5C107.1,59.8,107,59.2,107,58.5"/>
	<path id="XMLID_42_" class="st10" d="M110,57.7l-1.8,1.5l-0.3,4.4l-0.8,0.5l-0.4,2.5l0.4,0c0.1,0,1.6-0.1,2.5-2.1
		c0-0.5,0.2-3.2,1.1-5.3c0.1-0.2,0.2-0.7,0-1.1C110.5,58,110.4,57.8,110,57.7L110,57.7z"/>
	<path id="XMLID_41_" class="st4" d="M93.4,62.1c0,0.1,0.1,0.2,0.1,0.3c0,0.5-0.4,0.9-0.9,0.9h-0.4c-0.5,0-0.9-0.4-0.9-0.9
		c0-0.3,0.1-0.5,0.3-0.7c0,0-0.1,0-0.1,0c-0.2,0-0.4,0-0.6,0c-0.1,0-0.3,0-0.4,0.1c-0.2,0.1-0.3,0.3-0.3,0.5c0,0.6,0.9,1.1,2,1.2
		c1.2,0.1,2.1-0.3,2.2-0.9c0-0.1,0-0.2-0.1-0.4C93.9,62.2,93.7,62.2,93.4,62.1"/>
	<path id="XMLID_40_" class="st4" d="M104.2,62.2c-0.2,0-0.4-0.1-0.6-0.1c-0.1,0-0.2,0-0.3,0c0.1,0.2,0.2,0.4,0.2,0.6
		c0,0.4-0.2,0.7-0.6,0.9c0.9-0.2,1.6-0.6,1.6-1.1c0-0.1-0.1-0.2-0.1-0.3C104.3,62.2,104.3,62.2,104.2,62.2"/>
	<path id="XMLID_39_" class="st4" d="M101.2,62.7c0-0.1,0-0.3,0.1-0.4c-0.2,0-0.4,0-0.6,0.1c-0.1,0-0.1,0-0.2,0
		c-0.1,0.1-0.1,0.2-0.1,0.4c0,0.5,0.8,0.8,1.7,0.8C101.6,63.5,101.2,63.2,101.2,62.7"/>
	<path id="XMLID_217_" class="st2" d="M107.1,64.1l-0.4,0.2c0.3-1.6,0.4-2.8,0.4-3.9l-1,0.5l-1.2-0.8c-0.1,0-0.3-0.1-0.4-0.1
		c-0.2,0-0.4,0-0.5,0c-0.2,0-0.3,0.1-0.6,0.1c-0.2,0.1-0.5,0.1-0.7,0.2c-0.2,0.1-0.5,0.1-0.7,0.2c-0.2,0.1-0.4,0.2-0.7,0.2
		c-0.2,0-0.4,0.1-0.6,0.1c-0.2,0-0.4,0-0.6,0c-0.2,0-0.4,0-0.5-0.1c-0.2,0-0.3-0.1-0.4-0.1c-0.2-0.1-0.4-0.1-0.4-0.1l0-0.1
		c0,0,0.1-0.1,0.3-0.2c0.2-0.1,0.5-0.3,0.8-0.4c0.2-0.1,0.3-0.1,0.5-0.2c0.2-0.1,0.4-0.1,0.6-0.2c0.2,0,0.4,0,0.7,0
		c0.2,0,0.5,0,0.7,0c0.2,0,0.5,0,0.7-0.1c0.2,0,0.5-0.1,0.8,0c0.1,0,0.1,0,0.2,0.1l1.2-2.2c0.2,0.1,0.4,0.3,0.5,0.4
		c-0.1-0.1-0.1-0.1-0.2-0.2c-0.2-0.2-0.4-0.4-0.7-0.5c-0.7-0.5-1.6-1.1-2.4-1.4c-0.3-0.1-0.6-0.2-0.8-0.3c-0.9,1.4-2.5,2.4-4.3,2.4
		c-0.9,0-1.8-0.2-2.5-0.7c-0.4-0.2-0.7-0.5-1-0.8c-0.3-0.3-0.6-0.6-0.8-1l0,0c-0.7,0.2-1.4,0.5-2,0.9c-0.6,0.4-1.2,0.8-1.7,1.3
		c-0.1,0.1-0.2,0.2-0.3,0.2l0.8,1.8c-0.2,0-0.4,0.1-0.5,0.2c0.2-0.1,0.4-0.2,0.6-0.2c0.1,0,0.1,0,0.2,0c0.1,0,0.1,0,0.2,0
		c0.1,0,0.2,0,0.3,0c0.2,0,0.4,0,0.7,0c0.2,0,0.5,0,0.7,0c0.2,0,0.5,0,0.7,0c0.2,0,0.5,0,0.7,0c0.2,0,0.4,0.1,0.6,0.1
		c0.2,0.1,0.4,0.1,0.6,0.2c0.2,0.1,0.3,0.1,0.5,0.2c0.1,0.1,0.3,0.1,0.4,0.2c0.2,0.1,0.3,0.2,0.3,0.2l0,0.1c0,0-0.1,0.1-0.3,0.1
		c-0.2,0.1-0.5,0.2-0.9,0.2c-0.2,0-0.4,0-0.6,0c-0.2,0-0.4,0-0.6,0c-0.2,0-0.4-0.1-0.7-0.2c-0.2-0.1-0.5-0.1-0.7-0.2
		c-0.2-0.1-0.5-0.1-0.7-0.2c-0.1,0-0.2-0.1-0.3-0.1c-0.1,0-0.2-0.1-0.4-0.1c-0.1,0-0.2-0.1-0.3-0.1c0,0-0.1,0-0.1,0c0,0-0.1,0-0.1,0
		c-0.2,0-0.3,0-0.5,0c0,0-0.1,0-0.1,0l-1,0.6l-0.8-0.1c0-0.5,0-1,0-1.5c0,1.8-0.1,2.7,0.3,5.2l0.2,0.8l-1.3-1.4l-0.3-4.2l-1.7-1.5
		l-0.5,0.1L84,59.2c0.1,0.3,0.4,0.9,0.7,1.7c0.1,0.4,0.3,0.9,0.4,1.4c0.1,0.5,0.2,1,0.2,1.6l0,0c0,0.1,0.1,2.5,2.2,3.1l0.4,0.1
		c0,0,0,1.4,0.6,2.5c0.1,0.3,0.3,0.6,0.5,0.9l0,0.1l0,0.1c0,0,0,0.1,0,0.1c0,0.2,0.2,1.1,0,2.6c0,0.3,0,0.7,0.1,1
		c0.2,0.9,0.8,1.6,0.8,1.6c0,0,0.1,0.1,0.2,0.2c0.5,0.4,1.6,1.4,3,2.3c0.3,0.1,1.9,0.9,2.4,1.8c0.1,0.2,0.5,0.4,1.1,0.4
		c0.8,0.1,1.6-0.1,1.8-0.3c0.1-0.1,0.3-0.3,0.5-0.4c0-0.1-0.1-0.1-0.1-0.2c-0.2-0.2-0.4-0.5-0.7-0.7c-0.1-0.1-0.2-0.1-0.2-0.1
		c0,0-0.1,0-0.1,0c0,0-0.1,0-0.1,0c-0.1,0-0.2,0-0.2-0.1c0,0-0.1,0-0.1,0c0,0-0.1,0-0.1,0c-0.1,0-0.1,0-0.2,0c-0.1,0-0.1,0-0.2,0
		c-0.1,0-0.1,0-0.1,0s0,0,0,0c0,0,0,0,0,0s0.1,0,0.3-0.1c0,0,0,0,0,0c0,0,0.1,0,0.1,0c0,0,0.1,0,0.1,0c-0.1,0-0.1,0-0.2,0
		c0.6-0.1,2.1-0.3,3.6,0.3c0,0-0.1,0.1-0.1,0.1c0.1-0.1,0.2-0.1,0.3-0.2c0.1,0,0.1-0.1,0.2-0.1c0,0,0.2-0.1,0.5-0.3
		c0.1-0.1,0.3-0.2,0.5-0.3c0.9-0.6,2.2-1.5,2.6-2.6c0.1-0.2,0.2-0.3,0.2-0.5c0.1-0.2,0.2-0.4,0.2-0.5c0.5-1.1,0.7-1.5,0.6-2.8
		c0-0.5-0.1-0.8,0-1.1c0-0.1,0-0.3,0-0.4c0-0.1,0-0.2,0.1-0.4c0.9-0.9,1.2-1.7,1.3-2.3c0.1-0.6-0.1-0.9-0.1-0.9L107.1,64.1z
		 M95.7,69.9c0.1,0,0.2,0.1,0.2,0.1l0.1,0l0,0l0,0l0,0l0,0l0.1,0.1c0.1,0,0.1,0.1,0.2,0.1c0.1,0,0.1,0,0.2,0c0.1,0,0.1,0,0.2,0
		c0.1,0,0.2,0,0.3-0.1c0.1,0,0.1,0,0.2-0.1c0,0,0,0,0.1-0.1c0,0,0,0,0,0c0-0.1,0.1-0.3,0.1-0.4c0.1-0.2,0.1-0.3,0.1-0.5
		c0-0.2,0.1-0.3,0.1-0.5c0-0.1,0-0.2,0-0.2c0,0,0-0.1,0-0.1l0-0.1l0,0l0,0c0,0,0,0,0,0l0,0l0,0l0,0l0-0.1l0-0.1c0-0.1,0-0.2,0-0.3
		c0-0.2,0-0.4,0-0.6c0-0.1,0-0.2,0-0.3c0-0.1,0-0.2,0-0.3c0-0.2,0-0.4,0-0.6c0-0.2,0-0.4,0-0.6l-0.1-0.6c0-0.2,0-0.4,0-0.5l0-0.5
		l0-0.5c0-0.2,0-0.4,0-0.5c0-0.2-0.1-0.3-0.2-0.4c-0.1-0.1-0.3-0.1-0.5-0.1l0-0.1c0.2-0.1,0.4-0.2,0.6-0.1c0.2,0.1,0.4,0.3,0.5,0.5
		c0.1,0.2,0.1,0.4,0.2,0.6c0,0.2,0.1,0.4,0.1,0.6c0-0.2-0.1-0.3-0.1-0.5l1.9,6.8c0,0-0.2,0-0.4,0c-0.1,0-0.2,0-0.4,0.1
		c-0.1,0-0.3,0.1-0.4,0.1c-0.1,0.1-0.3,0.1-0.4,0.2c-0.1,0-0.1,0.1-0.2,0.1c0,0-0.1,0.1-0.1,0.1c0,0-0.1,0.1-0.1,0.1l0,0l-0.1,0.1
		c-0.1,0.1-0.1,0.1-0.1,0.1c0,0-0.1,0.1-0.1,0.1c-0.1,0.1-0.2,0.1-0.3,0.2c-0.1,0-0.2,0.1-0.3,0.1c-0.1,0-0.2,0-0.3,0
		c-0.1,0-0.2,0-0.3-0.1c-0.1,0-0.2-0.1-0.3-0.1c-0.1-0.1-0.2-0.1-0.3-0.2l-0.1-0.1l-0.1-0.1c-0.1-0.1-0.1-0.1-0.2-0.2
		c-0.1,0-0.1-0.1-0.2-0.1c-0.1-0.1-0.3-0.2-0.4-0.2c-0.1-0.1-0.3-0.1-0.4-0.2c-0.2,0-0.3-0.1-0.5-0.1l0-0.1c0.2-0.1,0.3-0.1,0.5-0.2
		c0.1,0,0.2,0,0.3,0c0.1,0,0.2,0,0.3,0c0.1,0,0.2,0,0.3,0.1c0.1,0,0.2,0,0.3,0.1C95.5,69.8,95.6,69.8,95.7,69.9 M101,68.5
		c0.2,0.1,0.5,0.3,0.7,0.4c0.1,0.1,0.2,0.2,0.3,0.2c0.1,0.1,0.2,0.2,0.3,0.2c0.1,0.1,0.2,0.2,0.3,0.3c0.1,0.1,0.1,0.2,0.2,0.3
		c0.1,0.1,0.1,0.2,0.1,0.2c0,0.1,0.1,0.1,0.1,0.2c0,0.1,0.1,0.2,0.1,0.2l0,0c0,0-0.1,0-0.2-0.1c-0.1,0-0.1-0.1-0.2-0.1
		c-0.1,0-0.2-0.1-0.2-0.2c-0.1-0.1-0.2-0.1-0.3-0.2c-0.1-0.1-0.2-0.2-0.3-0.2c-0.2-0.2-0.3-0.4-0.5-0.6c-0.2-0.2-0.4-0.4-0.6-0.5
		c-0.2-0.2-0.4-0.3-0.6-0.4c-0.3-0.2-0.6-0.4-0.6-0.4l0,0c0,0,0.3,0.1,0.7,0.3C100.6,68.2,100.8,68.4,101,68.5 M100.5,63.9
		c0,0,0.1,0,0.2,0c0.1,0,0.3,0,0.6,0c0.2,0,0.5,0.1,0.8,0.1c0.1,0,0.1,0,0.2,0.1c0,0,0.1,0,0.2,0c0.1,0,0.2,0,0.4,0
		c0.2,0,0.5-0.1,0.7-0.1c0.2-0.1,0.4-0.2,0.6-0.3c0.1,0,0.2-0.1,0.2-0.1c0.1,0,0.1-0.1,0.2-0.1c0.1-0.1,0.2-0.1,0.2-0.1s0,0,0,0
		c0,0,0,0.1,0,0.1c0,0,0,0.1-0.1,0.2c0,0.1-0.1,0.1-0.1,0.2c-0.1,0.1-0.3,0.3-0.6,0.4c-0.1,0.1-0.3,0.1-0.4,0.2
		c-0.2,0-0.3,0.1-0.5,0.1c-0.2,0-0.4,0-0.5,0c-0.1,0-0.2,0-0.3-0.1l-0.1,0l-0.1,0c-0.2-0.1-0.5-0.2-0.7-0.2
		c-0.2-0.1-0.4-0.1-0.5-0.2C100.6,63.9,100.5,63.9,100.5,63.9 M91.4,70.8c0-0.1,0.1-0.1,0.1-0.2c0-0.1,0.1-0.2,0.1-0.3
		c0.1-0.1,0.1-0.2,0.2-0.3c0.1-0.1,0.1-0.2,0.2-0.3c0.1-0.1,0.2-0.2,0.3-0.3c0.1-0.1,0.2-0.2,0.3-0.3c0.2-0.2,0.4-0.4,0.6-0.5
		c0.2-0.2,0.4-0.3,0.6-0.4c0.3-0.2,0.6-0.3,0.6-0.3l0,0.1c0,0-0.2,0.2-0.5,0.5c-0.2,0.1-0.3,0.3-0.5,0.5c-0.2,0.2-0.4,0.4-0.5,0.6
		c-0.2,0.2-0.3,0.5-0.5,0.6c-0.1,0.1-0.2,0.2-0.2,0.3c-0.1,0.1-0.2,0.2-0.2,0.2c-0.1,0.1-0.1,0.1-0.2,0.2c-0.1,0.1-0.1,0.1-0.2,0.1
		C91.4,71,91.4,71,91.4,71l0,0C91.3,71,91.4,70.9,91.4,70.8 M91.2,64c-0.3-0.1-0.5-0.3-0.6-0.5c-0.1-0.1-0.1-0.1-0.2-0.2
		c0-0.1-0.1-0.1-0.1-0.2c0,0,0-0.1,0-0.1c0,0,0,0,0,0s0.1,0,0.2,0.1c0,0,0.1,0.1,0.2,0.1c0.1,0,0.1,0.1,0.2,0.1
		c0.2,0.1,0.4,0.2,0.6,0.3c0.2,0.1,0.5,0.1,0.7,0.1c0.1,0,0.2,0,0.4,0c0.1,0,0.1,0,0.2,0c0.1,0,0.1,0,0.2-0.1
		c0.3-0.1,0.6-0.1,0.8-0.1c0.2,0,0.4,0,0.6,0c0.1,0,0.2,0,0.2,0s-0.1,0-0.2,0.1c-0.1,0-0.3,0.1-0.5,0.2c-0.2,0.1-0.5,0.2-0.7,0.2
		l-0.1,0l-0.1,0c-0.1,0-0.2,0.1-0.3,0.1c-0.2,0-0.4,0.1-0.5,0.1c-0.2,0-0.4,0-0.5-0.1C91.5,64.1,91.3,64.1,91.2,64 M88.9,62.3
		c-0.2,0.1-0.3,0.1-0.3,0.1l-0.1-0.1c0,0,0.1-0.1,0.2-0.2c0.1-0.1,0.2-0.1,0.3-0.2c0.1-0.1,0.2-0.2,0.4-0.2c0.3-0.2,0.7-0.3,1.2-0.4
		c0.2-0.1,0.5-0.1,0.7-0.1c0.2,0,0.5,0,0.7,0c0.5,0,1,0,1.5,0.1c0.2,0.1,0.4,0.1,0.6,0.2c0.2,0.1,0.4,0.2,0.5,0.2
		c0.3,0.2,0.5,0.3,0.6,0.5c0.1,0.1,0.2,0.2,0.2,0.2l-0.1,0.1c0,0-0.1,0-0.3,0c-0.2,0-0.5-0.1-0.8-0.1c-0.1,0-0.1,0-0.2,0
		c0.1,0.1,0.1,0.2,0.1,0.4c0,0.6-1,1-2.2,0.9c-1.2-0.1-2.1-0.6-2-1.2c0-0.2,0.1-0.3,0.3-0.5c-0.1,0-0.1,0-0.2,0
		c-0.2,0-0.4,0.1-0.5,0.1c-0.2,0-0.3,0.1-0.4,0.2C89.1,62.2,89,62.3,88.9,62.3 M104.7,72.5c0,0-0.1,0.1-0.1,0.1
		c-0.1,0.1-0.2,0.2-0.3,0.3c0,0-0.1,0.1-0.1,0.1c-0.1,0.1-0.2,0.2-0.4,0.3c0,0,0,0-0.1,0c-0.2,0.1-0.3,0.2-0.5,0.2c0,0,0,0,0,0
		c-0.2,0.1-0.3,0.1-0.4,0.1c-0.1,0-0.1,0-0.2,0c-0.1,0-0.2,0-0.2,0c-0.1,0-0.1,0-0.2,0c0,0,0,0,0,0.1c-0.1,0.1-0.2,0.2-0.3,0.3
		c-0.2,0.2-0.4,0.4-0.6,0.7c-0.2,0.2-0.5,0.4-0.8,0.6c-0.3,0.2-0.7,0.4-1.2,0.4c-1.3,2.6-4.4-0.1-4.4-0.1l-0.1,0
		c-0.1,0-0.2-0.1-0.3-0.1c-0.1,0-0.2-0.1-0.2-0.1c-0.2-0.1-0.3-0.2-0.5-0.3c-0.1-0.1-0.3-0.2-0.4-0.3c-0.1,0-0.1-0.1-0.2-0.2
		c-0.1-0.1-0.1-0.1-0.2-0.2c-0.1-0.1-0.2-0.2-0.4-0.3c-0.1-0.1-0.1-0.1-0.2-0.2c-0.1-0.1-0.1-0.1-0.2-0.2c0,0,0,0,0,0
		c-0.2,0-0.4-0.1-0.7-0.2c0,0-0.1,0-0.1,0c-0.3-0.1-0.6-0.2-0.8-0.3c-0.3-0.1-0.5-0.2-0.6-0.3c-0.2-0.1-0.3-0.3-0.4-0.5
		c-0.1-0.1-0.1-0.3-0.1-0.4c-0.1-0.5,0.1-1.1,0.9-1.5c0,0-0.5,0.4,0,1c0.1,0.2,0.3,0.2,0.4,0.3c0.5,0.1,1-0.2,1-0.2s1.2-0.9,2.6-0.8
		c0.2,0,0.4,0.1,0.6,0.1c1.2,0.4,1.9,0.5,3.4-0.1c0.1,0,0.2-0.1,0.4-0.1c0.2,0,0.4-0.1,0.6-0.1c0.4,0,1,0.1,2,0.4
		c0.3,0.1,0.7,0.2,1.1,0.4c0,0,1.1,0.3,1.5-0.1c0.1,0,0.1-0.1,0.1-0.2c0.1-0.2,0.1-0.6-0.1-0.7c0,0,0.2,0.1,0.4,0.3
		c0.2,0.2,0.4,0.5,0.3,1.1C104.8,72.1,104.8,72.3,104.7,72.5 M106.2,62.9c0,0-0.1-0.1-0.2-0.1c-0.1,0-0.2-0.1-0.3-0.2
		c-0.1-0.1-0.2-0.1-0.4-0.2c-0.1-0.1-0.3-0.1-0.5-0.2c-0.1,0-0.3-0.1-0.4-0.1c0.1,0.1,0.1,0.2,0.1,0.3c0,0.5-0.7,0.9-1.6,1.1
		c-0.1,0-0.2,0.1-0.4,0.1h-0.4c0,0,0,0-0.1,0h0c-0.9,0-1.7-0.4-1.7-0.8c0-0.1,0-0.3,0.1-0.4c-0.3,0-0.5,0-0.7,0.1
		c-0.2,0-0.3,0-0.3,0l-0.1-0.1c0,0,0.1-0.1,0.2-0.2c0.1-0.1,0.4-0.2,0.7-0.4c0.2-0.1,0.3-0.1,0.5-0.2c0.2-0.1,0.4-0.1,0.6-0.1
		c0.5-0.1,1,0,1.5,0c0.2,0,0.5,0,0.7,0.1c0.2,0,0.5,0.1,0.7,0.2c0.4,0.1,0.8,0.3,1.1,0.5c0.1,0.1,0.3,0.2,0.4,0.2
		c0.1,0.1,0.2,0.1,0.3,0.2C106.2,62.8,106.3,62.9,106.2,62.9L106.2,62.9z"/>
	<path id="XMLID_27_" class="st1" d="M106.1,62.7c-0.1-0.1-0.2-0.1-0.3-0.2c-0.1-0.1-0.2-0.2-0.4-0.2c-0.3-0.2-0.7-0.3-1.1-0.5
		c-0.2-0.1-0.5-0.1-0.7-0.2c-0.2,0-0.5-0.1-0.7-0.1c-0.5,0-1-0.1-1.5,0c-0.2,0-0.4,0.1-0.6,0.1c-0.2,0.1-0.4,0.1-0.5,0.2
		c-0.3,0.1-0.5,0.3-0.7,0.4c-0.1,0.1-0.2,0.2-0.2,0.2l0.1,0.1c0,0,0.1,0,0.3,0c0.2,0,0.5,0,0.8-0.1c0.2,0,0.4,0,0.6-0.1
		c-0.1,0.1-0.1,0.2-0.1,0.4c0,0.5,0.4,0.9,0.9,0.9h0.4c0.5,0,0.9-0.4,0.9-0.9c0-0.2-0.1-0.4-0.2-0.6c0.1,0,0.2,0,0.3,0
		c0.2,0,0.4,0,0.6,0.1c0.2,0,0.4,0.1,0.6,0.1c0.2,0,0.3,0.1,0.5,0.2c0.2,0.1,0.3,0.1,0.4,0.2c0.1,0.1,0.2,0.1,0.3,0.2
		c0.2,0.1,0.2,0.1,0.2,0.1l0.1,0C106.3,62.9,106.2,62.8,106.1,62.7"/>
	<path id="XMLID_26_" class="st5" d="M116,93c0.2,0,0.4,0,0.6,0.1c0.2,0,0.5,0.1,0.7,0.1c0.3,0.1,0.5,0.1,0.8,0.2
		c0.1,0,0.3,0.1,0.4,0.1c0.1,0,0.3,0.1,0.4,0.2l0.2,0.1l0.2,0.1c0.1,0.1,0.3,0.1,0.4,0.2c0.3,0.2,0.5,0.3,0.8,0.5
		c0.1,0.1,0.2,0.2,0.3,0.2l-5.4-6.3c1.2,1.6,2.3,3.9-0.4,4.5c0,0,0.2,0,0.4,0C115.7,93,115.8,93,116,93"/>
	<path id="XMLID_25_" class="st5" d="M118.7,103.4c0.8-0.3,1.6-0.6,2.5-0.9l-0.1-5.5c-0.1-0.2-0.1-0.3-0.2-0.5
		c-0.1-0.2-0.2-0.4-0.4-0.6c-0.1-0.2-0.3-0.4-0.5-0.6c-0.2-0.2-0.4-0.4-0.6-0.6c-0.1-0.1-0.2-0.2-0.3-0.3l-0.2-0.1l-0.2-0.1
		c-0.1-0.1-0.2-0.1-0.4-0.2c-0.1-0.1-0.2-0.1-0.4-0.2c-0.2-0.1-0.5-0.2-0.7-0.3c-0.2-0.1-0.5-0.2-0.7-0.2c-0.2-0.1-0.4-0.1-0.6-0.1
		c-0.2,0-0.3-0.1-0.5-0.1c-0.3,0-0.4-0.1-0.4-0.1s6.1,3.6,0.8,10.7C117.6,103.8,118.7,103.4,118.7,103.4"/>
	<path id="XMLID_24_" class="st5" d="M123.6,101.8c0,0,0.1,0,0.1,0l-0.1-0.2C123.6,101.6,123.6,101.7,123.6,101.8"/>
	<path id="XMLID_23_" class="st5" d="M111.2,67.7l-0.8,0l-1.2,4.3c0,0-0.7,2.4-2,5.5c0.6,0.1,5.2,1.4,7.2,8.2l1.4-0.1
		c-0.1-0.3-2.9-7.5,0.4-16.8l-1.5-0.6C113.5,67.9,112.4,67.7,111.2,67.7"/>
	<path id="XMLID_22_" class="st5" d="M72.7,91.2C72.7,91.2,72.7,91.2,72.7,91.2C72.8,91.2,72.8,91.2,72.7,91.2
		c0.1,0.1,0.2,0.2,0.3,0.3c0.1,0,0.1,0.1,0.2,0.1c0.1,0,0.1,0.1,0.2,0.1c0.1,0,0.2,0,0.2,0c0,0,0.1,0,0.1,0l0.1,0
		c0.1,0,0.2,0,0.3-0.1c0.1,0,0.2-0.1,0.2-0.1c0.1-0.1,0.1-0.1,0.2-0.1c0.1-0.1,0.1-0.1,0.2-0.2c0,0,0.1-0.1,0.1-0.1
		c0,0,0-0.1,0.1-0.1c0,0,0.1-0.1,0.1-0.1c0.1-0.1,0.1-0.1,0.1-0.1s0,0-0.1,0.1c0,0,0,0.1-0.1,0.1c0,0,0,0.1,0,0.1c0,0,0,0.1-0.1,0.1
		c0,0.1-0.1,0.1-0.1,0.2c-0.1,0.1-0.1,0.1-0.2,0.2c-0.1,0.1-0.2,0.1-0.2,0.2c-0.1,0.1-0.2,0.1-0.3,0.2l-0.2,0.1c-0.1,0-0.1,0-0.2,0
		c-0.1,0-0.2,0-0.3,0c-0.1,0-0.2,0-0.3,0c-0.1,0-0.2,0-0.3-0.1c-0.1,0-0.1,0-0.2-0.1c0,0,0.1,0.1,0.2,0.1c0.2,0.2,0.3,0.3,0.5,0.6
		c0.1,0.1,0.2,0.2,0.3,0.3c0.1,0.1,0.2,0.2,0.2,0.4c0.1,0.1,0.1,0.3,0.2,0.4C74,93.9,74,94,74,94c0,0.1,0,0.1,0.1,0.2
		c0,0.1,0.1,0.3,0.1,0.4c0,0.1,0,0.1,0,0.2c0,0.1,0,0.1,0,0.2c0,0.1,0,0.2,0,0.3c0,0.1,0,0.2,0,0.2c0,0.1,0,0.2,0,0.2s0-0.1,0-0.2
		c0-0.1,0-0.1,0-0.2c0-0.1,0-0.2-0.1-0.3c0,0,0-0.1,0-0.2c0-0.1,0-0.1-0.1-0.2c0-0.1-0.1-0.2-0.2-0.3c0-0.1-0.1-0.1-0.1-0.2
		c0-0.1-0.1-0.1-0.1-0.2c-0.1-0.1-0.2-0.2-0.2-0.3c-0.1-0.1-0.2-0.2-0.3-0.3c-0.1-0.1-0.2-0.2-0.3-0.2c-0.1-0.1-0.3-0.2-0.4-0.3
		l-0.3,7.1c1.7-1.3,3.7-2,5.3-2.5c-3.1-3.8,1.4-15.9,1.4-15.9l0,0c-1.6,4-5.5,8.9-6.3,9.9L72.7,91.2z"/>
	<path id="XMLID_21_" class="st5" d="M80.6,96.8c0,0-0.2,0.1-0.5,0.2c-0.2,0-0.3,0.1-0.5,0.2c-0.2,0.1-0.4,0.2-0.7,0.3
		c-0.3,0.1-0.5,0.2-0.8,0.4c-0.1,0.1-0.3,0.1-0.4,0.2c-0.1,0.1-0.3,0.2-0.4,0.3c-0.1,0.1-0.3,0.2-0.4,0.3c-0.1,0.1-0.3,0.2-0.4,0.3
		c-0.3,0.2-0.6,0.4-0.9,0.6l-0.2,0.2l-0.2,0.2c-0.1,0.1-0.3,0.2-0.4,0.3c-0.3,0.2-0.5,0.5-0.8,0.7c-0.2,0.2-0.5,0.5-0.7,0.7
		c-0.2,0.2-0.4,0.4-0.6,0.6c-0.2,0.2-0.3,0.4-0.5,0.6c-0.1,0.2-0.3,0.3-0.3,0.4c-0.1,0.1-0.2,0.2-0.2,0.3l5.1,1.4
		C75.7,100.3,80.6,96.8,80.6,96.8"/>
	<path id="XMLID_194_" class="st1" d="M145.7,101c-0.5-0.6-1-0.8-1.4-1c-0.4-0.2-0.6-0.3-0.9-0.8c-0.4-0.6-0.6-1.3-0.8-2.1
		c-0.3-1-0.5-2-1.2-2.9c-0.8-1-1.7-1.8-2.5-2.6c-1.2-1.2-2.4-2.3-3.6-4.1c-0.5-0.8-1.1-1.5-1.7-2.2c0,0,0,0,0,0
		c0-0.1-0.1-0.2-0.2-0.3c-0.2-0.2-0.4-0.5-0.8-0.9c-0.2-0.2-0.3-0.4-0.5-0.5c-1.1-1.2-2.2-2.4-3-3.7c-0.6-0.9-0.9-2.1-1.2-3.3
		c-0.4-1.4-0.7-2.9-1.6-3.9c-1.4-1.6-5-3-8.5-4.3l0.1-0.3l-2.8-1.1c-1.3-0.5-2.6-0.7-4-0.7l-1.1,0c0.3-0.4,0.6-0.8,0.8-1.4l0-0.1
		l0-0.1l0-0.1l0-0.1c0,0,0.1-2.9,1-4.9c0.1-0.2,0.5-1.3,0-2.3c0,0,0-0.1-0.1-0.1c1.5-0.8,2.5-2,2.6-2l0,0l0,0c0,0,0.8-0.9,1.5-2
		c1.1-1.7,1.5-3.1,1.1-4.1c-0.5-1.3-1.9-2.1-4-2.1c-0.3,0-0.6,0-0.7,0c-0.2,0-1.1,0-2.7,0.3c-0.1-1.3-0.3-3.2-0.3-5.8
		c0-5.4,0.9-10.8,0.9-10.8l0-0.3l-0.2-0.2c-0.1-0.1-3.7-2.9-11.2-2.7c-7.5,0.2-12.4,3.4-12.6,3.5L86,31.2l0.2,1
		c0.7,3.9,0.8,4.4,0.7,9.7c-0.1,3.2-0.6,5.9-1,7.8c-0.8-0.1-1.6-0.2-2.4-0.4c-0.8-0.2-1.4-0.2-2-0.2c-1.7,0-2.4,0.8-2.7,1.4
		c-0.5,1.1-0.1,2.5,1.1,4.3c0.8,1.2,1.6,2.1,1.7,2.1l0,0l0,0l0.7,0.7l0.5,0.5l-0.3,0.8l-0.1,0.2l0.1,0.2l0.1,0.1c0,0,1,1.9,1.2,4.2
		c0,0.6,0.2,1.4,0.5,2.2l-0.1,0c-2.3-0.4-5.9,1.1-7.7,1.8C76.3,67.9,76,68,75.9,68l-0.5,0.2c-0.1,0-0.2,0.1-0.1,0.2
		c-5.9,1.9-7.7,3.3-8.3,3.9c-1.4,1.1-2.5,3.5-3.5,5.5c-0.5,1-1,2-1.4,2.7c-1.2,1.9-2.7,3.7-4.2,5.4c-1.4,1.6-2.8,3.3-3.9,5
		c-0.9,1.3-1.3,2.7-1.6,4l-0.1,0c0,0,0,0,0,0.1c-0.3,1.3-0.3,2.6-0.4,3.9c-0.1,0.9-0.1,1.8-0.2,2.6c-0.1,1.2-0.6,2.3-1.1,3.4
		c-0.5,1.2-1,2.4-1.2,3.7c-0.3,2.4,0.5,4.9,2.3,7c1.9,2.3,4.6,3.8,7.3,4c0.1,0,0.3,0,0.4,0c1.6,0,5.5-2.3,7.3-3
		c0.2-0.1,0.3-0.2,0.5-0.3c1-0.3,1.9-0.6,2.7-1c2.6-1.2,8.3-1.7,8.9-1.8c0.3,0,2.3,1.3,5.1,2.9l0.2,0.1l7.8,0.1c0.1,0,1.5,0,2.7-1
		c0.4-0.4,0.9-0.8,1.2-1.5c0.1-0.2,0.2-0.3,0.2-0.5c0-0.1,0.1-0.1,0.1-0.2c0.1,0.2,0.1,0.3,0.2,0.5c0.2,0.4,0.5,0.7,0.8,0.8
		c2.3,1.5,8.8,1.8,9.6,1.8l0,0l4-0.3c0.3,0,4-0.3,6.4-4.6c0.7-0.3,4.7-1.5,19.6,1.6c0.5,0.2,3.6,1.1,6.2-0.4c1-0.6,2-1.4,2.7-2.6
		c0.9-0.7,1.6-1.6,1.9-2.7C148,105.6,147.3,102.9,145.7,101 M110.4,67.7l0.8,0c1.2,0,2.4,0.2,3.5,0.6l1.5,0.6
		c-3.3,9.2-0.5,16.4-0.4,16.8l-1.4,0.1c-0.5,0-0.7,0.6-0.4,1l6.9,8.1c-0.1-0.1-0.2-0.2-0.3-0.2c-0.2-0.2-0.5-0.4-0.8-0.5
		c-0.1-0.1-0.3-0.2-0.4-0.2l-0.2-0.1l-0.2-0.1c-0.1-0.1-0.3-0.1-0.4-0.2c-0.1-0.1-0.3-0.1-0.4-0.1c-0.3-0.1-0.5-0.1-0.8-0.2
		c-0.3,0-0.5-0.1-0.7-0.1c-0.2,0-0.4,0-0.6-0.1c-0.2,0-0.3,0-0.5,0c-0.3,0-0.4,0-0.4,0s0.1,0,0.4,0.1c0.1,0,0.3,0,0.5,0.1
		c0.2,0,0.4,0.1,0.6,0.1c0.2,0.1,0.4,0.1,0.7,0.2c0.2,0.1,0.5,0.2,0.7,0.3c0.1,0.1,0.3,0.1,0.4,0.2c0.1,0.1,0.2,0.1,0.4,0.2l0.2,0.1
		l0.2,0.1c0.1,0.1,0.2,0.2,0.3,0.3c0.2,0.2,0.4,0.4,0.6,0.6c0.2,0.2,0.4,0.4,0.5,0.6c0.1,0.2,0.3,0.4,0.4,0.6
		c0.1,0.2,0.1,0.3,0.2,0.5l0.1,5.5c-0.9,0.3-1.8,0.6-2.5,0.9c0,0-2.2,0.8-5.1,0c-2.3-0.6-3-1.2-3.1-1.3l-0.1-0.2l-0.2-0.1
		c-0.1,0-1.6-0.9-3.2,0c-0.2,0.1-0.3,0.2-0.4,0.3c0,0,0,0,0-0.1c0-0.8,0-1.8-0.7-2.4c-0.6-0.5-1.5-0.5-2.3-0.4c-0.5,0-1,0.1-1.3-0.1
		c-0.2-0.1-0.5-0.5-0.8-0.9c-0.3-0.5-0.7-1-1.2-1.3c0.6-3.4,1.4-7.4,2.5-10.4c0.3,0.1,0.4,0.2,0.4,0.2s0.9,0.6,1.4-0.1
		c0.6-0.7,0.8-2.8,0.8-4.1c0-0.3,0-0.6-0.1-1c2.4-4.7,3.7-9.3,3.7-9.3L110.4,67.7z M88.8,76.9L88.8,76.9L88.8,76.9
		c0.1,0.1,1.5,1.5,3.6,2.7l0,0c-0.3-0.1-0.7-0.2-0.9-0.3c0,0-0.7-0.4-1-0.5c-0.2-0.2-1-0.6-1.3,0c-0.1,0.1-0.1,0.3-0.2,0.5
		c-1.7-3.7-3.4-8.7-3.7-9.3c0,0,0,0,0,0l-0.5-3.2c0.4,0.5,0.9,1,1.5,1.3c0.1,0.7,0.4,1.7,1.2,3.1c0,0.3,0.1,1,0,2.1
		C87.3,75.2,88.7,76.8,88.8,76.9 M92.9,85.8c0.5-0.1,1.6-0.7,2.3-1.5c0.2,0.2,0.5,0.4,0.9,0.4h0.7c0,0.8,0,1.6,0,2.4
		c0,0.3,0,0.6,0,0.9c0,0.3,0,0.6,0,0.9c0,0.3,0,0.6-0.1,0.9c0,0.1,0,0.3,0,0.4c0,0.1,0,0.2,0,0.4c0,0.1,0,0.2,0,0.3
		c0,0.1,0,0.2-0.1,0.3c0,0.2-0.1,0.4-0.1,0.5c-0.1,0.3-0.1,0.4-0.1,0.4s0.1-0.2,0.1-0.4c0.1-0.1,0.1-0.3,0.1-0.5
		c0-0.1,0-0.2,0.1-0.3c0-0.1,0-0.2,0.1-0.3c0-0.1,0-0.2,0.1-0.4c0-0.1,0-0.3,0.1-0.4c0-0.3,0.1-0.6,0.1-0.9c0-0.3,0.1-0.6,0.1-0.9
		c0-0.3,0-0.6,0.1-0.9c0.1-0.9,0.1-1.7,0.1-2.5h0.4c0.4,0,0.7-0.2,0.9-0.5c0.7,0.9,1.9,1.5,2.4,1.6c0.1,0,0.2,0.1,0.3,0.1
		c-1.1,3.1-1.9,7.3-2.3,10.8c-0.5,0.1-0.9,0.4-1.3,0.7c-0.4,0.3-0.9,0.5-1.2,0.5c-0.3,0-0.8-0.3-1.2-0.5c-0.2-0.1-0.3-0.2-0.5-0.3
		c-0.1,0-0.1-0.1-0.2-0.1c-0.5-2.6-1.4-7.2-2.5-10.8C92.3,86,92.7,85.8,92.9,85.8 M93.2,98L93.2,98C93.2,97.9,93.2,97.9,93.2,98
		c0.3-0.1,0.8,0.3,1.2,0.5l0.1,0c0.6,0.4,1.2,0.7,1.9,0.7c0.7,0,1.3-0.4,1.9-0.7c0.4-0.3,0.9-0.6,1.2-0.5c0.3,0.1,0.7,0.6,1,1
		c0.4,0.6,0.8,1.1,1.3,1.4c0.6,0.3,1.4,0.2,2,0.2c0.5,0,1.1-0.1,1.3,0.1c0.2,0.2,0.2,0.8,0.3,1.4c0,0.3,0,0.7,0.1,1
		c-2.3-2-5.6-3.1-9-3.1c-3.5,0-6.8,1.1-9,3.1c0.1-0.3,0.1-0.7,0.1-1c0-0.6,0-1.2,0.3-1.4c0.2-0.2,0.8-0.1,1.3-0.1
		c0.7,0.1,1.4,0.1,2-0.2c0.6-0.3,1-0.8,1.3-1.4C92.6,98.6,92.9,98.1,93.2,98 M106.8,71.6c-0.1-1.2,0.2-1.9,0.2-2.1
		c0.2-0.2,0.6-0.8,0.8-1.5c0.1-0.1,0.1-0.1,0.2-0.2c0.3-0.1,0.7-0.3,1.1-0.5l-1.2,4.4c-0.1,0.3-1.3,3.6-3.1,7.3c0,0-0.1-0.1-0.1-0.2
		c-0.3-0.6-1-0.2-1.3,0c0,0-0.1,0.1-0.2,0.1c1.2-0.9,2-1.8,2.4-2.8c0.2-0.4,0.3-0.7,0.4-1C106.6,74,106.9,73.3,106.8,71.6
		 M90.3,31.3c1,4.9,1.1,8.9,0.5,13.9c0,0-0.9,0.3-1.5,0.4c0.5-4.5,0.4-9-0.5-13.5C89.4,31.8,89.9,31.5,90.3,31.3 M88,47.3
		c1.6-0.4,5.9-1.4,9.9-1.4c5,0,8.4,0.3,9.9,0.5l0,1.3c-1.1,0.2-2.3,0.4-3.8,0.7c-5.2,1.1-9.7,1.7-13.7,1.7c-1,0-1.9-0.1-2.8-0.1l0,0
		L88,47.3z M84,59.2l0.4-1.4l0.5-0.1l1.7,1.5l0.3,4.2l1.3,1.4L88.1,64c-0.5-2.5-0.4-3.3-0.3-5.2c0,0,2.7-3,5.5-3.8l0,0
		c0.9,1.5,2.5,2.4,4.3,2.4c1.8,0,3.4-1,4.3-2.4c2.2,0.6,4.7,2.9,5.3,3.5c0,1.9,0.1,3.2-0.4,5.8l1.2-0.7l0.3-4.4l1.8-1.5l0.1,0
		c0.2,0.1,0.4,0.2,0.5,0.4c0.2,0.4,0,0.9,0,1.1c-0.9,2.1-1.1,4.9-1.1,5.3c-0.8,2-2.4,2.1-2.5,2.1l-0.4,0c0,0,0.6,1.5-1.2,3.2
		c-0.1,0.5-0.2,0.9-0.1,1.9c0.1,1.3-0.1,1.7-0.6,2.8c-0.1,0.3-0.3,0.6-0.5,1c-0.8,1.8-3.6,3.2-3.6,3.2c0,0-0.8,0.4-1.5,0.8
		c-0.1-0.1-0.1-0.1-0.2-0.2c-0.2-0.2-0.6-0.5-1-0.6c-0.1,0-0.2-0.1-0.3-0.1c-0.1,0-0.2,0-0.3-0.1c-0.1,0-0.2,0-0.3,0
		c-0.1,0-0.2,0-0.2,0c-0.1,0-0.1,0-0.2,0c-0.1,0-0.1,0-0.2,0c-0.1,0-0.1,0-0.1,0s0,0,0.1,0c0,0,0.1,0,0.2,0c0.1,0,0.1,0,0.2,0
		c0.1,0,0.1,0,0.2,0c0.1,0,0.2,0,0.2,0.1c0.1,0,0.2,0.1,0.2,0.1c0.1,0,0.2,0.1,0.2,0.1c0.3,0.2,0.6,0.5,0.7,0.7
		c0.1,0.1,0.1,0.2,0.1,0.2c-0.2,0.1-0.3,0.3-0.5,0.4c-0.2,0.2-1,0.4-1.8,0.3c-0.5-0.1-0.9-0.2-1.1-0.4c-0.6-0.9-2.1-1.6-2.4-1.8
		c-1.9-1.1-3.3-2.5-3.3-2.5c0,0-1.1-1.2-0.9-2.6c0.2-1.6,0-2.6,0-2.7l0-0.1l0-0.1c-0.2-0.3-0.4-0.7-0.5-0.9
		c-0.5-1.2-0.6-2.5-0.6-2.5L87.4,67c-2.1-0.6-2.2-3-2.2-3.1l0,0C85.1,61.6,84.2,59.7,84,59.2 M77.1,69.1c1.2-0.5,4.3-1.7,6.3-1.7
		c0.1,0.1,0.1,0.1,0.2,0.1l0.5,2.8l0,0.1c0.1,0.4,2.3,8.7,4.4,12.3c0,1.4,0.2,3.2,0.7,3.9c0.3,0.4,0.7,0.4,1,0.3
		c1.1,3.2,2.1,7.3,2.7,9.8c0,0,0,0,0,0c-0.8,0.2-1.3,0.9-1.7,1.6c-0.3,0.4-0.5,0.8-0.8,0.9c-0.3,0.1-0.8,0.1-1.3,0.1
		c-0.8-0.1-1.7-0.1-2.3,0.4c-0.7,0.6-0.7,1.6-0.7,2.4c0,0.2,0,0.5,0,0.7c0,0,0,0,0,0c-0.3-0.4-0.6-0.6-1.1-0.6
		c-1.6-0.1-4.4,2.5-5.4,3.5l-7.7-2.1c0-0.1,0.1-0.2,0.2-0.3c0.1-0.1,0.2-0.3,0.3-0.4c0.1-0.2,0.3-0.4,0.5-0.6
		c0.2-0.2,0.4-0.4,0.6-0.6c0.2-0.2,0.4-0.5,0.7-0.7c0.2-0.2,0.5-0.5,0.8-0.7c0.1-0.1,0.3-0.2,0.4-0.3l0.2-0.2l0.2-0.2
		c0.3-0.2,0.6-0.4,0.9-0.6c0.1-0.1,0.3-0.2,0.4-0.3c0.1-0.1,0.3-0.2,0.4-0.3c0.1-0.1,0.3-0.2,0.4-0.3c0.1-0.1,0.3-0.1,0.4-0.2
		c0.3-0.1,0.5-0.3,0.8-0.4c0.2-0.1,0.5-0.2,0.7-0.3c0.2-0.1,0.4-0.1,0.5-0.2c0.3-0.1,0.5-0.2,0.5-0.2s-4.8,0.4-8.6,3.2l0.3-7.1
		c0.1,0.1,0.3,0.2,0.4,0.3c0.1,0.1,0.2,0.2,0.3,0.2c0.1,0.1,0.2,0.2,0.3,0.3c0.1,0.1,0.2,0.2,0.2,0.3c0,0.1,0.1,0.1,0.1,0.2
		c0,0.1,0.1,0.1,0.1,0.2c0.1,0.1,0.1,0.2,0.2,0.3c0,0.1,0,0.1,0.1,0.2c0,0.1,0,0.1,0,0.2c0,0.1,0.1,0.2,0.1,0.3c0,0.1,0,0.2,0,0.2
		c0,0.1,0,0.2,0,0.2s0-0.1,0-0.2c0-0.1,0-0.1,0-0.2c0-0.1,0-0.2,0-0.3c0-0.1,0-0.1,0-0.2c0-0.1,0-0.1,0-0.2c0-0.1,0-0.3-0.1-0.4
		c0-0.1,0-0.1-0.1-0.2c0-0.1-0.1-0.1-0.1-0.2c0-0.1-0.1-0.3-0.2-0.4c-0.1-0.1-0.2-0.3-0.2-0.4c-0.1-0.1-0.2-0.2-0.3-0.3
		c-0.2-0.2-0.4-0.4-0.5-0.6c-0.1,0-0.1-0.1-0.2-0.1c0.1,0,0.1,0,0.2,0.1c0.1,0,0.2,0,0.3,0.1c0.1,0,0.2,0,0.3,0c0.1,0,0.2,0,0.3,0
		c0.1,0,0.1,0,0.2,0l0.2-0.1c0.1,0,0.2-0.1,0.3-0.2c0.1-0.1,0.2-0.1,0.2-0.2c0.1-0.1,0.1-0.1,0.2-0.2c0.1-0.1,0.1-0.1,0.1-0.2
		c0,0,0-0.1,0.1-0.1c0,0,0-0.1,0-0.1c0-0.1,0-0.1,0.1-0.1c0-0.1,0.1-0.1,0.1-0.1s0,0-0.1,0.1c0,0-0.1,0.1-0.1,0.1c0,0,0,0-0.1,0.1
		c0,0-0.1,0-0.1,0.1c-0.1,0-0.1,0.1-0.2,0.2c-0.1,0-0.1,0.1-0.2,0.1c-0.1,0-0.2,0.1-0.2,0.1c-0.1,0-0.2,0.1-0.3,0.1l-0.1,0
		c0,0-0.1,0-0.1,0c-0.1,0-0.2,0-0.2,0c-0.1,0-0.1,0-0.2-0.1c-0.1,0-0.1-0.1-0.2-0.1c-0.1-0.1-0.2-0.1-0.2-0.2c0,0,0,0-0.1-0.1
		c0,0,0,0,0,0s6.8-8.4,6.7-12.6C79.3,75.1,77.5,70.7,77.1,69.1C77,69.1,77,69.1,77.1,69.1 M59.1,118.4c-2.3-0.2-4.7-1.5-6.4-3.5
		c-1.5-1.8-2.2-3.9-2-6c0.1-1.1,0.6-2.2,1.1-3.4c0.5-1.2,6.6-5.5,6.8-6.9c0.1-0.9-5.7,3-5.4,0.3c0.1-1,0.2-1.9,0.3-2.9
		c0.1,0,0.2,0.1,0.2,0.1c0.1,0,0.2,0.1,0.3,0.1c0.1,0,0.2,0.1,0.3,0.1c0.1,0,0.2,0.1,0.3,0.1c0.2,0.1,0.4,0.1,0.6,0.1
		c0.2,0,0.4,0,0.6,0.1c0.2,0,0.4,0,0.6,0c0.2,0,0.4-0.1,0.6-0.1c0.2,0,0.3-0.1,0.5-0.1c0.1,0,0.3-0.1,0.4-0.1c0.1,0,0.2-0.1,0.3-0.1
		c0.2-0.1,0.3-0.1,0.3-0.1s-0.1,0-0.3,0c-0.1,0-0.2,0-0.3,0c-0.1,0-0.3,0-0.4,0c-0.1,0-0.3,0-0.5,0c-0.2,0-0.3,0-0.5-0.1
		c-0.2,0-0.3-0.1-0.5-0.1c-0.2-0.1-0.3-0.1-0.5-0.2c-0.2-0.1-0.3-0.2-0.5-0.3c-0.1,0-0.1-0.1-0.2-0.1c-0.1-0.1-0.1-0.1-0.2-0.2
		c-0.1,0-0.1-0.1-0.2-0.2c-0.1-0.1-0.1-0.1-0.2-0.2c-0.1-0.1-0.2-0.2-0.3-0.3c-0.1-0.1-0.1-0.2-0.2-0.3c0,0,0-0.1,0-0.1
		c0.2-0.9,0.6-1.8,1.2-2.7c1.1-1.7,2.4-3.2,3.8-4.9c1.5-1.8,3-3.6,4.3-5.6c0.5-0.7,4.3,1.8,4.8,0.7c0.2-0.3-3.9-2.5-2.8-4.5
		c0.9-1.6,1.7-3.2,2.7-4c1.8-1.4,4.9-2.7,7.9-3.7c0.5,1.6,1.6,5.4,1.7,8.6c0.1,2.6-2.5,7.1-4.4,9.9c-0.1-0.1-0.1-0.1-0.2-0.2
		c-0.1-0.1-0.2-0.2-0.3-0.3c-0.1-0.1-0.2-0.2-0.4-0.3c-0.1-0.1-0.3-0.2-0.4-0.3c-0.1-0.1-0.3-0.1-0.4-0.2c-0.1-0.1-0.3-0.1-0.4-0.2
		c-0.1-0.1-0.2-0.1-0.3-0.1c-0.1,0-0.2-0.1-0.3-0.1c-0.1,0-0.2,0-0.2-0.1c-0.1,0-0.2-0.1-0.2-0.1s0.1,0,0.2,0.1
		c0.1,0,0.1,0.1,0.2,0.1c0.1,0,0.2,0.1,0.2,0.2c0.1,0.1,0.2,0.1,0.3,0.2c0.1,0.1,0.2,0.2,0.3,0.3c0.1,0.1,0.2,0.2,0.3,0.3
		c0.1,0.1,0.2,0.2,0.3,0.3c0.1,0.1,0.2,0.2,0.2,0.3c0.1,0.1,0.1,0.2,0.2,0.3c0.1,0.2,0.2,0.4,0.3,0.6c0,0,0,0,0,0
		c-0.5,0.8-0.9,1.3-1.1,1.5c0,0.1-0.1,0.1-0.2,0.1L67,89c-0.2-0.1-0.3,0.2-0.2,0.3l4,3.2c0,0,0.1,0.1,0.1,0.2L70.3,99
		c-0.3-0.3-0.7-0.7-1.2-0.9c-0.3-0.2-0.6-0.3-0.9-0.4c-0.3-0.1-0.6-0.2-0.9-0.3c-0.2,0-0.3-0.1-0.5-0.1c-0.2,0-0.3,0-0.5,0
		c-0.3,0-0.6,0-0.9,0c-0.1,0-0.3,0-0.4,0.1c-0.1,0-0.3,0.1-0.4,0.1c-0.3,0.1-0.5,0.1-0.7,0.2c-0.1,0-0.2,0.1-0.3,0.1
		c-0.1,0-0.2,0.1-0.3,0.1c-0.2,0.1-0.3,0.1-0.4,0.2c-0.2,0.1-0.4,0.2-0.4,0.2s0.1,0,0.4-0.1c0.1,0,0.3-0.1,0.5-0.1
		c0.1,0,0.2,0,0.3-0.1c0.1,0,0.2,0,0.3-0.1c0.2-0.1,0.5-0.1,0.7-0.1c0.1,0,0.3,0,0.4,0c0.1,0,0.3,0,0.4,0c0.3,0,0.6,0,0.9,0.1
		c0.1,0,0.3,0.1,0.4,0.1c0.1,0,0.3,0.1,0.4,0.1c0.3,0.1,0.5,0.2,0.8,0.4c0.2,0.1,0.5,0.3,0.7,0.5c0.4,0.3,0.7,0.7,1,1.1
		c0.1,0.2,0.2,0.3,0.3,0.5c-0.1,0-0.2-0.1-0.3-0.1c-0.1-0.1-0.3-0.1-0.4-0.1c-0.1,0-0.3-0.1-0.4-0.1c-0.1,0-0.3-0.1-0.4-0.1
		c-0.1,0-0.3,0-0.4,0c-0.1,0-0.3,0-0.4,0c-0.1,0-0.2,0-0.3,0c-0.1,0-0.2,0-0.2,0c-0.1,0-0.2,0-0.2,0s0.1,0,0.2,0
		c0.1,0,0.1,0,0.2,0.1c0.1,0,0.2,0.1,0.3,0.1c0.1,0,0.2,0.1,0.3,0.1c0.1,0,0.2,0.1,0.4,0.1c0.1,0.1,0.2,0.1,0.4,0.2
		c0.1,0.1,0.2,0.1,0.4,0.2c0.1,0.1,0.2,0.2,0.3,0.2c0.1,0.1,0.2,0.2,0.3,0.3c0.2,0.2,0.3,0.3,0.5,0.5c0,0,0.1,0.1,0.1,0.1l-0.1,1.1
		l-0.7-0.2c-0.3-0.1-3.5-1.1-6.6-1.1h-0.1l-6.6,2.2c-0.1,0-2.9,1.2-2.7,3.9c0.2,2.4,0.6,4.3,2,6c0.2,0.3,0.5,0.6,0.7,0.9
		c0.9,1.3,2.6,2.6,5.9,2.7l0,0l0,0c0,0,0.1,0,0.2,0C60.7,118,59.6,118.4,59.1,118.4 M94.4,111.3c0,0.1,0,0.2-0.1,0.3
		c0,0,0,0.1,0,0.1c-0.2,0-0.6,0.1-1,0.2c-0.8,0.1-1.8,0.3-2.8,0.5c-0.2,0-0.5,0.1-0.7,0.1c-0.2,0-0.5,0-0.7,0c-0.5,0-0.9,0-1.3,0
		c-0.8,0-1.3,0-1.3,0s0.5,0,1.3,0c0.4,0,0.8,0,1.3,0.1c0.2,0,0.5,0,0.7,0c0.3,0,0.5,0,0.8,0c1-0.1,2-0.2,2.8-0.2c0,0,0.1,0,0.1,0
		c0,0,0.1,0,0.1,0c0,0,0.1,0,0.1,0.1c0,0,0.1,0.1,0.1,0.1c0,0,0.1,0.1,0.1,0.1c0,0,0.1,0.1,0.1,0.1c0,0,0,0.1,0.1,0.1
		c0,0.1,0,0.2,0.1,0.2c0,0.1,0,0.1,0,0.2c0,0,0,0,0,0c0,0,0,0-0.1,0.1c-0.2,0-0.6,0.1-1,0.2c-0.8,0.1-1.8,0.3-2.8,0.5
		c-0.2,0-0.5,0.1-0.7,0.1c-0.2,0-0.5,0-0.7,0c-0.5,0-0.9,0-1.3,0c-0.8,0-1.3,0-1.3,0s0.5,0,1.3,0c0.4,0,0.8,0,1.3,0.1
		c0.2,0,0.5,0,0.7,0c0.3,0,0.5,0,0.8,0c0.6,0,1.2-0.1,1.7-0.1c0,0,0,0,0,0c0,0,0.1,0,0.1,0.1c0,0,0.1,0.1,0.1,0.1
		c0,0,0.1,0.1,0.1,0.1c0,0,0.1,0.1,0.1,0.1c0,0,0,0.1,0.1,0.1c0,0.1,0,0.2,0.1,0.2c0,0.1,0,0.1,0,0.2c0,0,0,0.1,0,0c0,0,0,0,0,0
		l0,0.1c-0.1,0-0.1,0.1-0.2,0.1c-0.4,0.1-1.6,0.2-1.6,0.2h-2.4l-2.5-0.1c-0.9,0-1.9-0.2-2.7-0.6c-1.5-0.7-2.6-1.3-3.4-1.8
		c-0.1-0.1-0.2-0.1-0.2-0.2c-0.1-0.1-0.1-0.2-0.2-0.3l-0.1-0.1l-0.1-0.2c-0.1-0.1-0.1-0.2-0.2-0.3c-0.1-0.1-0.1-0.2-0.1-0.3
		c0-0.1-0.1-0.2-0.1-0.3c0-0.1,0-0.2,0-0.3c0-0.1,0-0.2,0-0.3c0-0.1,0-0.1,0-0.2c0-0.1,0-0.2,0-0.2s0,0.1,0,0.2c0,0.1,0,0.1,0,0.2
		c0,0.1,0,0.2,0,0.3c0,0.1,0,0.2,0,0.3c0,0.1,0,0.2,0,0.4c0,0.1,0,0.3,0,0.4c0,0.1,0,0.3,0.1,0.4l0,0l0,0c-0.3,0-6.5,0.5-9.5,1.9
		c-2.6,1.2-7.1,1.7-7.5,1.8c-2.5-0.1-3.2-1.1-4-2.3c-0.2-0.3-0.5-0.7-0.8-1c-1.2-1.4-1.3-2.5-1.4-4.7c-0.1-1.8,1-2.4,1.1-2.4l6-2.6
		c2.9,0,6,1,6.1,1l11.2,3.1l0.3-0.3c2.2-2.3,4.2-3.6,4.6-3.3c0.2,0.2,0.3,0.4,0.5,0.6c0.2,0.2,0.4,0.4,0.6,0.5l0,0l-0.4,0.6l0,0l0,0
		l0,0l-0.2,0.1c0,0,0,0-0.1,0c-0.3,0.1-0.9,0.3-1.2,0.8c0,0,0,0.1-0.1,0.1c-0.1,0.3-0.1,0.5,0,0.8c0.3,0.8,0.9,1.4,1.9,1.6
		c0.1,0,0.2,0,0.3,0.1c0.4,0.1,0.7,0.1,0.8,0.1c0,0,0.1,0,0.1,0c2.4,0.3,5.1,0,6.6-0.2c0,0,0,0,0,0c0,0,0.1,0,0.1,0
		c0,0,0.1,0,0.1,0.1c0,0,0.1,0.1,0.1,0.1c0,0,0.1,0.1,0.1,0.1c0,0,0,0,0,0.1l0,0.1c0,0,0,0.1,0,0.1c0,0.1,0,0.1,0,0.1
		c0,0,0,0.1,0,0.1c0,0.1,0,0.2-0.1,0.3c0,0.1-0.1,0.1-0.1,0.2c0,0,0,0,0,0c-0.1,0-0.3,0-0.4,0.1c-0.8,0.1-1.8,0.3-2.8,0.5
		c-0.2,0-0.5,0.1-0.7,0.1c-0.2,0-0.5,0-0.7,0c-0.5,0-0.9,0-1.3,0c-0.8,0-1.3,0-1.3,0s0.5,0,1.3,0c0.4,0,0.8,0,1.3,0.1
		c0.2,0,0.5,0,0.7,0c0.3,0,0.5,0,0.8,0c1-0.1,2-0.2,2.8-0.2c0.2,0,0.4,0,0.5-0.1c0,0,0.1,0,0.1,0.1c0,0,0.1,0.1,0.1,0.1
		c0,0,0.1,0.1,0.1,0.1c0,0,0,0,0,0.1l0,0.1c0,0,0,0.1,0,0.1c0,0.1,0,0.1,0,0.1C94.5,111.2,94.5,111.3,94.4,111.3 M96.8,107.7
		l-0.1,0.2c0,0-0.2,0.4-0.4,1c-0.1-0.5-0.2-0.8-0.2-0.8L96,108l-1.2-0.8c-0.1-0.1-0.3-0.1-0.5-0.1c0,0-4.2,0.8-7.3,0.3l-0.1,0
		l-0.1,0c0,0-0.4,0-0.8-0.1l0,0c1.1-3.5,5.5-6,10.4-6c4.6,0,8.7,2.2,10.1,5.4l0,0c0,0,0,0-0.1,0c-1.5,0.6-6.5,0.3-8.2,0.2l-0.3,0
		L96.8,107.7z M143.6,107.4c-0.3,2-1,3.4-2.2,4.2c-2.1,1.3-4.4,0.6-4.5,0.6l-0.1,0c-13.4-2.8-18.4-2.1-20.1-1.6c0-0.1,0-0.1,0-0.2
		c0-0.1,0-0.3,0-0.4c0-0.1,0-0.1,0-0.2l-0.1-0.2c0-0.1-0.1-0.3-0.1-0.4c0-0.1-0.1-0.2-0.2-0.4c-0.1-0.1-0.1-0.2-0.2-0.3
		c-0.1-0.1-0.1-0.2-0.2-0.3c-0.1-0.1-0.1-0.2-0.2-0.2c-0.1-0.1-0.1-0.1-0.1-0.1c-0.1-0.1-0.1-0.1-0.1-0.1s0,0.1,0.1,0.2
		c0,0,0.1,0.1,0.1,0.2c0,0.1,0.1,0.1,0.1,0.2c0,0.1,0.1,0.2,0.1,0.3c0,0.1,0.1,0.2,0.1,0.3c0,0.1,0.1,0.2,0.1,0.3c0,0.1,0,0.2,0,0.4
		l0,0.2c0,0.1,0,0.1,0,0.2c0,0.1,0,0.2,0,0.3c0,0.2-0.1,0.4-0.2,0.6c0,0,0,0.1-0.1,0.1l-0.1,0.1c-2,3.9-5.2,4-5.3,4l-4.1,0.3
		c-1.2,0-3.6-0.2-5.8-0.6c-0.4-0.1-0.7-0.2-1.1-0.2c-0.2,0-0.4-0.1-0.5-0.2c0,0,0-0.1,0-0.2c0-0.1,0-0.1,0-0.2c0,0,0-0.1,0-0.1
		c0,0,0-0.1,0-0.1c0,0,0-0.1,0-0.1c0,0,0-0.1,0-0.1c0,0,0-0.1,0.1-0.1c0,0,0,0,0,0c0.3,0.1,0.7,0.1,1.1,0.2c0.3,0,0.7,0.1,1,0.1
		c0.2,0,0.3,0.1,0.5,0.1c0.2,0,0.3,0.1,0.5,0.1l0.1,0l0.1,0c0.1,0,0.2,0,0.3,0c0.2,0,0.4,0,0.5,0c0.3,0,0.7-0.1,1-0.1
		c0.6-0.1,1.2-0.1,1.8-0.1c1-0.1,1.7-0.1,1.7-0.1s-0.7,0-1.7,0c-0.5,0-1.1,0-1.8,0c-0.3,0-0.7,0-1,0c-0.2,0-0.3,0-0.5,0
		c-0.1,0-0.2,0-0.2,0l-0.3-0.1c-1.3-0.3-2.7-0.6-3.7-0.8c-0.4-0.1-0.8-0.2-1-0.2c0-0.1,0-0.3,0-0.5c0-0.1,0-0.2,0.1-0.3
		c0,0,0-0.1,0.1-0.1l0,0c0.2,0,0.5,0.1,0.8,0.1c0.5,0.1,1.1,0.1,1.7,0.2c0.6,0.1,1.3,0.2,2,0.3c0.4,0,0.7,0.1,1.1,0
		c0.3,0,0.7-0.1,1-0.1c0.6,0,1.2-0.1,1.7-0.1c1,0,1.7-0.1,1.7-0.1s-0.7,0-1.7-0.1c-0.5,0-1.1,0-1.8,0c-0.3,0-0.7,0-1,0
		c-0.3,0-0.7-0.1-1-0.1c-2-0.4-4.1-0.8-4.9-1c0-0.1,0-0.1,0-0.2c0-0.1,0-0.2,0-0.3c0-0.1,0.1-0.2,0.1-0.2c0,0,0,0,0.1-0.1
		c0.3,0,0.7,0.1,1.2,0.1c0.5,0,1.1,0.1,1.7,0.1c0.3,0,0.6,0.1,1,0.1c0.2,0,0.3,0,0.5,0l0.1,0l0,0l0,0l0,0c0,0,0,0,0,0l0,0l0,0
		c0.1,0,0.2,0,0.3,0c0.3,0,0.7,0,1,0c0.3,0,0.7-0.1,1-0.1c0.6,0,1.2-0.1,1.7-0.1c1,0,1.7-0.1,1.7-0.1s-0.7,0-1.7-0.1
		c-0.5,0-1.1,0-1.7,0c-0.3,0-0.6,0-1,0c-0.3,0-0.6,0-1-0.1c-0.1,0-0.2,0-0.2,0l0,0l-0.1,0l0,0c0,0,0,0,0,0l0,0l0,0l0,0l-0.1,0
		c-0.2,0-0.3-0.1-0.5-0.1c-0.3-0.1-0.6-0.1-1-0.2c-0.6-0.1-1.2-0.2-1.7-0.3c-0.2,0-0.4-0.1-0.6-0.1c0-0.1,0-0.2,0-0.2
		c0-0.1,0-0.2,0-0.3c0-0.1,0.1-0.2,0.1-0.2c0,0,0-0.1,0.1-0.1c0,0,0.1-0.1,0.1-0.1c0,0,0.1,0,0.1-0.1c0,0,0.1,0,0.1,0
		c0,0,0.1,0,0.1,0c1.5,0.2,5.1,0.7,7.4-0.1c0.3-0.1,0.6-0.1,0.9-0.2c0.4-0.2,1.5-0.6,1.4-1.4c0-0.3-0.2-0.5-0.4-0.7
		c-0.1-0.1-0.3-0.3-0.5-0.3l-0.6-0.8l-0.2-0.3c0.2-0.1,0.4-0.3,0.5-0.5c0.1-0.1,0.1-0.2,0.2-0.3c0.1-0.2,0.2-0.4,0.5-0.6
		c0.7-0.4,1.4-0.2,1.6-0.1c0.3,0.4,1.3,1.2,3.8,1.8c3.4,0.9,5.8,0,6,0c5.7-2.3,15.5-4.4,16.4-4.5c0.6,0.1,4.6,0.3,6.9,3
		C143.5,104.3,143.8,105.8,143.6,107.4 M144.9,102.8c-2.7-3.3-8.9-3.9-9.2-3.9l0,0c-0.4,0-6.6,1.3-12.1,3c0-0.1,0.1-0.2,0.1-0.4
		c0.1-0.2,0.2-0.4,0.3-0.6c0.1-0.1,0.1-0.2,0.2-0.3c0.1-0.1,0.2-0.2,0.3-0.3c0.1-0.1,0.2-0.2,0.3-0.3c0.1-0.1,0.2-0.2,0.3-0.3
		c0.1-0.1,0.2-0.2,0.3-0.2c0.1-0.1,0.2-0.1,0.3-0.2c0.1-0.1,0.2-0.1,0.2-0.2c0.1,0,0.1-0.1,0.2-0.1c0.1-0.1,0.2-0.1,0.2-0.1
		s-0.1,0-0.2,0c-0.1,0-0.1,0-0.2,0.1c-0.1,0-0.2,0-0.3,0.1c-0.1,0-0.2,0.1-0.3,0.1c-0.1,0-0.2,0.1-0.4,0.1c-0.1,0.1-0.3,0.1-0.4,0.2
		c-0.1,0.1-0.3,0.1-0.4,0.2c-0.1,0.1-0.3,0.2-0.4,0.3c0,0,0,0-0.1,0c0-0.2,0.1-0.5,0.2-0.8c0.1-0.4,0.3-0.8,0.6-1.2
		c0.1-0.2,0.3-0.4,0.5-0.6c0.2-0.2,0.4-0.3,0.6-0.5c0.2-0.1,0.5-0.3,0.7-0.4l0.2-0.1c0.1,0,0.1,0,0.2-0.1c0.1,0,0.1,0,0.2-0.1
		c0.1,0,0.1,0,0.2-0.1c0.3-0.1,0.5-0.1,0.8-0.2c0.2,0,0.5-0.1,0.7-0.1c0.2,0,0.4,0,0.6,0c0.2,0,0.3,0,0.5,0c0.3,0,0.4,0,0.4,0
		s-0.1,0-0.4-0.1c-0.1,0-0.3-0.1-0.5-0.1c-0.2,0-0.4-0.1-0.6-0.1c-0.2,0-0.5,0-0.7,0c-0.3,0-0.5,0-0.8,0c-0.1,0-0.1,0-0.2,0
		c-0.1,0-0.1,0-0.2,0c-0.1,0-0.1,0-0.2,0c-0.1,0-0.1,0-0.2,0.1c-0.3,0.1-0.6,0.2-0.9,0.3c-0.3,0.1-0.6,0.3-0.8,0.5
		c-0.3,0.2-0.5,0.4-0.7,0.6c-0.3,0.3-0.5,0.6-0.7,0.9l-0.2-1.6l2.5-3.8c0.2-0.2-0.1-0.5-0.4-0.3l-2.5,2.1l-4.4-7.8c0,0,0,0,0,0
		c0,0,0-0.1,0-0.1c0-0.1-0.1-0.3-0.1-0.6c0-0.2,0-0.5,0-0.8c0-0.3,0.1-0.6,0.2-0.9c0.1-0.1,0.1-0.3,0.2-0.4c0.1-0.1,0.2-0.3,0.3-0.4
		c0.1-0.1,0.2-0.2,0.3-0.3c0.1-0.1,0.2-0.1,0.3-0.2c0.1-0.1,0.2-0.1,0.3-0.1c0.1,0,0.2-0.1,0.3-0.1l0.2,0c0,0-0.1,0-0.2,0
		c-0.1,0-0.2,0-0.3,0c-0.1,0-0.2,0-0.4,0c-0.1,0-0.3,0.1-0.4,0.1c-0.1,0.1-0.3,0.1-0.5,0.2c-0.2,0.1-0.3,0.2-0.4,0.3
		c-0.1,0.1-0.3,0.3-0.4,0.4c-0.2,0.3-0.4,0.6-0.5,0.9c-0.4-1.2-2.3-7.5,0.4-15.3c2.3,0.9,6.6,2.4,7.9,3.9c0.7,0.8,0.8,2.1,1.3,3.4
		c0.6,1.7-4.6,2.3-4.4,2.8c0.2,0.7,5.4,0.3,5.8,0.9c0.5,0.7,1,1.4,1.6,2.1c-0.1,0-0.1,0-0.2,0c-0.2,0-0.3,0-0.5,0l-0.2,0l-0.2,0
		c-0.2,0-0.3,0-0.5,0c-0.1,0-0.3,0-0.4,0c-0.3,0-0.6,0.1-0.8,0.1c-0.3,0.1-0.5,0.1-0.7,0.2c-0.2,0.1-0.4,0.1-0.6,0.2
		c-0.2,0.1-0.3,0.1-0.4,0.2c-0.2,0.1-0.4,0.2-0.4,0.2s0.1,0,0.4-0.1c0.1,0,0.3-0.1,0.5-0.1c0.2,0,0.4-0.1,0.6-0.1
		c0.2,0,0.5-0.1,0.7-0.1c0.3,0,0.5,0,0.8,0c0.1,0,0.3,0,0.4,0c0.1,0,0.3,0,0.4,0l0.2,0l0.2,0c0.1,0,0.3,0.1,0.4,0.1
		c0.3,0.1,0.5,0.2,0.8,0.3c0.2,0.1,0.4,0.2,0.6,0.3c0.2,0.2,0.3,0.4,0.5,0.6c1.1,1.2,2.2,2.4,3,3.7c1.3,1.9,2.5,3.2,3.7,4.4
		c0.8,0.8,1.6,1.5,2.4,2.5c0.2,0.3,0.4,0.7,0.6,1.1c0.1,0.4-6.7-1.1-6.7-0.6c0,0.5,7.6,3.7,8.1,4.5c0.6,0.8,1.1,1,1.5,1.2
		c0.3,0.1,0.6,0.3,0.9,0.6c0.9,1,1.4,2.3,1.5,3.5c0,0,0,0,0,0C146,104.5,145.5,103.6,144.9,102.8"/>
	<path id="XMLID_5_" class="st4" d="M90.9,45.1c0,0-0.9,0.3-1.5,0.4c0.5-4.5,0.4-9-0.5-13.5c0.5-0.2,1-0.5,1.4-0.7
		C91.3,36.2,91.5,40.2,90.9,45.1"/>
</g>
<path id="XMLID_188_" class="st4" d="M99.6,27.9c7,0,10.3,2.6,10.5,2.7l0.2,0.2l0,0.3c0,0.1-0.9,5.4-0.9,10.8c0,2.6,0.1,4.5,0.3,5.8
	c1.5-0.2,2.4-0.2,2.7-0.3c0.1,0,0.4,0,0.7,0c2.1,0,3.5,0.7,4,2c0.4,1,0,2.4-1.1,4.1c-0.7,1.1-1.5,2-1.5,2l0,0l0,0
	c-0.1,0.1-1.1,1.2-2.6,2c0,0,0,0.1,0.1,0.1c0.6,1,0.1,2.1,0,2.3c-0.8,2-1,4.9-1,4.9l0,0.1l0,0.1l0,0.1l0,0.1c-0.2,0.6-0.5,1-0.8,1.4
	l1.1,0c0,0,0.1,0,0.1,0c1.3,0,2.6,0.2,3.9,0.7l2.8,1.1l-0.1,0.3c3.5,1.3,7,2.7,8.4,4.3c0.9,1,1.2,2.5,1.6,3.9
	c0.3,1.2,0.6,2.4,1.2,3.3c0.8,1.3,1.9,2.5,3,3.7c0.2,0.2,0.3,0.3,0.5,0.5c0.4,0.3,0.6,0.6,0.8,0.8c0.1,0.1,0.2,0.2,0.2,0.3
	c0,0,0,0,0,0c0.6,0.7,1.1,1.4,1.6,2.2c1.2,1.8,2.3,2.9,3.5,4.1c0.8,0.8,1.6,1.6,2.4,2.6c0.7,0.8,1,1.8,1.2,2.8
	c0.2,0.8,0.4,1.6,0.8,2.1c0.4,0.5,0.6,0.6,0.9,0.8c0.4,0.2,0.8,0.4,1.4,1c1.6,1.8,2.3,4.6,1.6,6.8c-0.3,1.1-1,2-1.9,2.7
	c-0.7,1.1-1.7,2-2.7,2.6c-1.1,0.6-2.2,0.8-3.3,0.8c-1.4,0-2.6-0.4-2.8-0.5c-7.7-1.6-12.5-2-15.4-2c-2.6,0-3.7,0.4-4,0.5
	c-2.3,4.3-6,4.6-6.3,4.6l-3.9,0.3l0,0c-0.7,0-7.2-0.3-9.5-1.8c-0.3-0.2-0.6-0.5-0.8-0.8c-0.1-0.1-0.2-0.3-0.2-0.5
	c0,0.1-0.1,0.1-0.1,0.2c-0.1,0.2-0.1,0.3-0.2,0.5c-0.3,0.6-0.7,1.1-1.2,1.5c-1.2,1-2.6,1-2.7,1l-7.7-0.1l-0.2-0.1
	c-2.8-1.6-4.7-2.8-5-2.9c-0.6,0-6.3,0.5-8.9,1.7c-0.8,0.4-1.8,0.7-2.7,0.9c-0.1,0.1-0.3,0.2-0.5,0.3c-1.8,0.7-5.7,2.9-7.2,2.9
	c-0.1,0-0.3,0-0.4,0c-2.7-0.2-5.4-1.7-7.2-4c-1.7-2.1-2.5-4.6-2.3-6.9c0.1-1.3,0.7-2.5,1.2-3.7c0.5-1.2,0.9-2.3,1.1-3.4
	c0.1-0.9,0.2-1.8,0.2-2.6c0.1-1.3,0.2-2.6,0.4-3.9c0,0,0-0.1,0-0.1c0.3-1.4,0.7-2.7,1.6-4c1.2-1.8,2.6-3.4,3.9-5
	c1.4-1.7,2.9-3.5,4.2-5.4c0.4-0.7,0.9-1.6,1.4-2.6c1-2,2.1-4.3,3.5-5.5c0.7-0.6,2.4-2,8.3-3.9c0-0.1,0-0.2,0.1-0.2l0.5-0.2
	c0.1,0,0.4-0.1,0.6-0.2c1.5-0.6,4.5-1.8,6.8-1.8c0.3,0,0.6,0,0.9,0.1l0.1,0c-0.4-0.8-0.5-1.6-0.5-2.1c-0.2-2.2-1.2-4.1-1.2-4.1
	l-0.1-0.1l-0.1-0.2l0.1-0.2l0.2-0.8l-0.5-0.5l-0.7-0.7l0,0l0,0c0,0-0.9-1-1.6-2.1c-1.2-1.9-1.6-3.2-1.1-4.3c0.3-0.6,1-1.4,2.7-1.4
	c0.6,0,1.2,0.1,2,0.2c0.7,0.2,1.6,0.3,2.4,0.4c0.4-1.8,0.9-4.6,1-7.7c0.1-5.3,0-5.8-0.7-9.7l-0.2-1l0.3-0.2c0.2-0.1,5-3.3,12.5-3.5
	C99.1,27.9,99.3,27.9,99.6,27.9 M99.6,26.7L99.6,26.7c-0.2,0-0.5,0-0.7,0c-7.8,0.2-12.9,3.5-13.2,3.7l-0.3,0.2L84.8,31l0.1,0.8
	l0.2,1c0.7,3.8,0.7,4.2,0.7,9.4c0,2.1-0.3,4.3-0.7,6.4c-0.4-0.1-0.8-0.1-1.2-0.2c-0.8-0.2-1.6-0.3-2.2-0.3c-2.4,0-3.4,1.3-3.7,2.1
	c-0.9,1.9,0.3,4,1.2,5.4c0.8,1.2,1.6,2.1,1.7,2.3l0.7,0.8l0,0.1L81.4,59l-0.2,0.5l0.2,0.4l0.1,0.2l0.1,0.1c0,0,0.9,1.7,1,3.6
	c0,0.3,0,0.5,0.1,0.8c-2.3,0.2-5.1,1.3-6.6,1.9c-0.2,0.1-0.5,0.2-0.5,0.2L75.2,67c-0.2,0.1-0.5,0.2-0.6,0.4
	c-5.7,1.9-7.4,3.3-8.2,3.9c-1.6,1.3-2.8,3.7-3.8,5.9c-0.5,1-0.9,1.9-1.3,2.5c-1.2,1.8-2.6,3.6-4.1,5.2c-1.4,1.6-2.8,3.3-4,5.1
	c-0.8,1.2-1.3,2.4-1.7,3.9l-0.2,1.1c-0.2,1.2-0.3,2.4-0.3,3.5c-0.1,0.8-0.1,1.7-0.2,2.5c-0.1,1-0.5,2-1,3.1c-0.5,1.3-1.1,2.6-1.2,4
	c-0.3,2.7,0.6,5.5,2.5,7.8c2.1,2.5,5.1,4.1,8.1,4.4c0.2,0,0.3,0,0.5,0c1.2,0,3-0.8,5.5-2c0.8-0.4,1.6-0.8,2.2-1
	c0.2-0.1,0.4-0.2,0.6-0.3c1-0.3,1.9-0.6,2.7-1c1.9-0.9,5.9-1.4,8.2-1.6c0.3,0.2,1,0.6,1.7,1c0.8,0.5,1.8,1.1,2.9,1.7l0.2,0.1
	l0.3,0.2l0.3,0l7.7,0.1c0.2,0,1.9-0.1,3.4-1.3c0.3-0.3,0.6-0.6,0.9-0.9c0.1,0,0.1,0.1,0.2,0.1c2.5,1.7,8.9,2,10.1,2l0.1,0l0.1,0
	l3.9-0.3c0.4,0,4.4-0.3,7.1-4.8c0.5-0.1,1.4-0.3,3.2-0.3c2.5,0,7.2,0.3,15.1,2c0.4,0.1,1.7,0.5,3.1,0.5c1.5,0,2.8-0.3,3.9-1
	c1.3-0.8,2.3-1.7,3-2.8c1-0.8,1.8-1.9,2.1-3.1c0.8-2.6,0.1-5.8-1.9-7.9c-0.7-0.8-1.3-1.1-1.7-1.3c-0.3-0.1-0.3-0.1-0.5-0.4
	c-0.3-0.4-0.5-1-0.6-1.7c-0.3-1.1-0.6-2.3-1.5-3.3c-0.9-1-1.7-1.9-2.5-2.7c-1.2-1.2-2.3-2.2-3.4-3.9c-0.5-0.7-1-1.4-1.7-2.2
	c-0.1-0.1-0.1-0.2-0.2-0.3c-0.3-0.3-0.6-0.7-0.9-1l-0.3-0.4l-0.1-0.1c-1.1-1.2-2.1-2.3-2.9-3.5c-0.5-0.7-0.7-1.8-1-2.9
	c-0.4-1.5-0.8-3.2-1.8-4.4c-1.4-1.7-4.4-2.9-7.8-4.2l0.1-0.3l-1.1-0.4l-2.8-1.1c-1.1-0.4-2.3-0.7-3.5-0.8l0.1-0.3l-1.2-0.2l1.2,0.1
	c0,0,0.1-2.7,0.9-4.5c0.3-0.6,0.4-1.4,0.3-2.3c1.2-0.8,2-1.6,2-1.7c0.1-0.1,0.9-1,1.7-2.2c1.4-2.1,1.8-3.8,1.2-5.2
	c-0.7-1.8-2.5-2.8-5.1-2.8c-0.4,0-0.7,0-0.8,0h0c-0.1,0-0.6,0-1.5,0.1c-0.1-1.4-0.2-2.9-0.2-4.5c0-5.1,0.9-10.4,0.9-10.6l0-0.3
	l0.1-0.7l-0.5-0.4l-0.2-0.2C110.4,29.3,106.9,26.7,99.6,26.7L99.6,26.7z"/>
</svg>
