<?xml version="1.0" encoding="utf-8"?>
<!-- Generator: Adobe Illustrator 19.0.0, SVG Export Plug-In . SVG Version: 6.00 Build 0)  -->
<svg version="1.1" id="Layer_1" xmlns="http://www.w3.org/2000/svg" xmlns:xlink="http://www.w3.org/1999/xlink" x="0px" y="0px"
	 viewBox="0 0 200 200" style="enable-background:new 0 0 200 200;" xml:space="preserve">
<g id="XMLID_3_">
</g>
<g id="XMLID_1_">
	<path id="XMLID_121_" d="M61.7,63.3c0-2.2,0-4.5,0-6.5c0-1.3,0.3-2.2,0.5-3.2c1.5-4,5.3-6.8,9.5-6.8c4.5,0,8.8,0,13.2,0
		c20,0,40.3,0,60.3,0c5,0,9,3.2,10,8c0.3,0.7,0.3,1.5,0.3,2.2c0,27.8,0,55.5,0,83.5c0,6.8-4.5,12-11,13.2c-0.7,0.3-1.8,0.3-2.8,0.3
		c-26.5,0-53.2,0-79.7,0c-6.5,0-12-4.3-13.2-10.3c-0.3-1-0.3-2-0.3-3c0-22.2,0-44.5,0-67c0-5.7,4.5-10.3,10.3-10.3
		C59.8,63.3,60.8,63.3,61.7,63.3z M61.7,70.3c-1.3,0-2.5,0-3.8,0s-2,0.7-2.5,1.8c-0.3,0.5-0.5,1.3-0.5,2c0,22,0,44.3,0,66.2
		c0,0.3,0,0.5,0,0.7c0,1.3,0.5,2.5,1.3,3.5c1.5,2,3.5,3,6,3c26.5,0,53,0,79.5,0c0.3,0,0.3,0,0.5,0c3.8,0,6.8-3,6.8-6.8
		c0-27.8,0-55.7,0-83.5c0-0.3,0-0.5,0-0.7c-0.3-1.5-1.8-2.5-3.5-2.8c-3,0-5.7,0-8.8,0c-21.5,0-43,0-64.5,0c-0.5,0-1,0-1.5,0.3
		c-1.5,0.5-2.2,1.8-2.2,3.5c0,26.5,0,53,0,79.5c0,0.3,0,0.7,0,1c-0.3,1.3-0.7,2.3-2,2.8s-2.2,0.3-3.5-0.5c-1-0.7-1.3-1.8-1.3-3
		c0-22,0-44,0-66C61.7,70.6,61.7,70.6,61.7,70.3z"/>
	<path id="XMLID_104_" d="M75.2,75.3c0-3.8,0-7.8,0-11.5c0-2.2,1.5-3.5,3.5-3.5c7.8,0,15.3,0,23,0c2.2,0,3.5,1.5,3.5,3.5
		c0,7.8,0,15.3,0,23c0,2.2-1.5,3.5-3.5,3.5c-7.8,0-15.3,0-23,0c-2.2,0-3.5-1.5-3.5-3.5C75.2,82.8,75.2,79.1,75.2,75.3z M98.8,66.8
		c-5.5,0-11.3,0-16.8,0c0,5.5,0,11,0,16.8c5.5,0,11,0,16.8,0C98.8,78.1,98.8,72.6,98.8,66.8z"/>
	<path id="XMLID_103_" d="M108.8,110.3c-10.5,0-21,0-31.5,0c-0.3,0-0.7,0-1,0c-0.7-0.3-1.3-1-1-1.8c0-0.7,0.7-1.3,1.5-1.5
		c0.3,0,0.5,0,0.7,0c21,0,42,0,63,0c1.3,0,1.8,0.5,2,1.3c0.3,1-0.5,2-1.5,2c-0.3,0-0.5,0-0.5,0C129.8,110.3,119.2,110.3,108.8,110.3
		z"/>
	<path id="XMLID_102_" d="M108.8,100.3c-10.5,0-21,0-31.5,0c-1,0-1.8-0.5-2-1.5c0-1,0.5-1.8,1.5-1.8c0.3,0,0.5,0,0.5,0
		c21,0,42,0,63,0c1,0,1.8,0.5,2,1.3c0.3,1-0.5,2-1.5,2c-0.3,0-0.3,0-0.5,0C129.8,100.3,119.2,100.3,108.8,100.3z"/>
	<path id="XMLID_101_" d="M127.3,137.1c4.5,0,8.8,0,13.2,0c1,0,1.5,0.5,1.8,1.3c0.3,1-0.3,2-1.5,2.3c-0.3,0-0.3,0-0.5,0
		c-8.8,0-17.5,0-26.3,0c-1,0-1.5-0.3-1.8-1c-0.5-1,0.3-2.2,1.5-2.2c0.5,0,1,0,1.5,0C119,137.1,123,137.1,127.3,137.1z"/>
	<path id="XMLID_100_" d="M127.3,86.8c4.3,0,8.5,0,13,0c0.3,0,0.3,0,0.5,0c1,0,1.8,0.7,1.8,1.8c0,0.7-0.7,1.5-1.5,1.8
		c-0.3,0-0.3,0-0.5,0c-8.8,0-17.2,0-26,0c-0.3,0-0.5,0-0.7,0c-1.3-0.5-1.8-1.3-1.8-2s0.7-1.5,1.5-1.5c0.3,0,0.3,0,0.5,0
		C118.5,86.8,122.7,86.8,127.3,86.8z"/>
	<path id="XMLID_99_" d="M127.3,76.8c4.5,0,8.8,0,13.2,0c1,0,1.5,0.5,1.8,1.3c0.3,1-0.3,1.8-1.3,2c-0.3,0-0.3,0-0.5,0
		c-8.8,0-17.8,0-26.5,0c-1.3,0-2-1-1.8-2.2c0.3-0.7,0.7-1.3,1.8-1.3c1.5,0,3.2,0,4.7,0C121.5,76.8,124.2,76.8,127.3,76.8z"/>
	<path id="XMLID_98_" d="M90.2,130.6c-4.3,0-8.8,0-13,0c-0.3,0-0.5,0-0.7,0c-0.7-0.3-1.5-1-1.3-1.8c0-0.7,0.7-1.5,1.5-1.5H77
		c8.8,0,17.5,0,26.3,0c1,0,1.8,0.5,1.8,1.5c0.3,0.7-0.5,1.8-1.3,2c-0.3,0-0.5,0-0.7,0C99,130.6,94.8,130.6,90.2,130.6z"/>
	<path id="XMLID_97_" d="M127,126.8c4.5,0,8.8,0,13.2,0c1.3,0,2,1,1.8,2.2c-0.3,0.5-0.5,1-1.3,1.3c-0.3,0-0.5,0-0.7,0
		c-8.8,0-17.5,0-26,0c-0.3,0-0.5,0-1,0c-0.7-0.3-1.3-1-1.3-1.8c0-0.8,0.7-1.5,1.5-1.5c0.3,0,0.5,0,0.5,0
		C118.5,126.8,122.7,126.8,127,126.8z"/>
	<path id="XMLID_96_" d="M90.2,140.6c-4.5,0-8.8,0-13.2,0c-1,0-1.8-0.5-1.8-1.5c-0.3-1,0.5-1.8,1.5-2c0.3,0,0.3,0,0.5,0
		c8.8,0,17.5,0,26.3,0c1,0,1.8,0.5,1.8,1.3c0.3,1-0.5,2.3-1.8,2.3c-1.5,0-2.8,0-4.3,0C96.5,140.6,93.3,140.6,90.2,140.6z"/>
	<path id="XMLID_95_" d="M127,120.6c-4.5,0-8.8,0-13.2,0c-1,0-1.5-0.5-1.8-1.3c-0.3-1,0.5-2,1.5-2c0.3,0,0.3,0,0.5,0
		c8.8,0,17.5,0,26.3,0c1,0,1.8,0.5,2,1.3c0.3,1-0.5,1.8-1.5,2c-0.3,0-0.5,0-0.7,0C135.8,120.6,131.5,120.6,127,120.6z"/>
	<path id="XMLID_94_" d="M90.2,116.8c4.5,0,8.8,0,13.2,0c1,0,1.8,0.5,1.8,1.5c0.3,1-0.5,1.8-1.5,1.8c-0.3,0-0.5,0-0.7,0
		c-8.8,0-17.5,0-26,0c-0.3,0-0.5,0-0.7,0c-0.7-0.3-1.3-1-1.3-1.8c0-0.7,0.7-1.5,1.5-1.5c0.3,0,0.5,0,0.5,0
		C81.7,116.8,86,116.8,90.2,116.8z"/>
	<path id="XMLID_93_" d="M127.3,66.8c4.5,0,8.8,0,13.2,0c1,0,1.8,0.5,1.8,1.3c0.3,1-0.5,1.8-1.3,2c-0.3,0-0.3,0-0.5,0
		c-8.8,0-17.5,0-26.3,0c-1,0-1.5-0.5-1.8-1.3c-0.3-1,0.5-2,1.5-2.2c0.7,0,1.3,0,2,0C119.2,66.8,123.3,66.8,127.3,66.8z"/>
</g>
<g id="XMLID_30_">
</g>
</svg>
