<?xml version="1.0" encoding="utf-8"?>
<!-- Generator: Adobe Illustrator 19.0.0, SVG Export Plug-In . SVG Version: 6.00 Build 0)  -->
<svg version="1.1" id="Layer_1" xmlns="http://www.w3.org/2000/svg" xmlns:xlink="http://www.w3.org/1999/xlink" x="0px" y="0px"
	 viewBox="0 0 200 200" style="enable-background:new 0 0 200 200;" xml:space="preserve">
<g id="XMLID_3_">
</g>
<g id="XMLID_30_">
</g>
<g id="XMLID_1_">
</g>
<g id="XMLID_38_">
</g>
<path d="M63.5,142.3c0.2-1.2,0.5-2.9,0.7-4.5c1.1-6.4,2.1-12.8,3.2-19.3c0.3-1.7,0.6-3.5,0.9-5.2c0.1-0.5,0-0.8-0.4-1.1
	c-6.7-6.7-13.4-13.4-20.2-20.1c-1.5-1.5-2.3-3.2-2.4-5.3c-0.1-3.9,2.8-7.2,6.6-7.8c9.3-1.4,18.7-2.8,28-4.2c0.4-0.1,0.6-0.3,0.7-0.6
	c4-8.3,8-16.6,12-24.9c1.3-2.6,3.3-4.2,6.3-4.6c3.6-0.5,6.7,1.3,8.2,4.5c2.4,5,4.8,10,7.2,15c1.6,3.3,3.2,6.6,4.8,9.9
	c0.2,0.4,0.4,0.6,0.8,0.6c8.4,1.2,16.7,2.5,25,3.7c1,0.2,2,0.2,3.1,0.5c3,0.6,5.2,2.4,6.1,5.4c0.9,2.9,0.1,5.5-2.1,7.7
	c-6.7,6.7-13.4,13.4-20.1,20.1c-0.4,0.4-0.5,0.8-0.4,1.3c1.4,8.2,2.8,16.5,4.1,24.7c0.2,1.2,0.5,2.4,0.6,3.7c0.3,3-0.8,5.5-3.3,7.2
	c-2.6,1.8-5.5,1.9-8.3,0.4c-4.6-2.4-9.2-4.9-13.8-7.4c-3.5-1.9-7-3.7-10.4-5.6c-0.4-0.2-0.7-0.2-1.1,0c-8,4.3-16,8.6-23.9,12.9
	c-3.3,1.7-6.9,1.3-9.5-1C64.4,146.8,63.6,145,63.5,142.3z M128.6,142.7c-0.4-2.3-0.8-4.5-1.1-6.7c-1.2-7-2.3-13.9-3.5-20.9
	c-0.6-3.4,0.2-6.2,2.7-8.6c6.6-6.4,13-12.9,19.5-19.4c0.2-0.2,0.3-0.4,0.6-0.6c-0.3-0.1-0.5-0.1-0.7-0.1c-2.7-0.4-5.4-0.8-8-1.2
	c-6.2-0.9-12.5-1.9-18.7-2.8c-3.5-0.5-5.8-2.2-7.3-5.4c-3.8-8.1-7.7-16-11.6-24.1c-0.1-0.2-0.2-0.4-0.3-0.7
	c-0.1,0.3-0.2,0.5-0.3,0.6c-4,8.3-8,16.5-11.9,24.8c-1.2,2.4-3.1,3.9-5.8,4.4c-2.3,0.4-4.6,0.7-6.9,1.1c-5.2,0.8-10.4,1.6-15.6,2.3
	c-2,0.3-4,0.6-6.1,0.9c0.2,0.2,0.4,0.4,0.6,0.6c6.7,6.7,13.4,13.4,20.1,20.1c1.7,1.7,2.5,3.8,2.3,6.2c-0.1,1-0.3,2-0.5,3
	c-1.3,7.7-2.6,15.4-3.9,23.2c-0.2,1-0.3,2-0.5,3.2c0.3-0.2,0.5-0.2,0.7-0.3c7.9-4.3,15.8-8.5,23.7-12.8c2.8-1.5,5.6-1.5,8.4,0
	c6.8,3.7,13.5,7.3,20.3,10.9C125.8,141.3,127.1,142,128.6,142.7z"/>
</svg>
