<?xml version="1.0" encoding="utf-8"?>
<!-- Generator: Adobe Illustrator 19.0.0, SVG Export Plug-In . SVG Version: 6.00 Build 0)  -->
<svg version="1.1" id="Layer_1" xmlns="http://www.w3.org/2000/svg" xmlns:xlink="http://www.w3.org/1999/xlink" x="0px" y="0px"
	 viewBox="0 0 200 200" style="enable-background:new 0 0 200 200;" xml:space="preserve">
<g id="XMLID_3_">
</g>
<g id="XMLID_30_">
</g>
<g id="XMLID_1_">
</g>
<g id="XMLID_38_">
</g>
<g>
	<path d="M97.6,135.6c-0.2,0.6-0.4,1.2-0.7,1.8c-2.3,5.6-7.6,8.9-13.6,8.4c-5.2-0.4-9.9-4.3-11.5-9.6c-0.2-0.6-0.4-0.7-1-0.7
		c-1.7,0-3.4,0.1-5-0.2c-4.6-0.8-8-5-8.1-9.6c-0.1-3.3,0-6.7,0-10c0-0.2,0-0.5,0-0.7c-0.8-0.1-1.6-0.2-2.3-0.4
		c-4.6-1.1-7.8-5.2-7.8-10.1c0-10.8,0-21.5,0-32.3c0-1.9,0-3.8,0-5.7c0-4.8,3.3-8.9,8.1-10c0.8-0.2,1.6-0.2,2.4-0.2
		c16.6,0,33.3,0,49.9,0c5.4,0,10.4,4.2,10.4,10.4c0,2,0,4.1,0,6.1c0,0.2,0,0.4,0,0.7c0.3,0,0.6,0,0.8,0c4.1,0,8.2,0,12.3,0
		c3.9,0,6.9,1.6,9,4.8c4.4,6.7,8.7,13.4,13.1,20c1.3,2,1.9,4.1,1.9,6.5c0,6.8,0,13.6,0,20.3c0,4.7-3.2,8.9-7.8,9.9
		c-1.6,0.4-3.3,0.3-4.9,0.3c-1.2,0-1.2,0-1.6,1.2c-2.1,6-7.7,9.6-13.9,9.1c-5.2-0.4-9.9-4.3-11.6-9.6c-0.1-0.2-0.1-0.4-0.2-0.6
		C109.4,135.6,103.5,135.6,97.6,135.6z M82.8,63.3c-8.4,0-16.7,0-25.1,0c-2.1,0-3.6,1.4-3.6,3.6c0,12.5,0,25,0,37.5
		c0,0.3,0,0.6,0.1,0.9C54.7,107,56,108,58,108c16.6,0,33.1,0,49.7,0c2.5,0,3.9-1.4,3.9-3.9c0-12.3,0-24.6,0-37
		c0-2.2-1.4-3.9-3.9-3.9C99.4,63.3,91.1,63.3,82.8,63.3z M64.4,114.9c0,0.2,0,0.4,0,0.5c0,3.3,0,6.5,0,9.8c0,2.1,1.5,3.5,3.5,3.5
		c1,0,1.9,0,2.9,0c0.6,0,0.8-0.1,1-0.7c1.7-5.5,6.4-9.2,12.1-9.6c5.2-0.3,10.4,2.8,12.7,7.8c0.4,0.8,0.7,1.7,1,2.5
		c0.2,0,0.4,0,0.6,0c5.4,0,10.9,0,16.3,0c0.6,0,0.8-0.2,1-0.7c2-6.6,8.4-10.7,15.2-9.4c5.3,1,8.7,4.4,10.4,9.5
		c0.2,0.5,0.4,0.7,0.9,0.6c0.9,0,1.8,0,2.8,0c2.4,0,3.8-1.4,3.8-3.8c0-6.6,0-13.3,0-19.9c0-1-0.3-1.8-0.8-2.6
		c-4.3-6.6-8.7-13.3-13-19.9c-0.9-1.3-2-1.9-3.5-1.9c-4.1,0-8.2,0-12.3,0c-0.2,0-0.4,0-0.7,0c0,0.3,0,0.6,0,0.8c0,7.6,0,15.3,0,22.9
		c0,0.9-0.1,1.9-0.3,2.8c-1.1,4.8-5.2,7.9-10.2,7.9c-14.2,0-28.3,0-42.5,0C65,114.9,64.7,114.9,64.4,114.9z M91.3,132.1
		c0-3.8-3-6.9-6.7-6.9c-3.7,0-6.8,3.1-6.8,6.9c0,3.8,3,6.9,6.7,6.9C88.2,139,91.2,135.9,91.3,132.1z M135.1,132.1
		c0-3.8-3-6.9-6.7-6.9c-3.7,0-6.8,3.1-6.8,6.9c0,3.8,3,6.9,6.7,6.9C132,139,135,135.9,135.1,132.1z"/>
	<path d="M121.6,97.7c0-3.4,0-6.7,0-10.1c0-2.3,1.4-3.7,3.7-3.7c1,0,2,0,3,0c1.2,0,2.2,0.5,2.8,1.5c3.4,5.2,6.8,10.3,10.1,15.5
		c0.3,0.5,0.5,1.2,0.6,1.9c0.1,1.7,0,3.5,0,5.2c0,2-1.5,3.4-3.4,3.4c-4.4,0-8.8,0-13.3,0c-2.1,0-3.5-1.4-3.5-3.5
		C121.6,104.5,121.6,101.1,121.6,97.7z M125,87.4c0,6.9,0,13.7,0,20.6c4.5,0,8.9,0,13.4,0c0-1.7,0-3.4,0-5c0-0.1-0.1-0.3-0.2-0.4
		c-3.2-5-6.5-9.9-9.7-14.9c-0.1-0.2-0.3-0.3-0.5-0.3C127,87.3,126.1,87.4,125,87.4z"/>
</g>
</svg>
