<?xml version="1.0" encoding="utf-8"?>
<!-- Generator: Adobe Illustrator 19.0.0, SVG Export Plug-In . SVG Version: 6.00 Build 0)  -->
<svg version="1.1" id="Layer_1" xmlns="http://www.w3.org/2000/svg" xmlns:xlink="http://www.w3.org/1999/xlink" x="0px" y="0px"
	 viewBox="0 0 200 200" style="enable-background:new 0 0 200 200;" xml:space="preserve">
<g id="XMLID_3_">
</g>
<g id="XMLID_30_">
</g>
<g id="XMLID_1_">
</g>
<g id="XMLID_38_">
</g>
<g>
	<path d="M101.2,152.7c-14.6,0-29.1,0-43.7,0c-5.1,0-9.2-3.3-10.2-8.3c-0.1-0.7-0.2-1.4-0.2-2.1c0-27.1,0-54.3,0-81.4
		c0-5.8,4.5-10.3,10.3-10.3c23.5,0,47.1,0,70.6,0c2,0,3.7,0.7,5.1,2.1c6.7,6.7,13.4,13.4,20,20.2c1.4,1.4,2.1,3.1,2.1,5.1
		c0,21.4,0,42.8,0,64.3c0,5.2-3.4,9.3-8.4,10.2c-0.7,0.1-1.5,0.2-2.2,0.2C130.2,152.7,115.7,152.7,101.2,152.7z M124.9,57.4
		c-0.3,0-0.4,0-0.6,0c-22.3,0-44.5,0-66.8,0c-2.2,0-3.6,1.4-3.6,3.6c0,27.1,0,54.2,0,81.2c0,2.2,1.4,3.6,3.6,3.6
		c29.2,0,58.3,0,87.5,0c2.2,0,3.6-1.4,3.6-3.6c0-20.1,0-40.2,0-60.2c0-0.2,0-0.4,0-0.7c-0.3,0-0.6,0-0.8,0c-4.2,0-8.3,0-12.5,0
		c-0.6,0-1.2,0-1.8-0.1c-5.1-0.9-8.6-5-8.6-10.2c0-4.2,0-8.5,0-12.7C124.9,57.9,124.9,57.7,124.9,57.4z M128.2,57.7c0,0,0,0.2,0,0.4
		c0,4.3,0,8.5,0,12.8c0,3.9,2.9,6.9,6.8,6.9c4.3,0,8.5,0,12.8,0c0.2,0,0.3,0,0.5,0c0-0.1,0.1-0.1,0.1-0.2
		C141.7,71,134.9,64.3,128.2,57.7z"/>
	<path d="M75.8,67.6c3.8,0,7.6,0,11.5,0c2.4,0,3.7,1.4,3.7,3.7c0,6.6,0,13.2,0,19.8c0,2.2-1.4,3.6-3.6,3.6c-7.7,0-15.4,0-23.2,0
		c-2.2,0-3.6-1.4-3.6-3.6c0-6.7,0-13.3,0-20c0-2.2,1.4-3.6,3.6-3.6C68.1,67.6,72,67.6,75.8,67.6z M84.2,74.5c-5.7,0-11.3,0-16.8,0
		c0,4.5,0,9,0,13.5c5.6,0,11.2,0,16.8,0C84.2,83.5,84.2,79,84.2,74.5z"/>
	<path d="M101.2,105c-12.7,0-25.5,0-38.2,0c-0.3,0-0.6,0-0.9,0c-0.8-0.1-1.4-0.8-1.4-1.6c0-0.8,0.5-1.6,1.3-1.7
		c0.3-0.1,0.5-0.1,0.8-0.1c25.6,0,51.3,0,76.9,0c0.3,0,0.6,0,0.9,0.1c0.8,0.2,1.3,0.9,1.3,1.7c0,0.8-0.6,1.4-1.4,1.6
		c-0.3,0.1-0.7,0.1-1,0.1C126.7,105,113.9,105,101.2,105z"/>
	<path d="M101.2,111.8c12.7,0,25.5,0,38.2,0c0.3,0,0.5,0,0.8,0c0.9,0.1,1.6,0.8,1.6,1.7c0,0.9-0.7,1.6-1.6,1.7c-0.2,0-0.4,0-0.6,0
		c-25.6,0-51.2,0-76.8,0c-0.4,0-0.8,0-1.1-0.1c-0.7-0.2-1.2-1-1.1-1.8c0.1-0.8,0.7-1.4,1.6-1.5c0.2,0,0.5,0,0.8,0
		C75.7,111.8,88.4,111.8,101.2,111.8z"/>
	<path d="M101.2,132.3c12.7,0,25.5,0,38.2,0c0.3,0,0.5,0,0.8,0c0.9,0.1,1.6,0.7,1.6,1.6c0,0.9-0.6,1.7-1.5,1.8c-0.2,0-0.5,0-0.7,0
		c-25.6,0-51.2,0-76.8,0c-0.4,0-0.7,0-1-0.1c-0.8-0.2-1.2-1-1.1-1.8c0.1-0.8,0.7-1.4,1.6-1.5c0.2,0,0.5,0,0.8,0
		C75.7,132.3,88.4,132.3,101.2,132.3z"/>
	<path d="M101.1,125.4c-12.7,0-25.4,0-38.1,0c-0.3,0-0.6,0-0.9,0c-0.8-0.1-1.4-0.7-1.4-1.5c-0.1-0.8,0.4-1.6,1.2-1.8
		c0.3-0.1,0.6-0.1,0.9-0.1c25.7,0,51.4,0,77,0c1.1,0,1.7,0.4,2,1.2c0.3,1-0.3,2-1.3,2.2c-0.3,0.1-0.7,0-1,0
		C126.6,125.4,113.9,125.4,101.1,125.4z"/>
	<path d="M119.8,91.4c6.6,0,13.2,0,19.7,0c0.2,0,0.5,0,0.7,0c0.9,0.1,1.6,0.8,1.6,1.6c0,0.9-0.6,1.6-1.6,1.7c-0.2,0-0.4,0-0.6,0
		c-13.2,0-26.4,0-39.6,0c-0.2,0-0.5,0-0.7,0c-0.9-0.1-1.5-0.8-1.5-1.7c0-0.9,0.7-1.6,1.6-1.7c0.2,0,0.5,0,0.7,0
		C106.6,91.4,113.2,91.4,119.8,91.4z"/>
	<path d="M107.9,84.6c-2.6,0-5.3,0-7.9,0c-0.3,0-0.6,0-0.9-0.1c-0.8-0.2-1.3-0.9-1.3-1.7c0-0.8,0.5-1.4,1.3-1.6
		c0.3-0.1,0.6-0.1,0.9-0.1c5.3,0,10.7,0,16,0c0.3,0,0.6,0,0.9,0.1c0.8,0.2,1.3,0.9,1.3,1.7c0,0.8-0.5,1.4-1.3,1.6
		c-0.3,0.1-0.6,0.1-0.9,0.1C113.2,84.6,110.6,84.6,107.9,84.6z"/>
	<path d="M107.9,74.4c-2.7,0-5.5,0-8.2,0c-1.2,0-2-0.7-1.9-1.7c0-1,0.8-1.7,1.9-1.7c5.5,0,11,0,16.5,0c1,0,1.7,0.6,1.8,1.5
		c0.1,0.8-0.4,1.6-1.2,1.8c-0.3,0.1-0.5,0.1-0.8,0.1C113.4,74.4,110.7,74.4,107.9,74.4z"/>
</g>
</svg>
