<?xml version="1.0" encoding="utf-8"?>
<!-- Generator: Adobe Illustrator 19.0.0, SVG Export Plug-In . SVG Version: 6.00 Build 0)  -->
<svg version="1.1" id="Layer_1" xmlns="http://www.w3.org/2000/svg" xmlns:xlink="http://www.w3.org/1999/xlink" x="0px" y="0px"
	 viewBox="0 0 200 200" style="enable-background:new 0 0 200 200;" xml:space="preserve">
<g id="XMLID_3_">
</g>
<g id="XMLID_30_">
</g>
<g id="XMLID_1_">
</g>
<g id="XMLID_38_">
</g>
<g>
	<path d="M100.1,50.4c11.6,0,23.1,0,34.7,0c4.9,0,8.9,3.1,10,7.8c0.2,0.9,0.3,1.8,0.3,2.7c0,9.8,0,19.7,0,29.5
		c0,0.5,0.1,0.8,0.5,1.1c5.6,4.6,8.9,10.4,9.5,17.7c0.7,9.1-2.6,16.5-9.6,22.3c-0.2,0.2-0.4,0.5-0.4,0.8c-0.1,2,0.1,4-0.1,6.1
		c-0.7,7.6-4.7,12.9-11.7,15.9c-2.2,0.9-4.5,1.3-6.9,1.3c-20.3,0-40.5,0-60.8,0c-9.3,0-17.3-7-18.4-16.3c-0.1-0.9-0.1-1.7-0.1-2.6
		c0-22.4,0-44.8,0-67.2c0-8.8,5.6-16.2,13.9-18.3c1.6-0.4,3.4-0.6,5.1-0.6C77.4,50.4,88.8,50.4,100.1,50.4z M53.8,83.5
		c0,0.3,0,0.5,0,0.7c0,17.4,0,34.9,0,52.3c0,0.8,0,1.5,0.2,2.3c1.1,5.9,5.9,9.9,11.9,9.9c5.8,0,11.6,0,17.4,0c14.4,0,28.8,0,43.2,0
		c5.6,0,10.4-3.8,11.6-9.3c0.5-2.5,0.3-5,0.3-7.5c0,0-0.1-0.1-0.1-0.1c-0.2,0-0.5,0-0.8,0c-9.8,0-19.5,0-29.3,0c-1,0-2,0-2.9-0.2
		c-8.9-1.5-14.8-9.2-14.2-18.1c0.7-8.6,7.9-15.5,16.6-15.5c9.9,0,19.9,0,29.8,0c0.3,0,0.5,0,0.8,0c0-2.5,0.1-5,0-7.4
		c-0.1-1.2-0.9-2.1-2-2.5c-0.6-0.2-1.2-0.3-1.8-0.3c-22.9,0-45.7,0-68.6,0c-4.3,0-8.2-1.3-11.6-3.9C54.2,83.7,54,83.6,53.8,83.5z
		 M144.8,100.2c-1.5,3.3-4,4.5-7.4,4.5c-9.7-0.1-19.4,0-29.2,0c-0.9,0-1.8,0.1-2.7,0.3c-5.1,1.3-8.3,6-7.6,11.2
		c0.6,4.9,4.9,8.8,10.1,8.8c11.4,0,22.9,0,34.3,0c0.3,0,0.7-0.2,0.9-0.4c5.2-5.5,6.6-11.8,4.5-19
		C147.1,103.6,146.1,101.8,144.8,100.2z M57.2,77.3c0-0.4,0-0.6,0-0.8c0-4,0-8,0-12c0-2.5,1.4-3.9,3.9-3.9c23.4,0,46.7,0,70.1,0
		c2.3,0,3.9,1.5,3.9,3.9c-0.1,5.2,0,10.5,0,15.7c0,0.2,0,0.5,0,0.7c1.2,0.2,2.2,0.4,3.4,0.6c0-0.1,0-0.3,0-0.4c0-6.8,0-13.6,0-20.4
		c0-2.1-1.5-3.5-3.6-3.5c-23.1,0-46.1,0-69.2,0c-3.9,0-7.1,1.7-9.5,4.8C52.7,66.6,53.1,73.3,57.2,77.3z M60.6,67.3
		c23.7,0,47.3,0,71,0c0-1.1,0-2.2,0-3.3c-23.7,0-47.3,0-71,0C60.6,65.1,60.6,66.2,60.6,67.3z M60.6,74.1c23.7,0,47.3,0,71,0
		c0-1.1,0-2.2,0-3.3c-23.7,0-47.3,0-71,0C60.6,71.9,60.6,73,60.6,74.1z M131.6,77.6c-23.7,0-47.3,0-71,0c0,0.6,0,1.2,0,1.7
		c0,0.4,0.1,0.5,0.4,0.6c1.6,0.7,3.3,1,5,1c21.6,0,43.3,0,64.9,0c0.2,0,0.4,0,0.7,0C131.6,79.7,131.6,78.7,131.6,77.6z"/>
	<path d="M101.2,114.8c0-3.7,3-6.8,6.7-6.8c3.7,0,6.8,3,6.8,6.7c0,3.7-3,6.8-6.7,6.8C104.3,121.6,101.2,118.6,101.2,114.8z"/>
</g>
</svg>
