<?xml version="1.0" encoding="utf-8"?>
<!-- Generator: Adobe Illustrator 19.0.0, SVG Export Plug-In . SVG Version: 6.00 Build 0)  -->
<svg version="1.1" id="Layer_1" xmlns="http://www.w3.org/2000/svg" xmlns:xlink="http://www.w3.org/1999/xlink" x="0px" y="0px"
	 viewBox="0 0 200 200" style="enable-background:new 0 0 200 200;" xml:space="preserve">
<g id="XMLID_3_">
</g>
<g id="XMLID_30_">
</g>
<g id="XMLID_1_">
</g>
<g id="XMLID_38_">
</g>
<g>
	<path d="M78.3,101.5c-1.5-2.8-2.6-5.6-3.4-8.6c-6.1-22.4,8-45.6,30.7-50.6c22-4.8,43.5,8.7,48.6,30.6c5.2,22.3-8.7,43.8-30,49
		c-9.9,2.4-19.4,1.3-28.5-3.3c-0.4-0.2-0.6-0.1-0.9,0.1c-9.3,9.4-18.7,18.7-28.1,28.1c-3.5,3.5-8.9,4.6-13.4,2.6
		c-4.6-2-7.5-6.7-7.2-11.7c0.2-3.3,1.7-6,4-8.4c9.1-9.1,18.2-18.2,27.4-27.3C77.9,101.9,78.1,101.7,78.3,101.5z M114.5,48.2
		c-18.8,0-34.1,15.2-34.1,34.1c-0.1,18.8,15.2,34,34,34.1c18.8,0.1,34.2-15.2,34.2-33.9C148.6,63.6,133.4,48.3,114.5,48.2z
		 M81.5,106.7c-0.1,0.1-0.2,0.3-0.3,0.5c-8.9,8.9-17.7,17.7-26.6,26.6c-0.3,0.3-0.7,0.7-1,1.1c-2.4,3.1-1.3,7.6,2.3,9.2
		c2.3,1,4.9,0.5,6.8-1.4c9-9,18.1-18,27.1-27.1c0.1-0.1,0.2-0.2,0.3-0.3c-1.5-1.4-3.1-2.6-4.5-4C84.2,109.8,82.9,108.2,81.5,106.7z"
		/>
	<path d="M113.5,58.5c0.4,0,0.8,0,1.2,0c0.9,0.1,1.5,0.8,1.5,1.6c0,0.8-0.6,1.6-1.4,1.7c-1,0.1-1.9,0.1-2.9,0.2
		c-8.5,0.9-16,7.9-17.5,16.3c-0.2,1.3-0.3,2.5-0.4,3.8C94,83.3,93.3,84,92.3,84c-1,0-1.7-0.7-1.7-1.9c-0.1-11.1,8.3-21.2,19.2-23.2
		C111,58.7,112.2,58.6,113.5,58.5C113.5,58.5,113.5,58.5,113.5,58.5z"/>
</g>
</svg>
