<?xml version="1.0" encoding="utf-8"?>
<!-- Generator: Adobe Illustrator 19.0.0, SVG Export Plug-In . SVG Version: 6.00 Build 0)  -->
<svg version="1.1" id="Layer_1" xmlns="http://www.w3.org/2000/svg" xmlns:xlink="http://www.w3.org/1999/xlink" x="0px" y="0px"
	 viewBox="0 0 200 200" style="enable-background:new 0 0 200 200;" xml:space="preserve">
<g id="XMLID_3_">
</g>
<g id="XMLID_30_">
</g>
<g id="XMLID_1_">
</g>
<g id="XMLID_4_">
	<path id="XMLID_72_" d="M57.5,103.5c-1-0.3-1.8-0.3-2.5-0.5c-4.3-1-7.2-4.7-7.5-9.5c0-1.8,0-3.5,0.3-5.3c0.3-1.5,0.7-3,1.8-4.3
		c3.5-4.5,6.8-9,10.3-13.5c0.3-0.3,0.5-0.7,0.7-1c0.5-0.3,0.5-0.7,0.5-1.3c0-5,0-10,0-15c0-3,2-5.7,5-6.5c0.5-0.3,1.3-0.3,1.8-0.3
		c22.2,0,44.5,0,67,0c3.8,0,6.8,3,6.8,6.8c0,5.3,0,10.3,0,15.5c0,0.3,0,0.5,0.3,0.7c0.5,0.5,1,1,1.5,1.5c3.2,4.3,6.3,8.5,9.5,12.8
		c1.5,2,2.3,4,2.3,6.5c0,1.5,0,3,0,4.5c-0.5,4.5-4.5,8.2-9,8.5c-0.3,0-0.5,0-1,0c0,0.3,0,0.5,0,0.7c0,14.3,0,28.2,0,42.5
		c0,3-1.3,5-4,6.5c-1,0.5-2,0.5-3,0.5c-19.3,0-38.5,0-57.8,0c-5.3,0-10.3,0-15.5,0c-3,0-5.7-1.8-6.5-4.7c-0.3-0.7-0.3-1.5-0.3-2.5
		c0-14,0-28.2,0-42.2C57.5,103.8,57.5,103.8,57.5,103.5z M86.1,146.8c0-0.3,0-0.5,0-0.7c0-10.7,0-21.8,0-32.5c0-2.2,1.5-3.5,3.5-3.5
		c8.2,0,16.5,0,24.5,0c0.3,0,0.5,0,0.7,0c1.8,0.3,3,1.8,3,3.5c0,10.7,0,21.8,0,32.5c0,0.3,0,0.5,0,0.5c6.8,0,13.2,0,20,0
		c0-14.5,0-29,0-43.5c-24.5,0-49,0-73.5,0c0,14.5,0,29,0,43.5C71.5,146.8,78.8,146.8,86.1,146.8z M134.6,53.2c-22.2,0-44.5,0-66.8,0
		c0,4.5,0,8.8,0,13.2c22.2,0,44.5,0,66.8,0C134.6,62,134.6,57.8,134.6,53.2z M89.3,146.8c8.2,0,16.8,0,25,0c0-11.3,0-22.2,0-33.2
		c-8.2,0-16.8,0-25,0C89.3,124.5,89.3,135.5,89.3,146.8z M125,73.2c0,0.3,0.3,0.3,0.3,0.5c4.3,7.5,8.5,15,13,22.5
		c0.3,0.3,0.3,0.5,0.7,0.5c1.8,0,3.8,0,5.5,0c2,0,3.5-1.3,3.5-3.5c0-1,0-2,0-3.2c0-0.7-0.3-1.5-0.7-2c-3.2-4.5-6.8-9-10-13.5
		c-0.5-0.7-1.5-1.3-2.5-1.3C131.5,73.2,128.3,73.2,125,73.2z M77.1,73.2c-3.2,0-6.5,0-9.7,0c-1,0-1.8,0.5-2.5,1.3
		c-3.2,4.5-6.8,9-10,13.2c-0.5,0.5-0.7,1.3-0.7,2c0,1,0,2,0,3.2c0,2,1.5,3.5,3.5,3.5c1.8,0,3.8,0,5.5,0c0.3,0,0.5,0,0.7-0.5
		c4.3-7.5,8.5-15,12.8-22.5C77.1,73.5,77.1,73.5,77.1,73.2z M102.8,96.5c4.7,0,9.5,0,14.3,0c0-0.3,0-0.3-0.3-0.5
		c-0.5-1.3-0.7-2.8-1.3-4c-1.8-6.3-3.5-12.2-5.3-18.5c0-0.3-0.3-0.5-0.5-0.5c-2.2,0-4.5,0-6.8,0h-0.3
		C102.8,81,102.8,88.8,102.8,96.5z M91.8,73.2C89.6,81,87.3,88.8,85,96.5c4.7,0,9.5,0,14.3,0c0-7.8,0-15.5,0-23.2
		C96.8,73.2,94.3,73.2,91.8,73.2z M67.5,96.8c0.3,0,0.5,0,0.7,0c4.3,0,8.5,0,12.8,0c0.5,0,0.7,0,0.7-0.5c1.8-6.5,3.8-13,5.5-19.7
		c0.3-1,0.5-2,1-3.2c-0.3,0-0.3,0-0.5,0c-2,0-4.3,0-6.3,0c-0.3,0-0.5,0-0.7,0.5c-4.3,7.5-8.5,15-12.8,22.5
		C67.8,96.3,67.8,96.5,67.5,96.8z M134.6,96.8c0-0.3,0-0.3,0-0.3c-4.3-7.5-8.8-15.3-13-22.8c-0.3-0.3-0.3-0.3-0.5-0.3
		c-2.2,0-4.3,0-6.5,0h-0.3c0,0.3,0,0.3,0,0.5c2.2,7.5,4.3,15,6.5,22.5c0,0.3,0.3,0.5,0.7,0.5c3.8,0,7.2,0,11,0
		C132.8,96.8,133.6,96.8,134.6,96.8z"/>
</g>
<g id="XMLID_38_">
</g>
</svg>
