<?xml version="1.0" encoding="utf-8"?>
<!-- Generator: Adobe Illustrator 19.0.0, SVG Export Plug-In . SVG Version: 6.00 Build 0)  -->
<svg version="1.1" id="Layer_1" xmlns="http://www.w3.org/2000/svg" xmlns:xlink="http://www.w3.org/1999/xlink" x="0px" y="0px"
	 viewBox="0 0 200 200" style="enable-background:new 0 0 200 200;" xml:space="preserve">
<g id="XMLID_4_">
	<path id="XMLID_48_" d="M153.1,93.9c0,3-0.3,8.5-0.5,14c-0.3,4.7-2.5,8.5-6.5,11c-6.5,4-13.2,8-19.7,12
		c-10.7,6.5-21.5,13-32.5,19.5c-4.7,3-10.3,2.5-14.5-1c-1.5-1.3-2.5-2.5-3.2-4c-8-14.5-16-29-24-43.5c-0.7-1.5-1.8-3-2.2-4.7
		c-2.2-6,0.3-12.8,6-16c17.5-10.5,34.7-21,52.2-31.5c4.3-2.5,8.5-2.8,12.8-0.3c8.8,4.7,17.2,9.5,26,14.3c4.7,2.8,7.2,6.8,7,12.2
		C153.6,81.2,153.3,86.4,153.1,93.9z M146.8,91.2L146.8,91.2c0.3-5,0.5-10.3,0.5-15.3c0-2.8-1.3-5-3.8-6.3
		c-8.8-4.7-17.2-9.5-26-14.5c-2.2-1.3-4.5-1.3-6.8,0c-17.2,10.7-34.5,21.3-52,31.5c-3.5,2-4.5,6.3-2.5,9.5
		c8.5,15.3,16.8,30.5,25.3,45.7c1.8,3.2,5.7,4.5,9.3,2.5c10.5-6.5,21-12.8,31.5-19c7-4.3,13.8-8.2,20.7-12.5c1.8-1,2.8-2.5,3.2-4.5
		c0.3-1.5,0.3-3.2,0.3-4.7C146.6,99.4,146.6,95.4,146.8,91.2z"/>
	<path id="XMLID_42_" d="M136.8,83.9c0,4.7-3.2,9-8,10c-3.8,0.7-6.8-0.5-9.3-3.5c-3.5-4.3-2.8-10.7,1.5-14.3
		c5.5-4.3,13.5-1.5,15,5.3C136.6,82.2,136.6,83.2,136.8,83.9z M133.6,83.9c0-0.3,0-0.7-0.3-1.3c-0.5-2.5-2-4.3-4.3-5
		c-2.2-0.7-4.5-0.3-6.3,1.3c-2.8,2.5-3,6.8-0.5,9.5c2.2,2.5,5.7,3,8.5,1C132.6,88.2,133.3,86.2,133.6,83.9z"/>
</g>
<g id="XMLID_3_">
</g>
</svg>
